<?xml version="1.0" standalone="no"?>
<!DOCTYPE svg PUBLIC "-//W3C//DTD SVG 1.1//EN" "http://www.w3.org/Graphics/SVG/1.1/DTD/svg11.dtd" >
<svg xmlns="http://www.w3.org/2000/svg">
<metadata></metadata>
<defs>
<font id="Tahoma_Regular" horiz-adv-x="1118" >
<font-face units-per-em="2048" ascent="1638" descent="-410" />
<missing-glyph horiz-adv-x="640" />
<glyph horiz-adv-x="2048" />
<glyph horiz-adv-x="2048" />
<glyph unicode="&#xd;" horiz-adv-x="640" />
<glyph unicode=" "  horiz-adv-x="640" />
<glyph unicode="&#x09;" horiz-adv-x="640" />
<glyph unicode="&#xa0;" horiz-adv-x="640" />
<glyph unicode="!" horiz-adv-x="680" d="M228 1489h224l-28 -1079h-166zM238 0v211h204v-211h-204z" />
<glyph unicode="&#x22;" horiz-adv-x="822" d="M114 1556h218l-43 -579h-132zM490 1556h218l-43 -579h-132z" />
<glyph unicode="#" horiz-adv-x="1490" d="M142 421v135h293l92 376h-268v135h303l105 422h129l-105 -422h270l105 422h129l-105 -422h258v-135h-293l-92 -376h268v-135h-303l-105 -421h-129l105 421h-270l-105 -421h-129l105 421h-258zM561 554h274l94 380h-274z" />
<glyph unicode="$" d="M106 85v202h15q79 -59 178 -96t215 -47v432q-25 6 -61 14.5t-61 16.5q-150 41 -214.5 124t-64.5 204q0 142 111 247t290 122v272h114v-270q91 -3 188.5 -25.5t159.5 -49.5v-198h-15q-70 48 -153.5 84t-179.5 44v-430q33 -7 61.5 -14.5t49.5 -12.5q136 -32 210.5 -111 t74.5 -213q0 -147 -112.5 -252.5t-283.5 -126.5v-362h-114v357q-108 1 -217.5 25t-190.5 64zM302 961q0 -89 44.5 -137.5t167.5 -77.5v414q-90 -8 -151 -58.5t-61 -140.5zM628 146q102 12 154.5 61.5t52.5 146.5q0 94 -48 139t-159 68v-415z" />
<glyph unicode="%" horiz-adv-x="2000" d="M102 1075q0 224 91 333t262 109q174 0 263 -110t89 -331q0 -225 -90.5 -333.5t-261.5 -108.5q-174 0 -263.5 110t-89.5 331zM280 1075q0 -150 34 -229t141 -79q103 0 138.5 79t35.5 230q0 152 -35.5 230t-138.5 78t-139 -79t-36 -230zM528 0l780 1489h165l-780 -1489 h-165zM1192 412q0 224 91 333t262 109q174 0 263 -110t89 -331q0 -225 -90.5 -333.5t-261.5 -108.5q-174 0 -263.5 110t-89.5 331zM1370 412q0 -150 34 -229t141 -79q103 0 138.5 79t35.5 230q0 152 -35.5 230t-138.5 78t-139 -79t-36 -230z" />
<glyph unicode="&#x26;" horiz-adv-x="1380" d="M67 409q0 86 24 153t64 121q39 52 90 91.5t98 68.5q-101 68 -151 143t-50 189q0 71 28.5 131.5t74.5 106.5q48 47 124.5 77t167.5 30q166 0 271 -87.5t105 -221.5q0 -49 -12.5 -101.5t-45.5 -101.5t-86.5 -92t-142.5 -75l352 -362q14 82 17 178.5t3 251.5h195v-96 q0 -96 -24.5 -216.5t-80.5 -228.5l357 -368h-256l-204 213q-102 -130 -209.5 -187t-243.5 -57q-202 0 -333.5 121.5t-131.5 318.5zM272 457q0 -142 84.5 -233.5t228.5 -91.5q96 0 173 40.5t140 128.5l-460 471q-25 -16 -50 -38t-55 -66q-24 -35 -42.5 -91.5t-18.5 -119.5z M338 1184q0 -40 7.5 -68.5t31.5 -66.5q21 -31 58.5 -66t96.5 -71q56 19 92.5 51t56.5 70q18 35 27 74t9 84q0 97 -56.5 150t-131.5 53q-89 0 -140 -60t-51 -150z" />
<glyph unicode="'" horiz-adv-x="432" d="M105 1556h222l-43 -579h-136z" />
<glyph unicode="(" horiz-adv-x="784" d="M108 572q0 308 98.5 542.5t274.5 441.5h229v-10q-81 -73 -154.5 -168.5t-136.5 -222.5q-60 -123 -97.5 -271t-37.5 -312q0 -171 36.5 -313t98.5 -270q60 -123 137 -222.5t154 -168.5v-10h-229q-174 207 -273.5 438t-99.5 546z" />
<glyph unicode=")" horiz-adv-x="784" d="M74 -402q77 69 155 169.5t136 221.5q62 129 98.5 272.5t36.5 310.5q0 165 -37 312t-98 271t-138 223t-153 168v10h229q174 -207 273.5 -440t99.5 -544q0 -309 -99 -543t-274 -441h-229v10z" />
<glyph unicode="*" d="M112 886l354 207l-354 207l66 110l326 -219l-7 365h125l-8 -365l328 218l65 -110l-354 -205l354 -207l-65 -110l-327 217l7 -364h-125l6 364l-325 -218z" />
<glyph unicode="+" horiz-adv-x="1490" d="M157 572v160h505v505h166v-505h505v-160h-505v-505h-166v505h-505z" />
<glyph unicode="," horiz-adv-x="620" d="M74 -370l176 655h250l-280 -655h-146z" />
<glyph unicode="-" horiz-adv-x="744" d="M90 561v181h564v-181h-564z" />
<glyph unicode="." horiz-adv-x="620" d="M190 0v285h239v-285h-239z" />
<glyph unicode="/" horiz-adv-x="783" d="M-24 -324l580 1880h172l-583 -1880h-169z" />
<glyph unicode="0" d="M83 743q0 403 116.5 589.5t359.5 186.5q246 0 361 -193t115 -581q0 -401 -116.5 -588.5t-359.5 -187.5q-246 0 -361 191t-115 583zM286 743q0 -156 9.5 -261t41.5 -188q29 -77 82.5 -118.5t139.5 -41.5q83 0 136.5 39.5t83.5 117.5q29 74 41 187t12 267q0 153 -12 266 t-42 188q-30 76 -82.5 115.5t-136.5 39.5q-83 0 -136.5 -39.5t-84.5 -117.5q-30 -76 -41 -192t-11 -262z" />
<glyph unicode="1" d="M226 0v152h270v998h-270v136q153 0 225.5 43.5t81.5 164.5h155v-1342h264v-152h-726z" />
<glyph unicode="2" d="M109 0v209q99 94 187 180t172 179q170 187 232 299.5t62 232.5q0 62 -19.5 109t-53.5 78q-35 30 -81 45t-101 15q-53 0 -107.5 -13.5t-104.5 -33.5q-42 -17 -81 -41t-63 -41h-11v212q62 31 172.5 60.5t209.5 29.5q208 0 326 -110.5t118 -299.5q0 -87 -20.5 -161 t-56.5 -137q-37 -65 -89 -129t-110 -126q-94 -102 -209.5 -212t-184.5 -174h732v-171h-919z" />
<glyph unicode="3" d="M97 61v211h14q63 -46 169 -88t212 -42q61 0 122.5 19.5t102.5 63.5q40 44 61 97t21 134t-23.5 133t-65.5 82t-99.5 41.5t-124.5 11.5h-85v166h66q135 0 219.5 64t84.5 186q0 56 -22 96.5t-56 64.5q-38 26 -84 36t-98 10q-54 0 -108 -13t-106 -34q-48 -20 -83.5 -42 t-63.5 -41h-12v211q65 35 176.5 63.5t212.5 28.5t176.5 -20.5t136.5 -63.5q66 -48 99.5 -116t33.5 -159q0 -123 -81 -216t-194 -118v-14q47 -9 100.5 -31t99.5 -65t75 -110.5t29 -164.5q0 -101 -34.5 -185.5t-97.5 -149.5q-65 -68 -157 -103t-209 -35q-112 0 -222 27 t-185 65z" />
<glyph unicode="4" d="M40 512v210l666 767h184v-817h177v-160h-177v-512h-192v512h-658zM196 672h502v582z" />
<glyph unicode="5" d="M124 54v211h14q23 -17 66 -38.5t95 -40.5q59 -21 108 -32.5t110 -11.5q60 0 117 21.5t98 69.5q37 44 56.5 103t19.5 139q0 79 -21.5 130t-62.5 84q-43 38 -105.5 53.5t-139.5 15.5q-81 0 -163 -12.5t-131 -23.5v767h817v-175h-624v-396q36 4 71 6t64 2q114 0 193 -19 t152 -74q74 -56 113.5 -140t39.5 -219q0 -108 -34.5 -200t-96.5 -159q-63 -68 -156.5 -107t-209.5 -39q-107 0 -210.5 23.5t-179.5 61.5z" />
<glyph unicode="6" d="M85 654q0 194 40 350.5t123 272.5q81 113 209 176.5t296 63.5q50 0 93 -5t76 -16v-191h-9q-27 15 -78 27.5t-109 12.5q-186 0 -300.5 -125.5t-135.5 -372.5q71 50 146 77t164 27q87 0 152.5 -17.5t136.5 -70.5q82 -62 122 -157t40 -223q0 -115 -38 -212t-102 -162 q-67 -69 -150 -104.5t-183 -35.5q-101 0 -183.5 34t-145.5 101q-77 81 -120.5 216.5t-43.5 333.5zM286 611q0 -155 30.5 -250t75.5 -144q43 -47 88.5 -66t98.5 -19q120 0 194.5 86t74.5 257q0 92 -24 154t-78 106q-39 32 -88.5 42t-101.5 10q-70 0 -136 -21t-130 -61 q-2 -22 -3 -42.5t-1 -51.5z" />
<glyph unicode="7" d="M99 1314v175h945v-223l-644 -1266h-213l682 1314h-770z" />
<glyph unicode="8" d="M74 411q0 121 64.5 222.5t187.5 161.5v6q-110 64 -163 140t-53 190q0 168 127 280t322 112q203 0 325.5 -106.5t122.5 -272.5q0 -100 -58.5 -198t-168.5 -153v-6q130 -61 197 -148t67 -224q0 -191 -138.5 -320t-346.5 -129q-111 0 -202 33t-155 95q-63 60 -95.5 142.5 t-32.5 174.5zM275 426q0 -135 81.5 -223t204.5 -88q126 0 202 75.5t76 205.5q0 92 -36 146t-139 110q-34 19 -90.5 41t-127.5 52q-83 -55 -127 -135.5t-44 -183.5zM310 1154q0 -74 35.5 -125t106.5 -92q31 -17 94.5 -47t115.5 -47q87 67 118 137.5t31 161.5q0 100 -67 167 t-186 67q-109 0 -178.5 -60t-69.5 -162z" />
<glyph unicode="9" d="M67 1005q0 115 37.5 210t102.5 164q62 66 151.5 103t181.5 37q103 0 186.5 -34.5t144.5 -99.5q77 -82 119.5 -215t42.5 -336q0 -185 -41.5 -350.5t-122.5 -274.5q-86 -116 -206.5 -177t-297.5 -61q-40 0 -85 4.5t-84 16.5v191h10q25 -14 78 -27t108 -13q196 0 308 129 t127 369q-80 -54 -152.5 -79t-157.5 -25q-83 0 -151 18t-137 70q-80 61 -121 154.5t-41 225.5zM270 1013q0 -94 24 -155t78 -105q38 -31 86 -41.5t103 -10.5q64 0 138 22.5t129 59.5q1 15 2.5 39.5t1.5 54.5q0 152 -28 247.5t-77 147.5q-44 48 -89 66t-99 18 q-123 0 -196 -88t-73 -255z" />
<glyph unicode=":" horiz-adv-x="724" d="M243 0v285h239v-285h-239zM243 832v285h239v-285h-239z" />
<glyph unicode=";" horiz-adv-x="724" d="M122 -370l176 655h250l-280 -655h-146zM243 832v285h239v-285h-239z" />
<glyph unicode="&#x3c;" horiz-adv-x="1490" d="M201 592v120l1074 513v-178l-833 -395l833 -395v-178z" />
<glyph unicode="=" horiz-adv-x="1490" d="M192 362v160h1106v-160h-1106zM192 782v160h1106v-160h-1106z" />
<glyph unicode="&#x3e;" horiz-adv-x="1490" d="M215 79v178l833 395l-833 395v178l1074 -513v-120z" />
<glyph unicode="?" horiz-adv-x="970" d="M109 1245v204q67 27 169 48.5t193 21.5q205 0 323 -104.5t118 -275.5q0 -98 -32.5 -174.5t-86.5 -134.5t-122.5 -107t-144.5 -95v-228h-179v305q56 34 130.5 81.5t116.5 88.5q54 51 84 111.5t30 137.5q0 113 -71 168.5t-185 55.5q-100 0 -188.5 -33.5t-143.5 -69.5h-11z M338 0v211h204v-211h-204z" />
<glyph unicode="@" horiz-adv-x="1862" d="M132 647q0 367 239.5 619t583.5 252q368 0 576 -237.5t208 -617.5q0 -139 -38 -268.5t-109 -237.5h-421l-25 116q-67 -57 -123.5 -90.5t-153.5 -33.5q-154 0 -252 123.5t-98 358.5t120.5 366t275.5 131q72 0 124 -18t105 -48v48h159v-842h227q38 71 54.5 184t16.5 205 q0 327 -166.5 526.5t-478.5 199.5q-296 0 -488.5 -215.5t-192.5 -522.5q0 -330 187 -534.5t489 -204.5q81 0 170.5 11t169.5 35v-142q-84 -20 -170.5 -28t-170.5 -8q-354 0 -586 243t-232 630zM690 634q0 -160 52 -245t166 -85q61 0 120.5 29t113.5 75v518q-56 29 -103 41.5 t-98 12.5q-113 0 -182 -84.5t-69 -261.5z" />
<glyph unicode="A" horiz-adv-x="1228" d="M-10 0l502 1489h244l502 -1489h-209l-135 416h-569l-135 -416h-200zM380 585h459l-230 702z" />
<glyph unicode="B" horiz-adv-x="1207" d="M151 0v1489h395q159 0 238.5 -10.5t152.5 -49.5q80 -43 117 -112.5t37 -163.5q0 -105 -55.5 -188t-153.5 -130v-8q133 -36 206 -131.5t73 -238.5q0 -111 -42 -196t-113 -140q-84 -66 -180 -93.5t-248 -27.5h-427zM349 169h161q130 0 205 12t132 51q56 39 82 88.5 t26 128.5q0 84 -24 138.5t-97 92.5q-47 25 -102.5 32t-157.5 7h-225v-550zM349 884h225q93 0 137 9.5t91 39.5q45 29 64 76t19 116q0 54 -18 93.5t-58 62.5q-48 27 -107 33t-163 6h-190v-436z" />
<glyph unicode="C" horiz-adv-x="1230" d="M66 743q0 187 47.5 326t138.5 242q89 100 211 152.5t273 52.5q75 0 140.5 -11t121.5 -28q48 -15 98.5 -37.5t99.5 -49.5v-239h-16q-26 24 -67 58t-100 67q-57 31 -124 51t-155 20q-95 0 -180 -39t-149 -115q-63 -76 -98 -191t-35 -259q0 -153 37 -263.5t101 -186.5 q62 -74 146 -111.5t178 -37.5q86 0 159 21t130 53q55 31 95 63.5t63 55.5h15v-236q-49 -23 -92.5 -44t-105.5 -41q-65 -21 -120.5 -32t-144.5 -11q-146 0 -268.5 49t-211.5 146t-138 242t-49 333z" />
<glyph unicode="D" horiz-adv-x="1389" d="M151 0v1489h339q210 0 329.5 -31.5t203.5 -86.5q144 -95 223 -252.5t79 -375.5q0 -204 -82.5 -368t-221.5 -256q-113 -71 -229.5 -95t-297.5 -24h-343zM349 170h151q132 0 231 21t181 78q103 70 155 186.5t52 290.5q0 172 -57 293.5t-169 189.5q-79 48 -169 69t-224 21 h-151v-1149z" />
<glyph unicode="E" horiz-adv-x="1149" d="M151 0v1489h931v-176h-733v-408h683v-176h-683v-553h733v-176h-931z" />
<glyph unicode="F" horiz-adv-x="1068" d="M151 0v1489h891v-176h-693v-420h664v-176h-664v-717h-198z" />
<glyph unicode="G" horiz-adv-x="1367" d="M66 746q0 180 50.5 322.5t144.5 243.5q91 98 224 151t291 53q75 0 144 -11t132 -30q50 -15 111.5 -41.5t99.5 -45.5v-239h-17q-37 33 -76.5 62.5t-111.5 63.5q-60 30 -138 50t-168 20q-215 0 -347.5 -162t-132.5 -431q0 -150 35 -262t101 -190q64 -77 154.5 -117.5 t203.5 -40.5q84 0 167 12t140 36v385h-344v174h540v-650q-38 -17 -101.5 -43t-118.5 -41q-73 -22 -132 -33t-143 -11q-158 0 -289 48t-225 146q-94 99 -144 245t-50 336z" />
<glyph unicode="H" horiz-adv-x="1383" d="M151 0v1489h198v-584h685v584h198v-1489h-198v729h-685v-729h-198z" />
<glyph unicode="I" horiz-adv-x="764" d="M93 0v152h190v1185h-190v152h578v-152h-190v-1185h190v-152h-578z" />
<glyph unicode="J" horiz-adv-x="853" d="M9 8v189h11q41 -14 101.5 -31t123.5 -17q92 0 146.5 21t80.5 60q27 40 34.5 98t7.5 134v869h-315v158h513v-1102q0 -196 -119.5 -302t-320.5 -106q-48 0 -128.5 8.5t-134.5 20.5z" />
<glyph unicode="K" horiz-adv-x="1204" d="M151 0v1489h198v-685l610 685h241l-616 -665l652 -824h-257l-543 693l-87 -98v-595h-198z" />
<glyph unicode="L" horiz-adv-x="1019" d="M151 0v1489h198v-1313h665v-176h-863z" />
<glyph unicode="M" horiz-adv-x="1578" d="M151 0v1489h270l372 -829l359 829h275v-1489h-198v1283l-388 -873h-120l-385 873v-1283h-185z" />
<glyph unicode="N" horiz-adv-x="1367" d="M151 0v1489h281l599 -1179v1179h185v-1489h-222l-658 1284v-1284h-185z" />
<glyph unicode="O" horiz-adv-x="1449" d="M66 744q0 188 46.5 330t132.5 244q86 99 207.5 150.5t271.5 51.5q152 0 274 -53t206 -149q85 -98 132 -243t47 -331q0 -181 -46 -327t-133 -245q-91 -104 -212.5 -153.5t-267.5 -49.5q-151 0 -272 51t-208 152q-86 99 -132 244t-46 328zM272 744q0 -293 123 -448.5 t330 -155.5t329.5 155.5t122.5 448.5q0 148 -32 262t-90 189q-59 77 -142.5 115.5t-187.5 38.5q-108 0 -188.5 -37.5t-142.5 -116.5q-59 -76 -90.5 -191t-31.5 -260z" />
<glyph unicode="P" horiz-adv-x="1129" d="M151 0v1489h374q132 0 225 -22t164 -71q83 -57 130 -144.5t47 -211.5q0 -97 -34.5 -183.5t-95.5 -147.5q-77 -76 -181 -115t-263 -39h-168v-555h-198zM349 724h135q120 0 194 19.5t123 69.5q44 45 64 98t20 124q0 77 -26.5 134t-80.5 93q-47 31 -109.5 44t-155.5 13h-164 v-595z" />
<glyph unicode="Q" horiz-adv-x="1449" d="M66 744q0 188 46.5 330t132.5 244q86 99 207.5 150.5t271.5 51.5q152 0 274 -53t206 -149q85 -98 132 -243t47 -331q0 -289 -113 -477t-309 -255q5 -56 19.5 -100.5t37.5 -70.5q27 -31 65.5 -45.5t105.5 -14.5q40 0 94 12.5t78 22.5h27v-180q-54 -14 -113.5 -21 t-118.5 -7q-167 0 -271.5 94t-114.5 268h-25h-21q-151 0 -272.5 51.5t-207.5 150.5t-132 244t-46 328zM272 744q0 -293 123 -449t330 -156t329.5 156t122.5 449q0 148 -32 262t-90 189q-59 77 -142.5 115.5t-187.5 38.5q-108 0 -188.5 -37.5t-142.5 -116.5 q-59 -76 -90.5 -191t-31.5 -260z" />
<glyph unicode="R" horiz-adv-x="1271" d="M151 0v1489h384q128 0 214.5 -14t164.5 -65q78 -50 123.5 -129t45.5 -196q0 -164 -83 -274t-226 -163l530 -648h-257l-472 592h-226v-592h-198zM349 757h174q85 0 153 15t116 62q43 42 63.5 100t20.5 136q0 65 -23 115.5t-71 82.5q-42 28 -98 39.5t-139 11.5h-196v-562z " />
<glyph unicode="S" horiz-adv-x="1141" d="M77 89v248h14q98 -92 222 -142.5t239 -50.5q164 0 248 68.5t84 180.5q0 89 -44 145t-140 83q-69 20 -126 33t-143 35q-77 20 -138 51t-108 81q-46 49 -71.5 115.5t-25.5 153.5q0 181 141 303.5t360 122.5q125 0 236.5 -25t206.5 -71v-237h-15q-71 65 -182 113.5 t-233 48.5q-138 0 -223 -64.5t-85 -169.5q0 -95 50 -151t145 -82q63 -17 154 -38.5t151 -39.5q154 -47 225 -142t71 -234q0 -87 -35.5 -172t-99.5 -144q-72 -65 -162.5 -100t-226.5 -35q-162 0 -275.5 33.5t-213.5 82.5z" />
<glyph unicode="T" horiz-adv-x="1196" d="M-1 1313v176h1198v-176h-500v-1313h-198v1313h-500z" />
<glyph unicode="U" horiz-adv-x="1343" d="M133 560v929h198v-929q0 -103 13 -173.5t51 -126.5q40 -60 108.5 -91t167.5 -31q93 0 165 31t112 91q37 57 50.5 126t13.5 169v934h198v-929q0 -155 -31.5 -266t-110.5 -188q-71 -69 -165.5 -103t-231.5 -34q-131 0 -229 34.5t-167 102.5q-78 78 -110 186.5t-32 267.5z " />
<glyph unicode="V" horiz-adv-x="1222" d="M-8 1489h212l412 -1236l412 1236h202l-512 -1489h-214z" />
<glyph unicode="W" horiz-adv-x="1847" d="M26 1489h203l300 -1238l298 1238h201l301 -1250l298 1250h194l-374 -1489h-223l-303 1236l-296 -1236h-218z" />
<glyph unicode="X" horiz-adv-x="1189" d="M8 0l473 745l-459 744h226l356 -585l361 585h215l-466 -734l467 -755h-227l-363 596l-369 -596h-214z" />
<glyph unicode="Y" horiz-adv-x="1180" d="M-11 1489h220l384 -657l390 657h210l-503 -830v-659h-198v638z" />
<glyph unicode="Z" horiz-adv-x="1145" d="M60 0v184l797 1129h-761v176h984v-179l-806 -1134h826v-176h-1040z" />
<glyph unicode="[" horiz-adv-x="784" d="M166 -392v1948h520v-143h-345v-1662h345v-143h-520z" />
<glyph unicode="\" horiz-adv-x="783" d="M52 1556h172l580 -1880h-169z" />
<glyph unicode="]" horiz-adv-x="784" d="M98 -249h345v1662h-345v143h520v-1948h-520v143z" />
<glyph unicode="^" horiz-adv-x="1490" d="M133 682l549 807h126l549 -805h-198l-415 625l-414 -627h-197z" />
<glyph unicode="_" d="M-16 -170h1150v-130h-1150v130z" />
<glyph unicode="`" d="M248 1676h243l179 -374h-149z" />
<glyph unicode="a" horiz-adv-x="1075" d="M58 324q0 116 49 197.5t155 129.5q94 43 222 59.5t276 24.5v36q0 66 -20 106.5t-56 62.5q-36 23 -88 30.5t-107 7.5q-65 0 -153 -19.5t-176 -56.5h-11v191q52 15 149 33t192 18q115 0 194 -18t142 -65q61 -46 91 -119t30 -178v-764h-187v119q-23 -17 -61.5 -47.5 t-74.5 -48.5q-50 -26 -96.5 -40t-130.5 -14q-69 0 -131 26t-109 73q-45 46 -72 113.5t-27 142.5zM252 336q0 -96 54 -145t158 -49q89 0 161 38.5t135 94.5v310q-67 -6 -169.5 -16.5t-165.5 -29.5q-75 -23 -124 -70.5t-49 -132.5z" />
<glyph unicode="b" horiz-adv-x="1132" d="M136 0v1556h188v-556q71 64 154 106t188 42q189 0 298 -151.5t109 -419.5q0 -274 -133 -441t-333 -167q-91 0 -155.5 22.5t-127.5 60.5l-12 -52h-176zM324 202q71 -35 126 -49.5t121 -14.5q144 0 226 102t82 322q0 200 -61 303.5t-196 103.5q-77 0 -155.5 -36t-142.5 -91 v-640z" />
<glyph unicode="c" horiz-adv-x="945" d="M59 557q0 147 39.5 254t105.5 180t164.5 112.5t211.5 39.5q92 0 177.5 -26t152.5 -60v-211h-11q-20 17 -51.5 39t-76.5 45q-39 20 -92 35t-102 15q-146 0 -234.5 -110.5t-88.5 -312.5q0 -198 85.5 -308.5t237.5 -110.5q92 0 175 38t147 98h11v-211q-28 -13 -70 -31.5 t-76 -27.5q-48 -14 -86 -21.5t-98 -7.5q-115 0 -211 35.5t-165 107.5t-107 181.5t-38 257.5z" />
<glyph unicode="d" horiz-adv-x="1132" d="M59 550q0 147 38 254.5t105 187.5q61 73 147.5 114.5t181.5 41.5q84 0 146 -18.5t131 -57.5v484h188v-1556h-188v114q-44 -37 -76 -61t-75 -44q-40 -19 -83 -29.5t-100 -10.5q-91 0 -168.5 38t-131.5 111q-55 74 -85 182.5t-30 249.5zM253 554q0 -197 63 -301.5 t202 -104.5q74 0 149 33.5t141 90.5v644q-70 34 -125.5 47t-120.5 13q-145 0 -227 -108.5t-82 -313.5z" />
<glyph unicode="e" horiz-adv-x="1078" d="M59 552q0 273 143 434.5t374 161.5q104 0 184 -30t140 -94t92 -156.5t32 -226.5v-102h-774q0 -195 98 -298t271 -103q62 0 121.5 14t107.5 36q51 23 86 44.5t58 40.5h11v-205q-33 -13 -82 -32.5t-88 -30.5q-55 -15 -99.5 -23t-112.5 -8q-267 0 -414.5 150.5t-147.5 427.5 zM250 683h591q-2 76 -18 131t-46 93q-33 42 -84.5 64t-127.5 22q-75 0 -127.5 -22.5t-95.5 -65.5q-42 -44 -64 -97.5t-28 -124.5z" />
<glyph unicode="f" horiz-adv-x="652" d="M29 961v156h127v37q0 202 97 307t278 105q52 0 102 -5.5t91 -12.5v-172h-10q-25 9 -72 17.5t-84 8.5q-119 0 -169.5 -53.5t-50.5 -193.5v-38h311v-156h-305v-961h-188v961h-127z" />
<glyph unicode="g" horiz-adv-x="1132" d="M59 569q0 139 39 246.5t105 182.5q63 72 149 111t178 39q87 0 150.5 -20.5t127.5 -58.5l11 48h177v-990q0 -284 -124 -417t-379 -133q-82 0 -167.5 13t-159.5 35v196h10q19 -8 56 -21.5t84 -25.5q52 -13 96 -21t96 -8q87 0 147.5 23t94.5 64q32 41 45 95t13 123v98 q-76 -66 -149 -97.5t-183 -31.5q-191 0 -304 142t-113 408zM253 573q0 -186 62.5 -283t202.5 -97q73 0 150.5 29t139.5 81v613q-70 34 -129.5 48.5t-118.5 14.5q-143 0 -225 -105t-82 -301z" />
<glyph unicode="h" horiz-adv-x="1142" d="M136 0v1556h188v-563q84 75 166 115t173 40q165 0 258 -108.5t93 -314.5v-725h-188v636q0 77 -7.5 143.5t-28.5 106.5q-23 42 -64 62.5t-112 20.5q-70 0 -144.5 -37.5t-145.5 -97.5v-834h-188z" />
<glyph unicode="i" horiz-adv-x="468" d="M127 1304v195h214v-195h-214zM140 0v1117h188v-1117h-188z" />
<glyph unicode="j" horiz-adv-x="577" d="M-90 -243h11q22 -5 48.5 -9.5t50.5 -4.5q75 0 123.5 18.5t72.5 58.5q22 36 29.5 91t7.5 134v916h-202v156h390v-1149q0 -191 -102.5 -291t-282.5 -100q-31 0 -69.5 3t-76.5 9v168zM228 1304v195h214v-195h-214z" />
<glyph unicode="k" horiz-adv-x="1020" d="M136 0v1556h188v-911l442 472h234l-459 -467l521 -650h-247l-417 539l-74 -72v-467h-188z" />
<glyph unicode="l" horiz-adv-x="468" d="M140 0v1556h188v-1556h-188z" />
<glyph unicode="m" horiz-adv-x="1720" d="M136 0v1117h188v-124q74 74 146.5 114.5t159.5 40.5q99 0 175.5 -45t116.5 -148q85 95 166 144t176 49q72 0 131 -22.5t103 -72.5q45 -51 69.5 -127t24.5 -191v-735h-188v646q0 77 -6 142.5t-25 102.5q-20 40 -57 59t-100 19q-58 0 -124.5 -35.5t-137.5 -102.5 q1 -17 2.5 -40.5t1.5 -55.5v-735h-188v646q0 77 -6 142.5t-25 102.5q-20 40 -57 59t-100 19q-61 0 -128 -38t-130 -97v-834h-188z" />
<glyph unicode="n" horiz-adv-x="1142" d="M136 0v1117h188v-124q84 75 166 115t173 40q165 0 258 -108.5t93 -314.5v-725h-188v636q0 77 -7.5 143.5t-28.5 106.5q-23 42 -64 62.5t-112 20.5q-70 0 -144.5 -37.5t-145.5 -97.5v-834h-188z" />
<glyph unicode="o" horiz-adv-x="1112" d="M57 558q0 280 137.5 435t362.5 155q226 0 362 -154.5t136 -435.5q0 -282 -136 -435.5t-362 -153.5q-233 0 -366.5 158.5t-133.5 430.5zM251 558q0 -210 79.5 -318.5t226.5 -108.5q145 0 224.5 106.5t79.5 320.5q0 217 -79 322.5t-225 105.5q-147 0 -226.5 -105.5 t-79.5 -322.5z" />
<glyph unicode="p" horiz-adv-x="1132" d="M136 -412v1529h188v-117q70 63 155.5 105.5t186.5 42.5q192 0 299.5 -152t107.5 -408q0 -279 -133.5 -444.5t-337.5 -165.5q-83 0 -147 19t-131 59v-468h-188zM324 209q74 -36 126.5 -49t120.5 -13q146 0 227 107t81 313q0 191 -61 296.5t-198 105.5q-80 0 -154.5 -35.5 t-141.5 -91.5v-633z" />
<glyph unicode="q" horiz-adv-x="1132" d="M59 555q0 144 39.5 254.5t104.5 185.5q62 73 148 113t179 40q86 0 149 -20t129 -59l12 48h176v-1529h-188v534q-82 -75 -160 -109.5t-173 -34.5q-190 0 -303 152.5t-113 424.5zM253 564q0 -196 64 -301.5t199 -105.5q79 0 154 34t138 89v636q-71 35 -127 49t-120 14 q-148 0 -228 -107t-80 -308z" />
<glyph unicode="r" horiz-adv-x="738" d="M136 0v1117h188v-166q103 91 179.5 128.5t148.5 37.5q29 0 43.5 -1.5t32.5 -4.5v-196h-10q-21 6 -44.5 7.5t-56.5 1.5q-76 0 -151 -33t-142 -98v-793h-188z" />
<glyph unicode="s" horiz-adv-x="914" d="M67 67v211h10q24 -19 56.5 -42t86.5 -48q48 -22 105.5 -39t119.5 -17q45 0 96 10.5t76 26.5q35 23 50.5 49t15.5 78q0 67 -36.5 101t-129.5 57q-36 9 -94 21t-107 26q-128 37 -186 114.5t-58 187.5q0 151 114 246t303 95q93 0 187 -23t158 -58v-201h-10q-72 57 -160.5 90 t-178.5 33q-93 0 -157 -39t-64 -118q0 -70 38 -104.5t122 -56.5q42 -11 93.5 -21.5t108.5 -24.5q124 -31 186.5 -103t62.5 -196q0 -72 -28.5 -136.5t-83.5 -110.5q-60 -50 -135.5 -76t-189.5 -26q-112 0 -209.5 30t-161.5 64z" />
<glyph unicode="t" horiz-adv-x="685" d="M21 961v156h127v321h188v-321h346v-156h-346v-531q0 -85 3 -131t23 -86q17 -35 55 -52.5t103 -17.5q46 0 89 13.5t62 22.5h11v-169q-53 -15 -107.5 -23.5t-100.5 -8.5q-154 0 -240 87.5t-86 276.5v619h-127z" />
<glyph unicode="u" horiz-adv-x="1142" d="M128 392v725h188v-636q0 -89 6.5 -147.5t29.5 -102.5q23 -43 62.5 -63t113.5 -20q69 0 147 39t143 96v834h188v-1117h-188v124q-87 -76 -165 -115.5t-174 -39.5q-73 0 -137.5 24t-112.5 76t-74.5 131t-26.5 192z" />
<glyph unicode="v" horiz-adv-x="1020" d="M6 1117h203l306 -862l303 862h196l-421 -1117h-169z" />
<glyph unicode="w" horiz-adv-x="1520" d="M30 1117h196l197 -865l265 865h155l272 -865l186 865h189l-283 -1117h-174l-273 861l-271 -861h-173z" />
<glyph unicode="x" horiz-adv-x="1014" d="M10 0l388 554l-384 563h231l269 -418l276 418h214l-386 -550l386 -567h-231l-271 422l-279 -422h-213z" />
<glyph unicode="y" horiz-adv-x="1020" d="M6 1117h203l305 -827l304 827h196l-601 -1529h-201l200 466z" />
<glyph unicode="z" horiz-adv-x="910" d="M49 0v139l584 823h-560v155h786v-134l-587 -826h598v-157h-821z" />
<glyph unicode="{" horiz-adv-x="984" d="M60 504v156h21q88 0 147.5 25.5t96.5 75.5t50 120t13 139v149q0 190 101.5 288.5t280.5 98.5h116v-138h-80q-59 0 -102 -12t-74 -41q-32 -30 -47.5 -83t-15.5 -130v-175q0 -82 -19 -138t-56 -105q-33 -44 -86 -80.5t-110 -59.5v-24q57 -23 109.5 -59.5t86.5 -80.5 q37 -49 56 -105t19 -138v-175q0 -77 15.5 -130t47.5 -83q30 -29 73.5 -41t102.5 -12h80v-138h-116q-179 0 -280.5 98.5t-101.5 288.5v149q0 69 -13 139t-50 120t-96.5 75.5t-147.5 25.5h-21z" />
<glyph unicode="|" horiz-adv-x="783" d="M308 -392v1948h167v-1948h-167z" />
<glyph unicode="}" horiz-adv-x="984" d="M98 -254h80q59 0 102 12t74 41q32 30 47.5 83t15.5 130v175q0 82 19 138t56 105q33 44 86 80.5t110 59.5v24q-57 23 -110 59.5t-86 80.5q-37 49 -56 105t-19 138v175q0 77 -15.5 130t-47.5 83q-31 29 -74 41t-102 12h-80v138h116q179 0 280.5 -98.5t101.5 -288.5v-149 q0 -69 13 -139t50 -120t96.5 -75.5t147.5 -25.5h21v-156h-21q-88 0 -147.5 -25.5t-96.5 -75.5t-50 -120t-13 -139v-149q0 -190 -101.5 -288.5t-280.5 -98.5h-116v138z" />
<glyph unicode="~" horiz-adv-x="1490" d="M134 395q2 104 21.5 199t58.5 167q40 76 106 120.5t156 44.5q60 0 105.5 -16t80.5 -41t64.5 -57t57.5 -67q22 -27 52.5 -66t51.5 -61q29 -30 58.5 -46t62.5 -16q50 0 84.5 28t53.5 76q20 50 29.5 117.5t11.5 149.5h168q-2 -102 -21 -196.5t-60 -169.5q-41 -73 -102 -119 t-159 -46q-57 0 -102.5 15.5t-80.5 40.5t-67 60t-57 65q-27 33 -53 67t-51 60q-27 28 -56 45t-66 17q-50 0 -83 -26.5t-55 -78.5q-21 -50 -29.5 -120t-11.5 -146h-168z" />
<glyph unicode="&#xa1;" horiz-adv-x="680" d="M228 0l28 1079h166l30 -1079h-224zM238 1278v211h204v-211h-204z" />
<glyph unicode="&#xa2;" d="M114 557q0 238 118 386t325 172v360h114v-359q87 -3 167.5 -26.5t136.5 -52.5v-200h-10q-62 51 -132 89t-162 51v-836q49 5 98.5 23t83.5 38q36 21 64 41.5t48 37.5h10v-198q-65 -30 -135.5 -53.5t-168.5 -28.5v-362h-114v363q-215 25 -329 169t-114 386zM307 557 q0 -188 68.5 -289.5t181.5 -121.5v825q-116 -21 -183 -125.5t-67 -288.5z" />
<glyph unicode="&#xa3;" d="M89 0v207q111 33 156.5 128t45.5 278h-161v138h161v320q0 201 116 324t301 123q97 0 166 -15.5t127 -32.5v-206h-10q-58 41 -129 64t-135 23q-123 0 -183.5 -77t-60.5 -222v-301h364v-138h-364v-61q0 -117 -58.5 -212.5t-163.5 -157.5v-11h770v-171h-942z" />
<glyph unicode="&#xa5;" d="M56 1489h210l294 -639l298 639h201l-408 -811v-100h342v-138h-340v-440h-188v440h-340v138h342v79z" />
<glyph unicode="&#xa7;" d="M119 533q0 94 49 178.5t150 146.5v7q-91 50 -130.5 121t-39.5 161q0 168 128 270t352 102q85 0 157 -13t161 -44v-194h-10q-90 45 -167.5 66t-161.5 21q-112 0 -189.5 -45.5t-77.5 -133.5q0 -57 20.5 -93t59.5 -59q39 -24 99.5 -43t137.5 -39q184 -50 262.5 -128.5 t78.5 -212.5q0 -108 -54.5 -189t-144.5 -135v-7q87 -46 128.5 -116t41.5 -164q0 -74 -31.5 -145t-89.5 -119q-62 -53 -148.5 -82t-209.5 -29q-79 0 -157 14t-161 44v194h10q26 -13 64.5 -29t74.5 -28q47 -15 87 -22.5t101 -7.5q114 0 190.5 46.5t76.5 137.5q0 54 -18.5 87.5 t-59.5 59.5q-42 25 -103.5 42.5t-134.5 38.5q-88 25 -146.5 51t-105.5 69q-45 41 -67 95t-22 126zM308 579q0 -81 38 -129t146 -81q34 -10 77.5 -23.5t97.5 -30.5q19 12 44 33t48 53q24 35 37.5 67.5t13.5 86.5q0 49 -14.5 85t-39.5 59q-24 23 -56 38.5t-74 28.5 q-33 10 -77 22.5t-99 30.5q-20 -12 -41.5 -30t-47.5 -51q-20 -26 -36.5 -70t-16.5 -89z" />
<glyph unicode="&#xa8;" d="M253 1304v195h201v-195h-201zM666 1304v195h201v-195h-201z" />
<glyph unicode="&#xa9;" horiz-adv-x="1902" d="M86 655q0 358 253.5 611t611.5 253t611.5 -253t253.5 -611t-253.5 -611.5t-611.5 -253.5t-611.5 253.5t-253.5 611.5zM203 655q0 -313 219.5 -534t529.5 -221t529.5 221t219.5 534t-219.5 533.5t-529.5 220.5t-529.5 -220.5t-219.5 -533.5zM531 660q0 230 125 356.5 t326 126.5q83 0 159 -22t133 -51v-181h-16q-43 38 -119 72.5t-153 34.5q-123 0 -196.5 -82t-73.5 -254q0 -162 70 -247.5t200 -85.5q84 0 159 36.5t113 70.5h16v-179q-67 -30 -134 -52.5t-158 -22.5q-209 0 -330 123.5t-121 356.5z" />
<glyph unicode="&#xaa;" horiz-adv-x="1010" d="M114 839q0 104 43 169.5t123 103.5q75 36 189 51t239 21v19q0 52 -16.5 84t-48.5 50q-29 17 -72 22.5t-89 5.5q-78 0 -158.5 -23.5t-119.5 -37.5h-15v170q44 13 131.5 29t162.5 16q192 0 291.5 -76.5t99.5 -248.5v-628h-166v91q-19 -15 -51 -38.5t-63 -37.5 q-41 -19 -80.5 -29.5t-109.5 -10.5q-124 0 -207 83.5t-83 214.5zM286 849q0 -75 44 -114t131 -39q76 0 136.5 33t110.5 73v243q-65 -4 -151 -12t-137 -23q-60 -17 -97 -55.5t-37 -105.5z" />
<glyph unicode="&#xab;" horiz-adv-x="1174" d="M103 608v89l510 445v-196l-331 -294l331 -294v-196zM555 610v85l488 418v-188l-317 -273l317 -273v-188z" />
<glyph unicode="&#xac;" horiz-adv-x="1490" d="M157 602v160h1166v-705h-171v545h-995z" />
<glyph unicode="&#xad;" horiz-adv-x="744" d="M90 561v181h564v-181h-564z" />
<glyph unicode="&#xae;" horiz-adv-x="1902" d="M86 655q0 358 253.5 611t611.5 253t611.5 -253t253.5 -611t-253.5 -611.5t-611.5 -253.5t-611.5 253.5t-253.5 611.5zM203 655q0 -313 219.5 -534t529.5 -221t529.5 221t219.5 534t-219.5 533.5t-529.5 220.5t-529.5 -220.5t-219.5 -533.5zM650 215v915h279 q94 0 148.5 -7t110.5 -39q60 -34 87 -82t27 -123q0 -100 -55.5 -164t-144.5 -100l346 -400h-227l-283 355h-123v-355h-165zM815 696h98q48 0 90 9.5t68 32.5t37.5 53t11.5 77q0 37 -12 64t-42 46q-25 16 -56 21.5t-80 5.5h-115v-309z" />
<glyph unicode="&#xaf;" d="M-16 1659v130h1150v-130h-1150z" />
<glyph unicode="&#xb0;" horiz-adv-x="964" d="M101 1135q0 160 110 270t271 110t271 -110t110 -270t-110 -270t-271 -110q-159 0 -270 109t-111 271zM258 1135q0 -98 65.5 -163t158.5 -65q96 0 160 66.5t64 161.5q0 96 -64 162t-160 66t-160 -66t-64 -162z" />
<glyph unicode="&#xb1;" horiz-adv-x="1490" d="M162 159v158h500v422h-500v158h500v505h166v-505h500v-158h-500v-422h500v-158h-1166z" />
<glyph unicode="&#xb4;" d="M449 1302l179 374h243l-273 -374h-149z" />
<glyph unicode="&#xb5;" horiz-adv-x="1163" d="M136 -412v1529h188v-842q42 -50 105 -80.5t149 -30.5q90 0 151.5 29t109.5 82v842h188v-1117h-172v116h-6q-60 -63 -120.5 -98t-150.5 -35q-92 0 -145 35t-109 97v-527h-188z" />
<glyph unicode="&#xb6;" d="M57 1050q0 207 130 323t373 116h422v-1852h-140v1722h-187v-1722h-140v956q-206 5 -332 129t-126 328z" />
<glyph unicode="&#xb7;" horiz-adv-x="724" d="M243 832v285h239v-285h-239z" />
<glyph unicode="&#xb8;" d="M289 -239h9q24 -11 63 -22.5t79 -11.5q94 0 134 39.5t40 126.5q0 26 -1 57t-3 70h157q1 -18 3.5 -45.5t2.5 -63.5q0 -162 -87 -248t-220 -86q-37 0 -87 6t-90 18v160z" />
<glyph unicode="&#xba;" horiz-adv-x="1010" d="M85 1030q0 233 117 361.5t304 128.5t303.5 -127t116.5 -363q0 -234 -117 -362t-303 -128q-193 0 -307 131.5t-114 358.5zM265 1030q0 -169 64 -254.5t177 -85.5q111 0 175.5 85.5t64.5 254.5q0 173 -64.5 256.5t-175.5 83.5t-176 -82.5t-65 -257.5z" />
<glyph unicode="&#xbb;" horiz-adv-x="1174" d="M131 191v188l317 273l-317 273v188l488 -418v-85zM561 162v196l331 294l-331 294v196l510 -445v-89z" />
<glyph unicode="&#xbf;" horiz-adv-x="970" d="M58 350q0 94 30 168t89 141q53 59 122.5 106.5t144.5 95.5v228h179v-305q-71 -43 -131.5 -81t-115.5 -89q-51 -48 -82.5 -109t-31.5 -140q0 -113 71 -168.5t185 -55.5q99 0 191 34.5t141 68.5h11v-204q-79 -30 -167 -50t-195 -20q-205 0 -323 104.5t-118 275.5zM428 1278 v211h204v-211h-204z" />
<glyph unicode="&#xc0;" horiz-adv-x="1228" d="M-10 0l502 1489h244l502 -1489h-209l-135 416h-569l-135 -416h-200zM347 2049h243l179 -374h-149zM380 585h459l-230 702z" />
<glyph unicode="&#xc1;" horiz-adv-x="1228" d="M-10 0l502 1489h244l502 -1489h-209l-135 416h-569l-135 -416h-200zM380 585h459l-230 702zM440 1675l179 374h243l-273 -374h-149z" />
<glyph unicode="&#xc2;" horiz-adv-x="1228" d="M-10 0l502 1489h244l502 -1489h-209l-135 416h-569l-135 -416h-200zM257 1650l228 379h227l228 -379h-159l-185 256l-184 -256h-155zM380 585h459l-230 702z" />
<glyph unicode="&#xc3;" horiz-adv-x="1228" d="M-10 0l502 1489h244l502 -1489h-209l-135 416h-569l-135 -416h-200zM211 1649q7 154 76 232.5t169 78.5q51 0 94 -19.5t86 -57.5q43 -39 77.5 -59.5t63.5 -20.5q47 0 68.5 45t24.5 117h140q-10 -156 -74.5 -234t-171.5 -78q-52 0 -96 19t-86 59q-44 41 -76 62.5t-63 21.5 q-49 0 -68.5 -45t-23.5 -121h-140zM380 585h459l-230 702z" />
<glyph unicode="&#xc4;" horiz-adv-x="1228" d="M-10 0l502 1489h244l502 -1489h-209l-135 416h-569l-135 -416h-200zM299 1657v195h201v-195h-201zM380 585h459l-230 702zM712 1657v195h201v-195h-201z" />
<glyph unicode="&#xc5;" horiz-adv-x="1228" d="M-10 0l479 1422q-72 40 -116.5 108.5t-44.5 154.5q0 128 89 214.5t217 86.5q129 0 217.5 -86t88.5 -215q0 -84 -45.5 -153t-116.5 -107l480 -1425h-209l-135 416h-569l-135 -416h-200zM380 584h459l-230 705zM455 1683q0 -74 45 -122.5t114 -48.5t114 48.5t45 122.5 q0 73 -44 121.5t-115 48.5q-70 0 -114.5 -48.5t-44.5 -121.5z" />
<glyph unicode="&#xc6;" horiz-adv-x="1870" d="M-39 0l603 1489h1238v-176h-716v-408h666v-176h-666v-553h716v-176h-912v557h-505l-217 -557h-207zM451 723h439v601h-194z" />
<glyph unicode="&#xc7;" horiz-adv-x="1230" d="M66 743q0 187 47.5 326t138.5 242q89 100 211 152.5t273 52.5q75 0 140.5 -11t121.5 -28q48 -15 98.5 -37.5t99.5 -49.5v-239h-16q-26 24 -67 58t-100 67q-57 31 -124 51t-155 20q-95 0 -180 -39t-149 -115q-63 -76 -98 -191t-35 -259q0 -153 37 -263.5t101 -186.5 q62 -74 146 -111.5t178 -37.5q86 0 159 21t130 53q55 31 95 63.5t63 55.5h15v-236q-49 -23 -92.5 -44t-105.5 -41q-8 -3 -23 -7.5t-21 -5.5q1 -15 3 -39t2 -53q0 -149 -82 -241.5t-227 -92.5q-37 0 -87 6t-90 18v160h9q24 -11 63 -22.5t79 -11.5q94 0 138 39.5t44 126.5 q0 18 -0.5 38t-1.5 45q-18 -1 -33.5 -2t-37.5 -1q-146 0 -268.5 49t-211.5 146t-138 242t-49 333z" />
<glyph unicode="&#xc8;" horiz-adv-x="1149" d="M151 0v1489h931v-176h-733v-408h683v-176h-683v-553h733v-176h-931zM332 2049h243l179 -374h-149z" />
<glyph unicode="&#xc9;" horiz-adv-x="1149" d="M151 0v1489h931v-176h-733v-408h683v-176h-683v-553h733v-176h-931zM498 1675l179 374h243l-273 -374h-149z" />
<glyph unicode="&#xca;" horiz-adv-x="1149" d="M151 0v1489h931v-176h-733v-408h683v-176h-683v-553h733v-176h-931zM278 1670l228 379h227l228 -379h-159l-185 256l-184 -256h-155z" />
<glyph unicode="&#xcb;" horiz-adv-x="1149" d="M151 0v1489h931v-176h-733v-408h683v-176h-683v-553h733v-176h-931zM352 1677v195h201v-195h-201zM765 1677v195h201v-195h-201z" />
<glyph unicode="&#xcc;" horiz-adv-x="764" d="M93 0v152h190v1185h-190v152h578v-152h-190v-1185h190v-152h-578zM107 2049h243l179 -374h-149z" />
<glyph unicode="&#xcd;" horiz-adv-x="764" d="M93 0v152h190v1185h-190v152h578v-152h-190v-1185h190v-152h-578zM235 1675l179 374h243l-273 -374h-149z" />
<glyph unicode="&#xce;" horiz-adv-x="764" d="M42 1670l228 379h227l228 -379h-159l-185 256l-184 -256h-155zM93 0v152h190v1185h-190v152h578v-152h-190v-1185h190v-152h-578z" />
<glyph unicode="&#xcf;" horiz-adv-x="764" d="M76 1677v195h201v-195h-201zM93 0v152h190v1185h-190v152h578v-152h-190v-1185h190v-152h-578zM489 1677v195h201v-195h-201z" />
<glyph unicode="&#xd0;" horiz-adv-x="1430" d="M24 740v143h168v606h339q210 0 329.5 -31.5t203.5 -86.5q144 -95 223 -252.5t79 -375.5q0 -204 -82.5 -368t-221.5 -256q-111 -74 -228.5 -96.5t-298.5 -22.5h-343v740h-168zM390 170h151q132 0 231 21.5t181 77.5q103 70 155 186.5t52 290.5q0 172 -57 293.5t-169 189.5 q-79 48 -169 69t-224 21h-151v-436h327v-143h-327v-570z" />
<glyph unicode="&#xd1;" horiz-adv-x="1367" d="M151 0v1489h281l599 -1179v1179h185v-1489h-222l-658 1284v-1284h-185zM311 1669q7 154 76 232.5t169 78.5q51 0 94 -19.5t86 -57.5q43 -39 77.5 -59.5t63.5 -20.5q47 0 68.5 45t24.5 117h140q-10 -156 -74.5 -234t-171.5 -78q-52 0 -96 19t-86 59q-44 41 -76 62.5 t-63 21.5q-49 0 -68.5 -45t-23.5 -121h-140z" />
<glyph unicode="&#xd2;" horiz-adv-x="1449" d="M66 744q0 188 46.5 330t132.5 244q86 99 207.5 150.5t271.5 51.5q152 0 274 -53t206 -149q85 -98 132 -243t47 -331q0 -181 -46 -327t-133 -245q-91 -104 -212.5 -153.5t-267.5 -49.5q-151 0 -272 51t-208 152q-86 99 -132 244t-46 328zM272 744q0 -293 123 -448.5 t330 -155.5t329.5 155.5t122.5 448.5q0 148 -32 262t-90 189q-59 77 -142.5 115.5t-187.5 38.5q-108 0 -188.5 -37.5t-142.5 -116.5q-59 -76 -90.5 -191t-31.5 -260zM429 2049h243l179 -374h-149z" />
<glyph unicode="&#xd3;" horiz-adv-x="1449" d="M66 744q0 188 46.5 330t132.5 244q86 99 207.5 150.5t271.5 51.5q152 0 274 -53t206 -149q85 -98 132 -243t47 -331q0 -181 -46 -327t-133 -245q-91 -104 -212.5 -153.5t-267.5 -49.5q-151 0 -272 51t-208 152q-86 99 -132 244t-46 328zM272 744q0 -293 123 -448.5 t330 -155.5t329.5 155.5t122.5 448.5q0 148 -32 262t-90 189q-59 77 -142.5 115.5t-187.5 38.5q-108 0 -188.5 -37.5t-142.5 -116.5q-59 -76 -90.5 -191t-31.5 -260zM580 1675l179 374h243l-273 -374h-149z" />
<glyph unicode="&#xd4;" horiz-adv-x="1449" d="M66 744q0 188 46.5 330t132.5 244q86 99 207.5 150.5t271.5 51.5q152 0 274 -53t206 -149q85 -98 132 -243t47 -331q0 -181 -46 -327t-133 -245q-91 -104 -212.5 -153.5t-267.5 -49.5q-151 0 -272 51t-208 152q-86 99 -132 244t-46 328zM272 744q0 -293 123 -448.5 t330 -155.5t329.5 155.5t122.5 448.5q0 148 -32 262t-90 189q-59 77 -142.5 115.5t-187.5 38.5q-108 0 -188.5 -37.5t-142.5 -116.5q-59 -76 -90.5 -191t-31.5 -260zM372 1670l228 379h227l228 -379h-159l-185 256l-184 -256h-155z" />
<glyph unicode="&#xd5;" horiz-adv-x="1449" d="M66 744q0 188 46.5 330t132.5 244q86 99 207.5 150.5t271.5 51.5q152 0 274 -53t206 -149q85 -98 132 -243t47 -331q0 -181 -46 -327t-133 -245q-91 -104 -212.5 -153.5t-267.5 -49.5q-151 0 -272 51t-208 152q-86 99 -132 244t-46 328zM272 744q0 -293 123 -448.5 t330 -155.5t329.5 155.5t122.5 448.5q0 148 -32 262t-90 189q-59 77 -142.5 115.5t-187.5 38.5q-108 0 -188.5 -37.5t-142.5 -116.5q-59 -76 -90.5 -191t-31.5 -260zM311 1669q7 154 76 232.5t169 78.5q51 0 94 -19.5t86 -57.5q43 -39 77.5 -59.5t63.5 -20.5q47 0 68.5 45 t24.5 117h140q-10 -156 -74.5 -234t-171.5 -78q-52 0 -96 19t-86 59q-44 41 -76 62.5t-63 21.5q-49 0 -68.5 -45t-23.5 -121h-140z" />
<glyph unicode="&#xd6;" horiz-adv-x="1449" d="M66 744q0 188 46.5 330t132.5 244q86 99 207.5 150.5t271.5 51.5q152 0 274 -53t206 -149q85 -98 132 -243t47 -331q0 -181 -46 -327t-133 -245q-91 -104 -212.5 -153.5t-267.5 -49.5q-151 0 -272 51t-208 152q-86 99 -132 244t-46 328zM272 744q0 -293 123 -448.5 t330 -155.5t329.5 155.5t122.5 448.5q0 148 -32 262t-90 189q-59 77 -142.5 115.5t-187.5 38.5q-108 0 -188.5 -37.5t-142.5 -116.5q-59 -76 -90.5 -191t-31.5 -260zM413 1677v195h201v-195h-201zM826 1677v195h201v-195h-201z" />
<glyph unicode="&#xd8;" horiz-adv-x="1449" d="M66 744q0 368 180.5 572t477.5 204q114 0 203.5 -27.5t169.5 -82.5l115 171h148l-171 -251q91 -100 142.5 -243.5t51.5 -342.5q0 -368 -180 -571.5t-479 -203.5q-110 0 -204.5 29t-171.5 82l-132 -196h-148l189 278q-90 99 -140.5 245t-50.5 337zM270 744 q0 -135 26 -239.5t73 -180.5l626 936q-52 44 -120 66.5t-150 22.5q-208 0 -331.5 -154t-123.5 -451zM450 232q57 -46 120.5 -69t154.5 -23q206 0 330 155.5t124 448.5q0 138 -27.5 246t-73.5 179z" />
<glyph unicode="&#xd9;" horiz-adv-x="1343" d="M133 560v929h198v-929q0 -103 13 -173.5t51 -126.5q40 -60 108.5 -91t167.5 -31q93 0 165 31t112 91q37 57 50.5 126t13.5 169v934h198v-929q0 -155 -31.5 -266t-110.5 -188q-71 -69 -165.5 -103t-231.5 -34q-131 0 -229 34.5t-167 102.5q-78 78 -110 186.5t-32 267.5z M432 2049h243l179 -374h-149z" />
<glyph unicode="&#xda;" horiz-adv-x="1343" d="M133 560v929h198v-929q0 -103 13 -173.5t51 -126.5q40 -60 108.5 -91t167.5 -31q93 0 165 31t112 91q37 57 50.5 126t13.5 169v934h198v-929q0 -155 -31.5 -266t-110.5 -188q-71 -69 -165.5 -103t-231.5 -34q-131 0 -229 34.5t-167 102.5q-78 78 -110 186.5t-32 267.5z M573 1675l179 374h243l-273 -374h-149z" />
<glyph unicode="&#xdb;" horiz-adv-x="1343" d="M133 560v929h198v-929q0 -103 13 -173.5t51 -126.5q40 -60 108.5 -91t167.5 -31q93 0 165 31t112 91q37 57 50.5 126t13.5 169v934h198v-929q0 -155 -31.5 -266t-110.5 -188q-71 -69 -165.5 -103t-231.5 -34q-131 0 -229 34.5t-167 102.5q-78 78 -110 186.5t-32 267.5z M323 1670l228 379h227l228 -379h-159l-185 256l-184 -256h-155z" />
<glyph unicode="&#xdc;" horiz-adv-x="1343" d="M133 560v929h198v-929q0 -103 13 -173.5t51 -126.5q40 -60 108.5 -91t167.5 -31q93 0 165 31t112 91q37 57 50.5 126t13.5 169v934h198v-929q0 -155 -31.5 -266t-110.5 -188q-71 -69 -165.5 -103t-231.5 -34q-131 0 -229 34.5t-167 102.5q-78 78 -110 186.5t-32 267.5z M390 1677v195h201v-195h-201zM803 1677v195h201v-195h-201z" />
<glyph unicode="&#xdd;" horiz-adv-x="1180" d="M-11 1489h220l384 -657l390 657h210l-503 -830v-659h-198v638zM469 1675l179 374h243l-273 -374h-149z" />
<glyph unicode="&#xde;" horiz-adv-x="1158" d="M151 0v1489h198v-270h175q133 0 230 -22.5t164 -66.5q83 -53 130 -138t47 -205q0 -92 -35 -176.5t-95 -141.5q-78 -75 -187.5 -111t-260.5 -36h-168v-322h-198zM349 488h137q119 0 195 20.5t123 65.5q44 41 64.5 92t20.5 116q0 72 -26 125.5t-82 88.5q-48 30 -112 42.5 t-154 12.5h-166v-563z" />
<glyph unicode="&#xdf;" horiz-adv-x="1123" d="M136 0v1080q0 130 34 218t95 150q60 60 142.5 89t174.5 29q168 0 279.5 -85t111.5 -240q0 -112 -71 -201t-184 -121v-9q164 -37 257 -147t93 -282q0 -218 -135 -361.5t-351 -143.5q-25 0 -62.5 3t-59.5 7v166h10q28 -8 59 -12.5t61 -4.5q77 0 131.5 27.5t87.5 74.5 q35 51 49.5 111t14.5 141q0 169 -103 248.5t-304 79.5v157q152 0 233.5 57.5t81.5 190.5q0 33 -10 68.5t-34 63.5q-24 29 -62 46.5t-97 17.5q-53 0 -96 -14.5t-81 -54.5q-36 -37 -56.5 -103t-20.5 -160v-1086h-188z" />
<glyph unicode="&#xe0;" horiz-adv-x="1075" d="M58 324q0 116 49 197.5t155 129.5q94 43 222 59.5t276 24.5v36q0 66 -20 106.5t-56 62.5q-36 23 -88 30.5t-107 7.5q-65 0 -153 -19.5t-176 -56.5h-11v191q52 15 149 33t192 18q115 0 194 -18t142 -65q61 -46 91 -119t30 -178v-764h-187v119q-23 -17 -61.5 -47.5 t-74.5 -48.5q-50 -26 -96.5 -40t-130.5 -14q-69 0 -131 26t-109 73q-45 46 -72 113.5t-27 142.5zM246 1676h243l179 -374h-149zM252 336q0 -96 54 -145t158 -49q89 0 161 38.5t135 94.5v310q-67 -6 -169.5 -16.5t-165.5 -29.5q-75 -23 -124 -70.5t-49 -132.5z" />
<glyph unicode="&#xe1;" horiz-adv-x="1075" d="M58 324q0 116 49 197.5t155 129.5q94 43 222 59.5t276 24.5v36q0 66 -20 106.5t-56 62.5q-36 23 -88 30.5t-107 7.5q-65 0 -153 -19.5t-176 -56.5h-11v191q52 15 149 33t192 18q115 0 194 -18t142 -65q61 -46 91 -119t30 -178v-764h-187v119q-23 -17 -61.5 -47.5 t-74.5 -48.5q-50 -26 -96.5 -40t-130.5 -14q-69 0 -131 26t-109 73q-45 46 -72 113.5t-27 142.5zM252 336q0 -96 54 -145t158 -49q89 0 161 38.5t135 94.5v310q-67 -6 -169.5 -16.5t-165.5 -29.5q-75 -23 -124 -70.5t-49 -132.5zM415 1302l179 374h243l-273 -374h-149z" />
<glyph unicode="&#xe2;" horiz-adv-x="1075" d="M58 324q0 116 49 197.5t155 129.5q94 43 222 59.5t276 24.5v36q0 66 -20 106.5t-56 62.5q-36 23 -88 30.5t-107 7.5q-65 0 -153 -19.5t-176 -56.5h-11v191q52 15 149 33t192 18q115 0 194 -18t142 -65q61 -46 91 -119t30 -178v-764h-187v119q-23 -17 -61.5 -47.5 t-74.5 -48.5q-50 -26 -96.5 -40t-130.5 -14q-69 0 -131 26t-109 73q-45 46 -72 113.5t-27 142.5zM193 1297l228 379h227l228 -379h-159l-185 256l-184 -256h-155zM252 336q0 -96 54 -145t158 -49q89 0 161 38.5t135 94.5v310q-67 -6 -169.5 -16.5t-165.5 -29.5 q-75 -23 -124 -70.5t-49 -132.5z" />
<glyph unicode="&#xe3;" horiz-adv-x="1075" d="M58 324q0 116 49 197.5t155 129.5q94 43 222 59.5t276 24.5v36q0 66 -20 106.5t-56 62.5q-36 23 -88 30.5t-107 7.5q-65 0 -153 -19.5t-176 -56.5h-11v191q52 15 149 33t192 18q115 0 194 -18t142 -65q61 -46 91 -119t30 -178v-764h-187v119q-23 -17 -61.5 -47.5 t-74.5 -48.5q-50 -26 -96.5 -40t-130.5 -14q-69 0 -131 26t-109 73q-45 46 -72 113.5t-27 142.5zM134 1316q7 154 76 232.5t169 78.5q51 0 94 -19.5t86 -57.5q43 -39 77.5 -59.5t63.5 -20.5q47 0 68.5 45t24.5 117h140q-10 -156 -74.5 -234t-171.5 -78q-52 0 -96 19t-86 59 q-44 41 -76 62.5t-63 21.5q-49 0 -68.5 -45t-23.5 -121h-140zM252 336q0 -96 54 -145t158 -49q89 0 161 38.5t135 94.5v310q-67 -6 -169.5 -16.5t-165.5 -29.5q-75 -23 -124 -70.5t-49 -132.5z" />
<glyph unicode="&#xe4;" horiz-adv-x="1075" d="M58 324q0 116 49 197.5t155 129.5q94 43 222 59.5t276 24.5v36q0 66 -20 106.5t-56 62.5q-36 23 -88 30.5t-107 7.5q-65 0 -153 -19.5t-176 -56.5h-11v191q52 15 149 33t192 18q115 0 194 -18t142 -65q61 -46 91 -119t30 -178v-764h-187v119q-23 -17 -61.5 -47.5 t-74.5 -48.5q-50 -26 -96.5 -40t-130.5 -14q-69 0 -131 26t-109 73q-45 46 -72 113.5t-27 142.5zM221 1304v195h201v-195h-201zM252 336q0 -96 54 -145t158 -49q89 0 161 38.5t135 94.5v310q-67 -6 -169.5 -16.5t-165.5 -29.5q-75 -23 -124 -70.5t-49 -132.5zM634 1304v195 h201v-195h-201z" />
<glyph unicode="&#xe5;" horiz-adv-x="1075" d="M58 324q0 116 49 197.5t155 129.5q94 43 222 59.5t276 24.5v36q0 66 -20 106.5t-56 62.5q-36 23 -88 30.5t-107 7.5q-52 0 -104.5 -10t-86.5 -19q-46 -12 -82 -25.5t-56 -21.5h-11v191q47 14 117.5 27t159.5 19q-90 36 -148 110t-58 172q0 128 89 214.5t217 86.5 q129 0 217.5 -86t88.5 -215q0 -99 -60.5 -176t-157.5 -111q86 -12 146.5 -39t99.5 -68q43 -46 65 -109.5t22 -153.5v-764h-187v119q-23 -17 -61.5 -47t-74.5 -49q-50 -26 -96.5 -40t-130.5 -14q-69 0 -131 26t-109 73q-46 46 -72.5 113.5t-26.5 142.5zM252 336 q0 -96 54 -145t158 -49q89 0 161 38.5t135 94.5v310q-67 -6 -169.5 -16.5t-165.5 -29.5q-75 -23 -124 -70.5t-49 -132.5zM367 1420q0 -74 45 -123t114 -49t114 49t45 123q0 73 -44 121.5t-115 48.5q-70 0 -114.5 -48.5t-44.5 -121.5z" />
<glyph unicode="&#xe6;" horiz-adv-x="1802" d="M58 317q0 129 53 204t150 117q92 39 231.5 52t293.5 16v58q0 65 -21.5 108t-60.5 67q-36 22 -87.5 31.5t-116.5 9.5q-81 0 -176.5 -26.5t-152.5 -51.5h-15v191q49 14 151.5 33.5t193.5 19.5q160 0 260 -48t153 -136q66 81 165 133.5t217 52.5q224 0 338.5 -134.5 t114.5 -372.5v-82h-788q0 -114 30 -195.5t83 -132.5q53 -50 120 -71.5t146 -21.5q65 0 125.5 14.5t106.5 35.5q51 23 86 44.5t58 40.5h11v-205l-83 -32l-88 -31q-55 -15 -99.5 -23t-114.5 -8q-161 0 -276 52t-189 155q-21 -19 -64.5 -59.5t-91.5 -68.5q-65 -38 -134.5 -60 t-179.5 -22q-146 0 -247.5 97t-101.5 249zM251 330q0 -95 56 -141.5t167 -46.5q91 0 184 44t159 112q-19 54 -29 119.5t-10 140.5q-95 -3 -189.5 -8.5t-169.5 -26.5q-74 -20 -121 -66t-47 -127zM964 703h603q-5 59 -20.5 112.5t-47.5 92.5q-31 38 -85 61.5t-127 23.5 q-78 0 -129.5 -21.5t-94.5 -62.5q-40 -38 -64.5 -92.5t-34.5 -113.5z" />
<glyph unicode="&#xe7;" horiz-adv-x="945" d="M59 557q0 147 39.5 254t105.5 180t164.5 112.5t211.5 39.5q92 0 177.5 -26t152.5 -60v-211h-11q-20 17 -51.5 39t-76.5 45q-39 20 -92 35t-102 15q-146 0 -234.5 -110.5t-88.5 -312.5q0 -198 85.5 -308.5t237.5 -110.5q92 0 175 38t147 98h11v-211q-28 -13 -65 -29 t-68 -26q1 -16 3 -42t2 -55q0 -149 -82 -241.5t-227 -92.5q-37 0 -87 6t-90 18v160h9q24 -11 63 -22.5t79 -11.5q94 0 138 39.5t44 126.5q0 18 -0.5 38.5t-1.5 45.5q-13 0 -22.5 -1t-24.5 -1q-115 0 -211 35.5t-165 107.5t-107 181.5t-38 257.5z" />
<glyph unicode="&#xe8;" horiz-adv-x="1078" d="M59 552q0 273 143 434.5t374 161.5q104 0 184 -30t140 -94t92 -156.5t32 -226.5v-102h-774q0 -195 98 -298t271 -103q62 0 121.5 14t107.5 36q51 23 86 44.5t58 40.5h11v-205q-33 -13 -82 -32.5t-88 -30.5q-55 -15 -99.5 -23t-112.5 -8q-267 0 -414.5 150.5t-147.5 427.5 zM250 683h591q-2 76 -18 131t-46 93q-33 42 -84.5 64t-127.5 22q-75 0 -127.5 -22.5t-95.5 -65.5q-42 -44 -64 -97.5t-28 -124.5zM263 1676h243l179 -374h-149z" />
<glyph unicode="&#xe9;" horiz-adv-x="1078" d="M59 552q0 273 143 434.5t374 161.5q104 0 184 -30t140 -94t92 -156.5t32 -226.5v-102h-774q0 -195 98 -298t271 -103q62 0 121.5 14t107.5 36q51 23 86 44.5t58 40.5h11v-205q-33 -13 -82 -32.5t-88 -30.5q-55 -15 -99.5 -23t-112.5 -8q-267 0 -414.5 150.5t-147.5 427.5 zM250 683h591q-2 76 -18 131t-46 93q-33 42 -84.5 64t-127.5 22q-75 0 -127.5 -22.5t-95.5 -65.5q-42 -44 -64 -97.5t-28 -124.5zM467 1302l179 374h243l-273 -374h-149z" />
<glyph unicode="&#xea;" horiz-adv-x="1078" d="M59 552q0 273 143 434.5t374 161.5q104 0 184 -30t140 -94t92 -156.5t32 -226.5v-102h-774q0 -195 98 -298t271 -103q62 0 121.5 14t107.5 36q51 23 86 44.5t58 40.5h11v-205q-33 -13 -82 -32.5t-88 -30.5q-55 -15 -99.5 -23t-112.5 -8q-267 0 -414.5 150.5t-147.5 427.5 zM232 1297l228 379h227l228 -379h-159l-185 256l-184 -256h-155zM250 683h591q-2 76 -18 131t-46 93q-33 42 -84.5 64t-127.5 22q-75 0 -127.5 -22.5t-95.5 -65.5q-42 -44 -64 -97.5t-28 -124.5z" />
<glyph unicode="&#xeb;" horiz-adv-x="1078" d="M59 552q0 273 143 434.5t374 161.5q104 0 184 -30t140 -94t92 -156.5t32 -226.5v-102h-774q0 -195 98 -298t271 -103q62 0 121.5 14t107.5 36q51 23 86 44.5t58 40.5h11v-205q-33 -13 -82 -32.5t-88 -30.5q-55 -15 -99.5 -23t-112.5 -8q-267 0 -414.5 150.5t-147.5 427.5 zM250 683h591q-2 76 -18 131t-46 93q-33 42 -84.5 64t-127.5 22q-75 0 -127.5 -22.5t-95.5 -65.5q-42 -44 -64 -97.5t-28 -124.5zM266 1304v195h201v-195h-201zM679 1304v195h201v-195h-201z" />
<glyph unicode="&#xec;" horiz-adv-x="468" d="M-1 1676h243l179 -374h-149zM140 0v1117h188v-1117h-188z" />
<glyph unicode="&#xed;" horiz-adv-x="468" d="M120 1302l179 374h243l-273 -374h-149zM140 0v1117h188v-1117h-188z" />
<glyph unicode="&#xee;" horiz-adv-x="468" d="M-54 1297l174 379h227l174 -379h-151l-139 263l-138 -263h-147zM140 0v1117h188v-1117h-188z" />
<glyph unicode="&#xef;" horiz-adv-x="468" d="M-38 1304v195h189v-195h-189zM140 0v1117h188v-1117h-188zM317 1304v195h189v-195h-189z" />
<glyph unicode="&#xf0;" d="M57 484q0 231 137 360.5t324 129.5q100 0 174 -26.5t157 -79.5q-31 112 -97.5 220.5t-145.5 178.5l-262 -161l-66 97l238 143q-82 68 -156 106.5t-161 82.5v21h296q38 -28 79.5 -59t82.5 -60l212 129l66 -97l-190 -111q130 -130 219 -305.5t89 -415.5q0 -323 -136 -495.5 t-370 -172.5q-214 0 -352 131t-138 384zM252 482q0 -180 80 -267t216 -87q64 0 121.5 22t99.5 76q46 59 70.5 143.5t24.5 234.5q0 32 -1.5 59.5t-3.5 57.5q-73 46 -150 67t-157 21q-127 0 -213.5 -80t-86.5 -247z" />
<glyph unicode="&#xf1;" horiz-adv-x="1142" d="M136 0v1117h188v-124q84 75 166 115t173 40q165 0 258 -108.5t93 -314.5v-725h-188v636q0 77 -7.5 143.5t-28.5 106.5q-23 42 -64 62.5t-112 20.5q-70 0 -144.5 -37.5t-145.5 -97.5v-834h-188zM179 1316q7 154 76 232.5t169 78.5q51 0 94 -19.5t86 -57.5 q43 -39 77.5 -59.5t63.5 -20.5q47 0 68.5 45t24.5 117h140q-10 -156 -74.5 -234t-171.5 -78q-52 0 -96 19t-86 59q-44 41 -76 62.5t-63 21.5q-49 0 -68.5 -45t-23.5 -121h-140z" />
<glyph unicode="&#xf2;" horiz-adv-x="1112" d="M57 558q0 280 137.5 435t362.5 155q226 0 362 -154.5t136 -435.5q0 -282 -136 -435.5t-362 -153.5q-233 0 -366.5 158.5t-133.5 430.5zM245 1676h243l179 -374h-149zM251 558q0 -210 79.5 -318.5t226.5 -108.5q145 0 224.5 106.5t79.5 320.5q0 217 -79 322.5t-225 105.5 q-147 0 -226.5 -105.5t-79.5 -322.5z" />
<glyph unicode="&#xf3;" horiz-adv-x="1112" d="M57 558q0 280 137.5 435t362.5 155q226 0 362 -154.5t136 -435.5q0 -282 -136 -435.5t-362 -153.5q-233 0 -366.5 158.5t-133.5 430.5zM251 558q0 -210 79.5 -318.5t226.5 -108.5q145 0 224.5 106.5t79.5 320.5q0 217 -79 322.5t-225 105.5q-147 0 -226.5 -105.5 t-79.5 -322.5zM446 1302l179 374h243l-273 -374h-149z" />
<glyph unicode="&#xf4;" horiz-adv-x="1112" d="M57 558q0 280 137.5 435t362.5 155q226 0 362 -154.5t136 -435.5q0 -282 -136 -435.5t-362 -153.5q-233 0 -366.5 158.5t-133.5 430.5zM217 1297l228 379h227l228 -379h-159l-185 256l-184 -256h-155zM251 558q0 -210 79.5 -318.5t226.5 -108.5q145 0 224.5 106.5 t79.5 320.5q0 217 -79 322.5t-225 105.5q-147 0 -226.5 -105.5t-79.5 -322.5z" />
<glyph unicode="&#xf5;" horiz-adv-x="1112" d="M57 558q0 280 137.5 435t362.5 155q226 0 362 -154.5t136 -435.5q0 -282 -136 -435.5t-362 -153.5q-233 0 -366.5 158.5t-133.5 430.5zM158 1316q7 154 76 232.5t169 78.5q51 0 94 -19.5t86 -57.5q43 -39 77.5 -59.5t63.5 -20.5q47 0 68.5 45t24.5 117h140 q-10 -156 -74.5 -234t-171.5 -78q-52 0 -96 19t-86 59q-44 41 -76 62.5t-63 21.5q-49 0 -68.5 -45t-23.5 -121h-140zM251 558q0 -210 79.5 -318.5t226.5 -108.5q145 0 224.5 106.5t79.5 320.5q0 217 -79 322.5t-225 105.5q-147 0 -226.5 -105.5t-79.5 -322.5z" />
<glyph unicode="&#xf6;" horiz-adv-x="1112" d="M57 558q0 280 137.5 435t362.5 155q226 0 362 -154.5t136 -435.5q0 -282 -136 -435.5t-362 -153.5q-233 0 -366.5 158.5t-133.5 430.5zM250 1304v195h201v-195h-201zM251 558q0 -210 79.5 -318.5t226.5 -108.5q145 0 224.5 106.5t79.5 320.5q0 217 -79 322.5t-225 105.5 q-147 0 -226.5 -105.5t-79.5 -322.5zM663 1304v195h201v-195h-201z" />
<glyph unicode="&#xf7;" horiz-adv-x="1490" d="M157 572v160h1176v-160h-1176zM626 17v275h238v-275h-238zM626 1012v275h238v-275h-238z" />
<glyph unicode="&#xf8;" horiz-adv-x="1112" d="M41 -147l168 261q-72 76 -112 187t-40 257q0 280 137.5 434.5t362.5 154.5q75 0 142 -20t124 -57l108 170h125l-152 -236q71 -77 111 -186t40 -260q0 -282 -136 -435t-362 -153q-79 0 -145 20.5t-124 56.5l-123 -194h-124zM248 558q0 -97 14.5 -169.5t43.5 -126.5 l429 670q-34 26 -78 40t-100 14q-147 0 -228 -107.5t-81 -320.5zM378 187q38 -29 79.5 -42.5t99.5 -13.5q145 0 226 106.5t81 320.5q0 99 -14.5 173t-42.5 125z" />
<glyph unicode="&#xf9;" horiz-adv-x="1142" d="M128 392v725h188v-636q0 -89 6.5 -147.5t29.5 -102.5q23 -43 62.5 -63t113.5 -20q69 0 147 39t143 96v834h188v-1117h-188v124q-87 -76 -165 -115.5t-174 -39.5q-73 0 -137.5 24t-112.5 76t-74.5 131t-26.5 192zM265 1676h243l179 -374h-149z" />
<glyph unicode="&#xfa;" horiz-adv-x="1142" d="M128 392v725h188v-636q0 -89 6.5 -147.5t29.5 -102.5q23 -43 62.5 -63t113.5 -20q69 0 147 39t143 96v834h188v-1117h-188v124q-87 -76 -165 -115.5t-174 -39.5q-73 0 -137.5 24t-112.5 76t-74.5 131t-26.5 192zM446 1302l179 374h243l-273 -374h-149z" />
<glyph unicode="&#xfb;" horiz-adv-x="1142" d="M128 392v725h188v-636q0 -89 6.5 -147.5t29.5 -102.5q23 -43 62.5 -63t113.5 -20q69 0 147 39t143 96v834h188v-1117h-188v124q-87 -76 -165 -115.5t-174 -39.5q-73 0 -137.5 24t-112.5 76t-74.5 131t-26.5 192zM225 1297l228 379h227l228 -379h-159l-185 256l-184 -256 h-155z" />
<glyph unicode="&#xfc;" horiz-adv-x="1142" d="M128 392v725h188v-636q0 -89 6.5 -147.5t29.5 -102.5q23 -43 62.5 -63t113.5 -20q69 0 147 39t143 96v834h188v-1117h-188v124q-87 -76 -165 -115.5t-174 -39.5q-73 0 -137.5 24t-112.5 76t-74.5 131t-26.5 192zM265 1304v195h201v-195h-201zM678 1304v195h201v-195h-201 z" />
<glyph unicode="&#xfd;" horiz-adv-x="1020" d="M6 1117h203l305 -827l304 827h196l-601 -1529h-201l200 466zM389 1302l179 374h243l-273 -374h-149z" />
<glyph unicode="&#xfe;" horiz-adv-x="1132" d="M136 -412v1968h188v-556q70 63 155.5 105.5t186.5 42.5q192 0 299.5 -152t107.5 -408q0 -279 -133.5 -444.5t-337.5 -165.5q-83 0 -147 19t-131 59v-468h-188zM324 209q74 -36 126.5 -49t120.5 -13q146 0 227 107t81 313q0 191 -61 296.5t-198 105.5q-80 0 -154.5 -35.5 t-141.5 -91.5v-633z" />
<glyph unicode="&#xff;" horiz-adv-x="1020" d="M6 1117h203l305 -827l304 827h196l-601 -1529h-201l200 466zM215 1304v195h201v-195h-201zM628 1304v195h201v-195h-201z" />
<glyph unicode="&#x131;" horiz-adv-x="468" d="M140 0v1117h188v-1117h-188z" />
<glyph unicode="&#x152;" horiz-adv-x="2000" d="M66 746q0 209 84.5 370.5t220.5 252.5q89 60 209.5 90t318.5 30h1033v-176h-723v-408h673v-176h-673v-553h723v-176h-1031q-184 0 -308 26t-225 92q-144 95 -223 253.5t-79 374.5zM272 743q0 -172 57 -293.5t169 -189.5q83 -50 173.5 -69.5t219.5 -19.5h121v1147h-119 q-148 0 -241.5 -22.5t-172.5 -75.5q-103 -68 -155 -188t-52 -289z" />
<glyph unicode="&#x153;" horiz-adv-x="1861" d="M57 558q0 278 135 434t362 156q131 0 234.5 -55t167.5 -156q67 101 172.5 156t234.5 55q215 0 330 -133t115 -374v-102h-769q0 -193 97 -297t267 -104q62 0 121.5 14t107.5 36q51 23 86 44.5t58 40.5h11v-205q-33 -13 -82 -32.5t-88 -30.5q-55 -15 -99.5 -23t-112.5 -8 q-147 0 -264.5 52.5t-188.5 152.5q-67 -103 -164.5 -156.5t-233.5 -53.5q-231 0 -364 158t-133 431zM251 558q0 -210 78.5 -318.5t224.5 -108.5q144 0 223 107.5t79 319.5q0 217 -78.5 322.5t-223.5 105.5q-148 0 -225.5 -110.5t-77.5 -317.5zM1039 683h586 q-4 157 -71 233.5t-202 76.5q-128 0 -214.5 -82t-98.5 -228z" />
<glyph unicode="&#x178;" horiz-adv-x="1180" d="M-11 1489h220l384 -657l390 657h210l-503 -830v-659h-198v638zM286 1677v195h201v-195h-201zM699 1677v195h201v-195h-201z" />
<glyph unicode="&#x192;" d="M-49 -3h10q28 -10 77.5 -23.5t90.5 -13.5q112 0 163 61t71 213l72 512h-178v138h196l27 198q17 123 54 206.5t92 136.5q52 49 125.5 71.5t151.5 22.5q50 0 91 -4.5t93 -13.5v-181h-10q-27 10 -78.5 23.5t-89.5 13.5q-112 0 -162 -60.5t-72 -213.5l-29 -199h292v-138h-310 l-70 -511q-32 -231 -137 -334t-286 -103q-39 0 -86.5 4.5t-97.5 13.5v181z" />
<glyph unicode="&#x2c6;" d="M218 1297l228 379h227l228 -379h-159l-185 256l-184 -256h-155z" />
<glyph unicode="&#x2c7;" d="M214 1676h159l185 -256l184 256h155l-228 -379h-227z" />
<glyph unicode="&#x2d8;" d="M230 1636h162q0 -135 42 -194.5t126 -59.5q79 0 123 58.5t44 195.5h162q0 -86 -21 -156.5t-60 -118.5q-45 -53 -102 -79.5t-146 -26.5q-82 0 -143.5 27.5t-103.5 78.5q-41 50 -62 120t-21 155z" />
<glyph unicode="&#x2d9;" d="M452 1304v195h214v-195h-214z" />
<glyph unicode="&#x2da;" d="M253 1421q0 128 89 214.5t217 86.5q129 0 217.5 -86t88.5 -215t-88.5 -215t-217.5 -86q-128 0 -217 86.5t-89 214.5zM400 1420q0 -73 44.5 -122t114.5 -49t114.5 49.5t44.5 121.5q0 74 -44.5 123.5t-114.5 49.5q-69 0 -114 -50t-45 -123z" />
<glyph unicode="&#x2db;" d="M330 -237q0 65 35 130t79 107h149q-44 -36 -76.5 -89.5t-32.5 -100.5q0 -33 18.5 -53.5t56.5 -20.5q21 0 39.5 4.5t30.5 9.5h11v-140q-29 -12 -61 -17.5t-59 -5.5q-89 0 -139.5 46.5t-50.5 129.5z" />
<glyph unicode="&#x2dc;" d="M161 1316q7 154 76 232.5t169 78.5q51 0 94 -19.5t86 -57.5q43 -39 77.5 -59.5t63.5 -20.5q47 0 68.5 45t24.5 117h140q-10 -156 -74.5 -234t-171.5 -78q-52 0 -96 19t-86 59q-44 41 -76 62.5t-63 21.5q-49 0 -68.5 -45t-23.5 -121h-140z" />
<glyph unicode="&#x2dd;" d="M250 1302l169 374h228l-258 -374h-139zM654 1302l169 374h228l-258 -374h-139z" />
<glyph unicode="&#x3a9;" horiz-adv-x="1438" d="M43 0v174h393v124q-73 42 -138 101.5t-115 134.5q-50 76 -78.5 166.5t-28.5 192.5q0 139 43.5 250t128.5 198q81 83 204 131t271 48t268 -46.5t203 -131.5q82 -84 125 -198.5t43 -250.5q0 -103 -27.5 -193.5t-74.5 -164.5t-111 -134t-139 -103v-124h393v-174h-559v387 q61 38 120.5 83.5t99.5 101.5q45 62 68.5 133t23.5 188q0 95 -26.5 179t-80.5 145q-53 61 -136 96.5t-190 35.5q-109 0 -191 -35t-140 -98q-53 -58 -81.5 -144.5t-28.5 -178.5q0 -109 26.5 -187.5t70.5 -134.5q45 -57 104 -101.5t119 -82.5v-387h-559z" />
<glyph unicode="&#x3c0;" horiz-adv-x="1154" d="M136 0v1117h882v-1117h-188v955h-506v-955h-188z" />
<glyph unicode="&#x400;" horiz-adv-x="1149" d="M151 0v1489h931v-176h-733v-408h683v-176h-683v-553h733v-176h-931zM332 2049h243l179 -374h-149z" />
<glyph unicode="&#x401;" horiz-adv-x="1149" d="M151 0v1489h931v-176h-733v-408h683v-176h-683v-553h733v-176h-931zM352 1677v195h201v-195h-201zM765 1677v195h201v-195h-201z" />
<glyph unicode="&#x402;" horiz-adv-x="1471" d="M-1 1313v176h1118v-176h-500v-408h239q152 0 247.5 -18t180.5 -84q76 -59 112.5 -146t36.5 -197q0 -108 -41.5 -196.5t-114.5 -146.5q-87 -69 -174.5 -93t-225.5 -24h-60v177h43q91 0 151 8t107 42q56 40 82 95.5t26 133.5q0 75 -24.5 132.5t-77.5 92.5 q-50 34 -124.5 43.5t-205.5 9.5h-177v-734h-198v1313h-420z" />
<glyph unicode="&#x403;" horiz-adv-x="1039" d="M151 0v1489h883v-176h-685v-1313h-198zM508 1675l179 374h243l-273 -374h-149z" />
<glyph unicode="&#x404;" horiz-adv-x="1228" d="M66 746q0 356 186.5 563t490.5 207q134 0 245.5 -26.5t194.5 -64.5v-223h-15q-70 64 -180.5 105t-238.5 41q-186 0 -316.5 -115.5t-156.5 -347.5h715v-173h-725q1 -141 39.5 -247.5t103.5 -178.5q67 -73 155.5 -109t187.5 -36q124 0 235 38t181 103h15v-217 q-90 -39 -198 -65.5t-241 -26.5q-309 0 -493.5 203t-184.5 570z" />
<glyph unicode="&#x405;" horiz-adv-x="1141" d="M77 89v248h14q98 -92 222 -142.5t239 -50.5q164 0 248 68.5t84 180.5q0 89 -44 145t-140 83q-69 20 -126 33t-143 35q-77 20 -138 51t-108 81q-46 49 -71.5 115.5t-25.5 153.5q0 181 141 303.5t360 122.5q125 0 236.5 -25t206.5 -71v-237h-15q-71 65 -182 113.5 t-233 48.5q-138 0 -223 -64.5t-85 -169.5q0 -95 50 -151t145 -82q63 -17 154 -38.5t151 -39.5q154 -47 225 -142t71 -234q0 -87 -35.5 -172t-99.5 -144q-72 -65 -162.5 -100t-226.5 -35q-162 0 -275.5 33.5t-213.5 82.5z" />
<glyph unicode="&#x406;" horiz-adv-x="764" d="M93 0v152h190v1185h-190v152h578v-152h-190v-1185h190v-152h-578z" />
<glyph unicode="&#x407;" horiz-adv-x="764" d="M76 1677v195h201v-195h-201zM93 0v152h190v1185h-190v152h578v-152h-190v-1185h190v-152h-578zM489 1677v195h201v-195h-201z" />
<glyph unicode="&#x408;" horiz-adv-x="853" d="M9 8v189h11q41 -14 101.5 -31t123.5 -17q92 0 146.5 21t80.5 60q27 40 34.5 98t7.5 134v869h-315v158h513v-1102q0 -196 -119.5 -302t-320.5 -106q-48 0 -128.5 8.5t-134.5 20.5z" />
<glyph unicode="&#x409;" horiz-adv-x="2051" d="M15 0v192h14q10 -1 17 -2t21 -1q36 0 67 11t53 34q68 67 99.5 238.5t44.5 461.5q5 98 10 259t9 296h857v-584h229q152 0 248 -17.5t181 -83.5q76 -59 112 -146t36 -197q0 -108 -42 -196t-113 -143q-84 -66 -180 -94t-248 -28h-421v1313h-472q-3 -113 -8 -220.5t-8 -192.5 q-8 -211 -25.5 -349t-45.5 -231q-27 -91 -63.5 -147t-79.5 -94q-45 -41 -96.5 -61.5t-119.5 -20.5q-21 0 -42.5 1.5t-33.5 1.5zM1207 169h162q133 0 204.5 13t125.5 50q56 39 81.5 91.5t25.5 133.5q0 75 -24.5 132t-77.5 92q-55 37 -127 45t-203 8h-167v-565z" />
<glyph unicode="&#x40a;" horiz-adv-x="2015" d="M151 0v1489h198v-584h634v584h198v-584h219q152 0 248 -17.5t181 -83.5q76 -59 112 -146t36 -197q0 -108 -42 -196t-113 -143q-84 -66 -180 -94t-248 -28h-411v734h-634v-734h-198zM1181 169h152q133 0 204.5 13t125.5 50q56 39 81.5 91.5t25.5 133.5q0 75 -24.5 132 t-77.5 92q-55 37 -127 45t-203 8h-157v-565z" />
<glyph unicode="&#x40b;" horiz-adv-x="1470" d="M-1 1313v176h1118v-176h-500v-438q75 22 167.5 37.5t168.5 15.5q95 0 173.5 -22.5t133.5 -72.5q56 -49 86.5 -128.5t30.5 -193.5v-511h-198v412q0 74 -6.5 141.5t-30.5 107.5q-26 43 -79.5 65t-148.5 22q-63 0 -143.5 -10t-153.5 -28v-710h-198v1313h-420z" />
<glyph unicode="&#x40c;" horiz-adv-x="1234" d="M151 0v1489h198v-671q117 4 185.5 59t111.5 158q18 45 32.5 85.5t23.5 68.5q60 171 153 235.5t258 64.5h61v-177h-50q-122 0 -171 -47.5t-90 -179.5t-92 -193.5t-123 -108.5l604 -783h-252l-526 682h-125v-682h-198zM511 1655l179 374h243l-273 -374h-149z" />
<glyph unicode="&#x40d;" horiz-adv-x="1372" d="M151 0v1489h197v-1163l664 1163h209v-1489h-197v1182l-673 -1182h-200zM376 2049h243l179 -374h-149z" />
<glyph unicode="&#x40e;" horiz-adv-x="1178" d="M-1 1489h219l404 -876l365 876h204l-540 -1254q-34 -79 -76.5 -127t-88.5 -72q-46 -25 -90.5 -33t-89.5 -8q-40 0 -94 2t-69 3v185h14q15 -2 45.5 -4.5t77.5 -2.5q22 0 52 2.5t55 14.5q29 14 54.5 37.5t46.5 74.5l34 79zM237 1935h178q2 -112 50 -161.5t142 -49.5 q95 0 142.5 49t49.5 162h178q-4 -150 -95 -242t-275 -92t-275 92t-95 242z" />
<glyph unicode="&#x40f;" horiz-adv-x="1383" d="M151 0v1489h198v-1317h685v1317h198v-1489h-447v-337h-187v337h-447z" />
<glyph unicode="&#x410;" horiz-adv-x="1228" d="M-10 0l502 1489h244l502 -1489h-209l-135 416h-569l-135 -416h-200zM380 585h459l-230 702z" />
<glyph unicode="&#x411;" horiz-adv-x="1207" d="M151 0v1489h907v-176h-709v-408h239q152 0 248 -17.5t181 -83.5q76 -59 112 -146t36 -197q0 -108 -42 -196t-113 -143q-84 -66 -180 -94t-248 -28h-431zM349 169h172q133 0 204.5 13t125.5 50q56 39 81.5 91.5t25.5 133.5q0 75 -24.5 132t-77.5 92q-55 37 -127 45t-203 8 h-177v-565z" />
<glyph unicode="&#x412;" horiz-adv-x="1207" d="M151 0v1489h395q159 0 238.5 -10.5t152.5 -49.5q80 -43 117 -112.5t37 -163.5q0 -105 -55.5 -188t-153.5 -130v-8q133 -36 206 -131.5t73 -238.5q0 -111 -42 -196t-113 -140q-84 -66 -180 -93.5t-248 -27.5h-427zM349 169h161q130 0 205 12t132 51q56 39 82 88.5 t26 128.5q0 84 -24 138.5t-97 92.5q-47 25 -102.5 32t-157.5 7h-225v-550zM349 884h225q93 0 137 9.5t91 39.5q45 29 64 76t19 116q0 54 -18 93.5t-58 62.5q-48 27 -107 33t-163 6h-190v-436z" />
<glyph unicode="&#x413;" horiz-adv-x="1039" d="M151 0v1489h883v-176h-685v-1313h-198z" />
<glyph unicode="&#x414;" horiz-adv-x="1400" d="M18 176h81q130 213 209.5 558.5t79.5 754.5h831v-1313h141v-513h-188v341h-966v-341h-188v513zM290 176h731v1141h-447q-14 -361 -90 -655t-194 -486z" />
<glyph unicode="&#x415;" horiz-adv-x="1149" d="M151 0v1489h931v-176h-733v-408h683v-176h-683v-553h733v-176h-931z" />
<glyph unicode="&#x416;" horiz-adv-x="1831" d="M-14 0l562 768q-65 42 -113.5 106t-94.5 211q-40 129 -85.5 178t-173.5 49h-40v177h51q167 0 258.5 -64t152.5 -236q15 -44 30 -86t26 -68q44 -107 105.5 -158.5t147.5 -59.5v672h196v-674q92 9 154.5 58.5t108.5 161.5q18 45 32.5 85.5t23.5 68.5q60 171 153 235.5 t258 64.5h51v-177h-40q-128 0 -174.5 -49.5t-86.5 -177.5q-42 -133 -96 -199t-117 -106l569 -780h-244l-496 685h-96v-685h-196v685h-98l-496 -685h-232z" />
<glyph unicode="&#x417;" horiz-adv-x="1091" d="M31 58v222h14q80 -53 194.5 -93.5t229.5 -40.5q73 0 145.5 19.5t121.5 63.5t72 95.5t23 129.5q0 76 -27.5 128t-77.5 84q-49 32 -117.5 45.5t-146.5 13.5h-156v166h136q158 0 254 63t96 184q0 55 -23.5 94.5t-66.5 64.5q-47 27 -98.5 36.5t-112.5 9.5q-64 0 -126 -14.5 t-117 -35.5q-52 -21 -91 -44t-64 -38h-13v219q68 32 185 59t231 27q115 0 198 -19.5t152 -63.5q75 -49 112.5 -115.5t37.5 -158.5q0 -121 -80.5 -211t-210.5 -118v-15q50 -9 108.5 -32t107.5 -65q50 -43 82.5 -107.5t32.5 -166.5q0 -100 -40 -185.5t-110 -149.5 q-72 -66 -178 -101t-236 -35q-139 0 -255 27.5t-186 57.5z" />
<glyph unicode="&#x418;" horiz-adv-x="1372" d="M151 0v1489h197v-1163l664 1163h209v-1489h-197v1182l-673 -1182h-200z" />
<glyph unicode="&#x419;" horiz-adv-x="1372" d="M151 0v1489h197v-1163l664 1163h209v-1489h-197v1182l-673 -1182h-200zM335 1935h178q2 -112 50 -161.5t142 -49.5q95 0 142.5 49t49.5 162h178q-4 -150 -95 -242t-275 -92t-275 92t-95 242z" />
<glyph unicode="&#x41a;" horiz-adv-x="1234" d="M151 0v1489h198v-671q117 4 185.5 59t111.5 158q18 45 32.5 85.5t23.5 68.5q60 171 153 235.5t258 64.5h61v-177h-50q-122 0 -171 -47.5t-90 -179.5t-92 -193.5t-123 -108.5l604 -783h-252l-526 682h-125v-682h-198z" />
<glyph unicode="&#x41b;" horiz-adv-x="1388" d="M15 0v192h14q10 -1 17 -2t21 -1q36 0 67 11t53 34q68 67 99.5 238.5t44.5 461.5q5 98 10 259t9 296h887v-1489h-198v1313h-502q-3 -113 -8 -220.5t-8 -192.5q-8 -211 -25.5 -349t-45.5 -231q-27 -91 -63.5 -147t-79.5 -94q-45 -41 -96.5 -61.5t-119.5 -20.5 q-21 0 -42.5 1.5t-33.5 1.5z" />
<glyph unicode="&#x41c;" horiz-adv-x="1578" d="M151 0v1489h270l372 -829l359 829h275v-1489h-198v1283l-388 -873h-120l-385 873v-1283h-185z" />
<glyph unicode="&#x41d;" horiz-adv-x="1383" d="M151 0v1489h198v-584h685v584h198v-1489h-198v729h-685v-729h-198z" />
<glyph unicode="&#x41e;" horiz-adv-x="1449" d="M66 744q0 188 46.5 330t132.5 244q86 99 207.5 150.5t271.5 51.5q152 0 274 -53t206 -149q85 -98 132 -243t47 -331q0 -181 -46 -327t-133 -245q-91 -104 -212.5 -153.5t-267.5 -49.5q-151 0 -272 51t-208 152q-86 99 -132 244t-46 328zM272 744q0 -293 123 -448.5 t330 -155.5t329.5 155.5t122.5 448.5q0 148 -32 262t-90 189q-59 77 -142.5 115.5t-187.5 38.5q-108 0 -188.5 -37.5t-142.5 -116.5q-59 -76 -90.5 -191t-31.5 -260z" />
<glyph unicode="&#x41f;" horiz-adv-x="1383" d="M151 0v1489h1081v-1489h-198v1313h-685v-1313h-198z" />
<glyph unicode="&#x420;" horiz-adv-x="1129" d="M151 0v1489h374q132 0 225 -22t164 -71q83 -57 130 -144.5t47 -211.5q0 -97 -34.5 -183.5t-95.5 -147.5q-77 -76 -181 -115t-263 -39h-168v-555h-198zM349 724h135q120 0 194 19.5t123 69.5q44 45 64 98t20 124q0 77 -26.5 134t-80.5 93q-47 31 -109.5 44t-155.5 13h-164 v-595z" />
<glyph unicode="&#x421;" horiz-adv-x="1230" d="M66 743q0 187 47.5 326t138.5 242q89 100 211 152.5t273 52.5q75 0 140.5 -11t121.5 -28q48 -15 98.5 -37.5t99.5 -49.5v-239h-16q-26 24 -67 58t-100 67q-57 31 -124 51t-155 20q-95 0 -180 -39t-149 -115q-63 -76 -98 -191t-35 -259q0 -153 37 -263.5t101 -186.5 q62 -74 146 -111.5t178 -37.5q86 0 159 21t130 53q55 31 95 63.5t63 55.5h15v-236q-49 -23 -92.5 -44t-105.5 -41q-65 -21 -120.5 -32t-144.5 -11q-146 0 -268.5 49t-211.5 146t-138 242t-49 333z" />
<glyph unicode="&#x422;" horiz-adv-x="1196" d="M-1 1313v176h1198v-176h-500v-1313h-198v1313h-500z" />
<glyph unicode="&#x423;" horiz-adv-x="1178" d="M-1 1489h219l404 -876l365 876h204l-540 -1254q-34 -79 -76.5 -127t-88.5 -72q-46 -25 -90.5 -33t-89.5 -8q-40 0 -94 2t-69 3v185h14q15 -2 45.5 -4.5t77.5 -2.5q22 0 52 2.5t55 14.5q29 14 54.5 37.5t46.5 74.5l34 79z" />
<glyph unicode="&#x424;" horiz-adv-x="1533" d="M66 760q0 130 40 233.5t112 178.5q77 80 193 126t257 50v165h197v-165q141 -3 258 -49.5t194 -125.5q72 -74 111 -177t39 -236q0 -139 -42 -245.5t-117 -179.5q-81 -80 -199 -123.5t-244 -46.5v-181h-197v181q-125 4 -243 45t-201 123q-75 73 -116.5 181t-41.5 246z M272 768q0 -118 29 -204.5t90 -145.5q46 -44 116.5 -73t160.5 -30v880q-95 -1 -164 -28t-121 -80q-55 -56 -83 -139t-28 -180zM865 315q90 2 160.5 29.5t116.5 73.5q61 60 90 146t29 204q0 99 -28 180.5t-83 138.5q-52 54 -121 80t-164 28v-880z" />
<glyph unicode="&#x425;" horiz-adv-x="1189" d="M8 0l473 745l-459 744h226l356 -585l361 585h215l-466 -734l467 -755h-227l-363 596l-369 -596h-214z" />
<glyph unicode="&#x426;" horiz-adv-x="1403" d="M151 0v1489h198v-1315h675v1315h198v-1315h141v-511h-188v337h-1024z" />
<glyph unicode="&#x427;" horiz-adv-x="1302" d="M93 977v512h198v-413q0 -94 7 -148.5t40 -104.5q29 -44 86 -67.5t152 -23.5q85 0 192 19.5t185 48.5v689h198v-1489h-198v630q-122 -40 -217 -60t-199 -20q-96 0 -176 23.5t-141 75.5q-60 52 -93.5 134t-33.5 194z" />
<glyph unicode="&#x428;" horiz-adv-x="1932" d="M151 0v1489h198v-1317h518v1317h198v-1317h518v1317h198v-1489h-1630z" />
<glyph unicode="&#x429;" horiz-adv-x="1962" d="M151 0v1489h198v-1317h518v1317h198v-1317h518v1317h198v-1317h141v-509h-188v337h-1583z" />
<glyph unicode="&#x42a;" horiz-adv-x="1412" d="M-1 1313v176h586v-584h212q152 0 248 -17.5t181 -83.5q76 -59 112 -146t36 -197q0 -108 -42 -196t-113 -143q-84 -66 -180 -94t-248 -28h-404v1313h-388zM585 169h145q133 0 204.5 13t125.5 50q56 39 81.5 91.5t25.5 133.5q0 75 -24.5 132t-77.5 92q-55 37 -127 45 t-203 8h-150v-565z" />
<glyph unicode="&#x42b;" horiz-adv-x="1615" d="M151 0v1489h198v-584h207q152 0 248 -17.5t181 -83.5q76 -59 112 -146t36 -197q0 -108 -42 -196t-113 -143q-84 -66 -180 -94t-248 -28h-399zM349 169h140q133 0 204.5 13t125.5 50q56 39 81.5 91.5t25.5 133.5q0 75 -24.5 132t-77.5 92q-55 37 -127 45t-203 8h-145v-565 zM1266 0v1489h198v-1489h-198z" />
<glyph unicode="&#x42c;" horiz-adv-x="1193" d="M151 0v1489h198v-584h229q152 0 248 -17.5t181 -83.5q76 -59 112 -146t36 -197q0 -108 -42 -196t-113 -143q-84 -66 -180 -94t-248 -28h-421zM349 169h162q133 0 204.5 13t125.5 50q56 39 81.5 91.5t25.5 133.5q0 75 -24.5 132t-77.5 92q-55 37 -127 45t-203 8h-167v-565 z" />
<glyph unicode="&#x42d;" horiz-adv-x="1228" d="M43 64v219h15q72 -65 183 -103.5t237 -38.5q215 0 350 157t135 414h-726v173h716q-23 216 -149.5 339.5t-325.5 123.5q-123 0 -230 -38t-186 -106h-15v220q80 37 196.5 64.5t242.5 27.5q322 0 499 -199.5t177 -566.5q0 -355 -187.5 -566t-490.5 -211q-128 0 -241.5 25.5 t-199.5 65.5z" />
<glyph unicode="&#x42e;" horiz-adv-x="1948" d="M151 0v1489h198v-596h244q36 300 204 463.5t433 163.5q296 0 474 -202.5t178 -573.5q0 -368 -178 -571.5t-474 -203.5t-468.5 198t-178.5 553h-234v-720h-198zM783 744q0 -293 121 -448.5t327 -155.5q204 0 324.5 155t120.5 449q0 296 -120.5 450.5t-324.5 154.5 q-207 0 -327.5 -154.5t-120.5 -450.5z" />
<glyph unicode="&#x42f;" horiz-adv-x="1252" d="M-5 0l478 622q-150 51 -232.5 157.5t-82.5 285.5q0 114 47.5 196.5t125.5 137.5q71 50 166 70t210 20h394v-1489h-198v592h-225l-445 -592h-238zM366 1058q0 -80 18.5 -133t59.5 -94q45 -44 110 -59t151 -15h198v562h-206q-86 0 -138 -11t-95 -40q-46 -31 -72 -87 t-26 -123z" />
<glyph unicode="&#x430;" horiz-adv-x="1075" d="M58 324q0 116 49 197.5t155 129.5q94 43 222 59.5t276 24.5v36q0 66 -20 106.5t-56 62.5q-36 23 -88 30.5t-107 7.5q-65 0 -153 -19.5t-176 -56.5h-11v191q52 15 149 33t192 18q115 0 194 -18t142 -65q61 -46 91 -119t30 -178v-764h-187v119q-23 -17 -61.5 -47.5 t-74.5 -48.5q-50 -26 -96.5 -40t-130.5 -14q-69 0 -131 26t-109 73q-45 46 -72 113.5t-27 142.5zM252 336q0 -96 54 -145t158 -49q89 0 161 38.5t135 94.5v310q-67 -6 -169.5 -16.5t-165.5 -29.5q-75 -23 -124 -70.5t-49 -132.5z" />
<glyph unicode="&#x431;" horiz-adv-x="1126" d="M67 710q0 75 6.5 152.5t28.5 185.5q20 96 54 178.5t89 139.5q71 74 185.5 118t303.5 61q67 6 143.5 11.5t116.5 8.5v-173q-52 -3 -111 -7.5t-135 -10.5q-101 -8 -211 -35.5t-166 -85.5q-42 -43 -67 -123t-35 -178q74 53 158.5 89.5t182.5 36.5q91 0 173 -30.5t145 -95.5 q65 -66 101 -167.5t36 -235.5q0 -129 -41 -238.5t-111 -184.5q-72 -78 -159.5 -117.5t-190.5 -39.5q-105 0 -192.5 36.5t-149.5 112.5q-77 95 -115.5 238t-38.5 354zM260 685q0 -174 28 -283t78 -171q45 -56 95 -77.5t109 -21.5q144 0 224 109t80 297q0 178 -80 273t-228 95 q-81 0 -157 -27t-143 -72q-2 -25 -4 -59.5t-2 -62.5z" />
<glyph unicode="&#x432;" horiz-adv-x="1074" d="M136 0v1117h410q123 0 180 -7.5t113 -38.5q59 -32 87 -85t28 -126q0 -80 -44 -143.5t-117 -98.5l5 -7q91 -23 152.5 -93t61.5 -180q0 -81 -31 -143.5t-85 -104.5q-68 -53 -142.5 -71.5t-178.5 -18.5h-439zM322 150h163q101 0 157 8t96 32q42 26 61 60t19 87 q0 57 -16.5 91.5t-72.5 61.5q-35 17 -75 21t-111 4h-221v-365zM322 661h216q69 0 98 6.5t64 27.5q33 20 47 54t14 82q0 38 -12.5 66t-43.5 44q-36 19 -80.5 22.5t-123.5 3.5h-179v-306z" />
<glyph unicode="&#x433;" horiz-adv-x="850" d="M136 0v1117h710v-165h-522v-952h-188z" />
<glyph unicode="&#x434;" horiz-adv-x="1143" d="M8 160h74q95 156 155.5 407.5t60.5 549.5h685v-957h111v-428h-175v271h-736v-271h-175v428zM267 160h528v799h-320q-13 -250 -68.5 -456.5t-139.5 -342.5z" />
<glyph unicode="&#x435;" horiz-adv-x="1078" d="M59 552q0 273 143 434.5t374 161.5q104 0 184 -30t140 -94t92 -156.5t32 -226.5v-102h-774q0 -195 98 -298t271 -103q62 0 121.5 14t107.5 36q51 23 86 44.5t58 40.5h11v-205q-33 -13 -82 -32.5t-88 -30.5q-55 -15 -99.5 -23t-112.5 -8q-267 0 -414.5 150.5t-147.5 427.5 zM250 683h591q-2 76 -18 131t-46 93q-33 42 -84.5 64t-127.5 22q-75 0 -127.5 -22.5t-95.5 -65.5q-42 -44 -64 -97.5t-28 -124.5z" />
<glyph unicode="&#x436;" horiz-adv-x="1496" d="M8 0l421 585q-49 26 -87 75.5t-68 143.5q-27 85 -64 118t-121 33h-43v162h51q123 0 202.5 -50t124.5 -175q9 -26 22.5 -59.5t23.5 -56.5q33 -76 77 -110t108 -38v489h186v-489q64 5 109.5 39t77.5 109q11 25 24.5 58t21.5 58q44 123 122 174t203 51h51v-162h-43 q-79 0 -118.5 -32.5t-66.5 -118.5q-28 -87 -66 -137t-84 -76l420 -591h-227l-351 514h-73v-514h-186v514h-73l-357 -514h-217z" />
<glyph unicode="&#x437;" horiz-adv-x="937" d="M32 64v208h12q68 -63 170.5 -99.5t204.5 -36.5q44 0 94.5 9.5t85.5 29.5q46 28 65.5 60t19.5 88q0 60 -22.5 96.5t-61.5 54.5t-87.5 22.5t-102.5 4.5h-132v162h101q38 0 95 2.5t91 15.5q43 16 69 45.5t26 99.5q0 49 -22 79t-55 47q-34 18 -74 24.5t-77 6.5 q-95 0 -182.5 -26.5t-150.5 -78.5h-12v203q72 25 159.5 44t175.5 19q71 0 144.5 -14.5t139.5 -49.5q62 -34 104 -93.5t42 -145.5q0 -91 -51.5 -159.5t-136.5 -90.5v-7q93 -32 152.5 -98t59.5 -177q0 -94 -41 -159t-105 -103q-61 -37 -139 -55t-156 -18q-110 0 -208 21.5 t-195 68.5z" />
<glyph unicode="&#x438;" horiz-adv-x="1154" d="M136 0v1117h186v-820l520 820h176v-1117h-186v833l-526 -833h-170z" />
<glyph unicode="&#x439;" horiz-adv-x="1154" d="M136 0v1117h186v-820l520 820h176v-1117h-186v833l-526 -833h-170zM275 1636h162q0 -135 42 -194.5t126 -59.5q79 0 123 58.5t44 195.5h162q0 -86 -21 -156.5t-60 -118.5q-45 -53 -102 -79.5t-146 -26.5q-82 0 -143.5 27.5t-103.5 78.5q-41 50 -62 120t-21 155z" />
<glyph unicode="&#x43a;" horiz-adv-x="1020" d="M136 0v1117h188v-486q73 1 124.5 30.5t87.5 114.5q11 25 24.5 58t21.5 58q44 123 122 174t203 51h51v-162h-43q-79 0 -118.5 -32.5t-66.5 -118.5q-28 -87 -66 -135.5t-84 -74.5l455 -594h-234l-383 515h-94v-515h-188z" />
<glyph unicode="&#x43b;" horiz-adv-x="1137" d="M15 0v164h10q7 0 14.5 -1t17.5 -1q24 0 47 7t41 26q50 49 73 171.5t33 342.5q4 82 7.5 194t6.5 214h736v-1117h-188v959h-384q-3 -83 -6 -159.5t-6 -138.5q-6 -157 -20.5 -263t-36.5 -170q-22 -66 -48.5 -103t-59.5 -67q-34 -30 -73 -45t-88 -15q-16 0 -41 1t-35 1z" />
<glyph unicode="&#x43c;" horiz-adv-x="1308" d="M136 0v1117h227l294 -620l284 620h231v-1117h-186v878l-268 -570h-140l-266 570v-878h-176z" />
<glyph unicode="&#x43d;" horiz-adv-x="1153" d="M136 0v1117h188v-452h506v452h188v-1117h-188v503h-506v-503h-188z" />
<glyph unicode="&#x43e;" horiz-adv-x="1112" d="M57 558q0 280 137.5 435t362.5 155q226 0 362 -154.5t136 -435.5q0 -282 -136 -435.5t-362 -153.5q-233 0 -366.5 158.5t-133.5 430.5zM251 558q0 -210 79.5 -318.5t226.5 -108.5q145 0 224.5 106.5t79.5 320.5q0 217 -79 322.5t-225 105.5q-147 0 -226.5 -105.5 t-79.5 -322.5z" />
<glyph unicode="&#x43f;" horiz-adv-x="1154" d="M136 0v1117h882v-1117h-188v955h-506v-955h-188z" />
<glyph unicode="&#x440;" horiz-adv-x="1132" d="M136 -412v1529h188v-117q70 63 155.5 105.5t186.5 42.5q192 0 299.5 -152t107.5 -408q0 -279 -133.5 -444.5t-337.5 -165.5q-83 0 -147 19t-131 59v-468h-188zM324 209q74 -36 126.5 -49t120.5 -13q146 0 227 107t81 313q0 191 -61 296.5t-198 105.5q-80 0 -154.5 -35.5 t-141.5 -91.5v-633z" />
<glyph unicode="&#x441;" horiz-adv-x="945" d="M59 557q0 147 39.5 254t105.5 180t164.5 112.5t211.5 39.5q92 0 177.5 -26t152.5 -60v-211h-11q-20 17 -51.5 39t-76.5 45q-39 20 -92 35t-102 15q-146 0 -234.5 -110.5t-88.5 -312.5q0 -198 85.5 -308.5t237.5 -110.5q92 0 175 38t147 98h11v-211q-28 -13 -70 -31.5 t-76 -27.5q-48 -14 -86 -21.5t-98 -7.5q-115 0 -211 35.5t-165 107.5t-107 181.5t-38 257.5z" />
<glyph unicode="&#x442;" horiz-adv-x="956" d="M4 952v165h948v-165h-380v-952h-188v952h-380z" />
<glyph unicode="&#x443;" horiz-adv-x="1020" d="M6 1117h203l305 -827l304 827h196l-601 -1529h-201l200 466z" />
<glyph unicode="&#x444;" horiz-adv-x="1556" d="M62 555q0 140 36 250t99 187q58 71 134.5 110.5t159.5 39.5q59 0 106.5 -20.5t87.5 -46.5v481h186v-481q44 27 101 47t117 20q188 0 296.5 -150.5t108.5 -403.5q0 -149 -36.5 -263.5t-96.5 -188.5q-61 -75 -138 -113.5t-161 -38.5q-63 0 -110.5 24t-80.5 41v-461h-186 v461q-59 -31 -94 -48t-115 -17q-188 0 -301 152.5t-113 418.5zM255 564q0 -195 67.5 -307t193.5 -112q50 0 90 15t79 32v745q-36 17 -72 30t-80 13q-128 0 -203 -101t-75 -315zM871 192q44 -21 71.5 -34t80.5 -13q130 0 204 107t74 315q0 191 -64.5 302t-190.5 111 q-52 0 -91.5 -13.5t-83.5 -29.5v-745z" />
<glyph unicode="&#x445;" horiz-adv-x="1014" d="M10 0l388 554l-384 563h231l269 -418l276 418h214l-386 -550l386 -567h-231l-271 422l-279 -422h-213z" />
<glyph unicode="&#x446;" horiz-adv-x="1171" d="M136 0v1117h188v-955h499v955h188v-955h111v-430h-175v268h-811z" />
<glyph unicode="&#x447;" horiz-adv-x="1112" d="M96 716v401h188v-303q0 -74 6 -117.5t33 -84.5q23 -35 69.5 -54t122.5 -19q66 0 141.5 13t131.5 31v534h188v-1117h-188v436q-88 -29 -171 -45t-164 -16q-71 0 -138.5 18.5t-116.5 60.5t-75.5 107.5t-26.5 154.5z" />
<glyph unicode="&#x448;" horiz-adv-x="1594" d="M136 0v1117h188v-958h379v958h188v-958h379v958h188v-1117h-1322z" />
<glyph unicode="&#x449;" horiz-adv-x="1618" d="M136 0v1117h188v-958h379v958h188v-958h379v958h188v-958h111v-427h-175v268h-1258z" />
<glyph unicode="&#x44a;" horiz-adv-x="1164" d="M4 952v165h472v-435h196q126 0 195.5 -13t138.5 -64q58 -43 87 -110t29 -149q0 -81 -32.5 -147t-88.5 -107q-66 -50 -141 -71t-193 -21h-379v952h-284zM476 150h124q100 0 155 8.5t95 32.5q41 26 59.5 61.5t18.5 90.5q0 51 -17.5 89.5t-57.5 62.5q-42 25 -95.5 30 t-153.5 5h-128v-380z" />
<glyph unicode="&#x44b;" horiz-adv-x="1419" d="M136 0v1117h188v-435h191q126 0 195.5 -13t138.5 -64q58 -43 87 -110t29 -149q0 -81 -32.5 -147t-88.5 -107q-66 -50 -141 -71t-193 -21h-374zM324 150h119q100 0 155 8.5t95 32.5q41 26 59.5 61.5t18.5 90.5q0 51 -17.5 89.5t-57.5 62.5q-42 25 -95.5 30t-153.5 5h-123 v-380zM1095 0v1117h188v-1117h-188z" />
<glyph unicode="&#x44c;" horiz-adv-x="1025" d="M136 0v1117h188v-435h208q126 0 195.5 -13t138.5 -64q58 -43 87 -110t29 -149q0 -81 -32.5 -147t-88.5 -107q-66 -50 -141 -71t-193 -21h-391zM324 150h136q100 0 155 8.5t95 32.5q41 26 59.5 61.5t18.5 90.5q0 51 -17.5 89.5t-57.5 62.5q-42 25 -95.5 30t-153.5 5h-140 v-380z" />
<glyph unicode="&#x44d;" horiz-adv-x="965" d="M42 50v206h12q22 -19 54.5 -39.5t76.5 -38.5q48 -20 92 -31t108 -11q144 0 231 97t100 281h-508v151h507q-18 159 -104.5 238t-214.5 79q-57 0 -106 -12.5t-95 -33.5q-38 -18 -67.5 -39t-56.5 -43h-12v206q53 23 149.5 53t183.5 30q113 0 207 -34t162 -104 q69 -72 105.5 -174.5t36.5 -249.5q0 -280 -143.5 -443t-387.5 -163q-91 0 -177.5 23.5t-152.5 51.5z" />
<glyph unicode="&#x44e;" horiz-adv-x="1560" d="M136 0v1117h188v-455h201q23 228 152 357t332 129q235 0 364.5 -160t129.5 -430q0 -281 -135.5 -435t-358.5 -154q-219 0 -347.5 144.5t-140.5 394.5h-197v-508h-188zM707 558q0 -210 79 -318.5t223 -108.5q143 0 221.5 105.5t78.5 321.5q0 214 -78.5 321t-221.5 107 q-145 0 -223.5 -108t-78.5 -320z" />
<glyph unicode="&#x44f;" horiz-adv-x="1081" d="M21 0l359 460q-139 41 -203.5 122t-64.5 217q0 83 36.5 145.5t98.5 105.5q50 34 126 50.5t170 16.5h402v-1117h-188v443h-186l-331 -443h-219zM305 793q0 -55 12.5 -89.5t45.5 -63.5q35 -30 85.5 -39.5t110.5 -9.5h198v376h-204q-65 0 -102.5 -7t-72.5 -27 q-36 -22 -54.5 -59.5t-18.5 -80.5z" />
<glyph unicode="&#x450;" horiz-adv-x="1078" d="M59 552q0 273 143 434.5t374 161.5q104 0 184 -30t140 -94t92 -156.5t32 -226.5v-102h-774q0 -195 98 -298t271 -103q62 0 121.5 14t107.5 36q51 23 86 44.5t58 40.5h11v-205q-33 -13 -82 -32.5t-88 -30.5q-55 -15 -99.5 -23t-112.5 -8q-267 0 -414.5 150.5t-147.5 427.5 zM250 683h591q-2 76 -18 131t-46 93q-33 42 -84.5 64t-127.5 22q-75 0 -127.5 -22.5t-95.5 -65.5q-42 -44 -64 -97.5t-28 -124.5zM263 1676h243l179 -374h-149z" />
<glyph unicode="&#x451;" horiz-adv-x="1078" d="M59 552q0 273 143 434.5t374 161.5q104 0 184 -30t140 -94t92 -156.5t32 -226.5v-102h-774q0 -195 98 -298t271 -103q62 0 121.5 14t107.5 36q51 23 86 44.5t58 40.5h11v-205q-33 -13 -82 -32.5t-88 -30.5q-55 -15 -99.5 -23t-112.5 -8q-267 0 -414.5 150.5t-147.5 427.5 zM250 683h591q-2 76 -18 131t-46 93q-33 42 -84.5 64t-127.5 22q-75 0 -127.5 -22.5t-95.5 -65.5q-42 -44 -64 -97.5t-28 -124.5zM266 1304v195h201v-195h-201zM679 1304v195h201v-195h-201z" />
<glyph unicode="&#x452;" horiz-adv-x="1184" d="M12 1270v132h166v154h188v-154h371v-132h-371v-277q78 71 162.5 113t176.5 42q78 0 141 -25.5t108 -74.5q45 -50 73 -133t28 -190q0 -47 1.5 -100.5t1.5 -128.5q0 -58 -1 -114t-2 -114q-2 -177 -41.5 -304.5t-107.5 -208.5q-70 -84 -155.5 -121t-188.5 -37h-34l-51 2v158 h11h26h22q184 0 253 126.5t79 455.5q1 34 1.5 71.5t0.5 83.5q0 24 -0.5 61.5t-1.5 80.5q-1 81 -8.5 143.5t-30.5 105.5q-23 42 -63 63t-110 21t-144.5 -37.5t-145.5 -97.5v-834h-188v1270h-166z" />
<glyph unicode="&#x453;" horiz-adv-x="850" d="M136 0v1117h710v-165h-522v-952h-188zM359 1302l179 374h243l-273 -374h-149z" />
<glyph unicode="&#x454;" horiz-adv-x="965" d="M61 557q0 271 140.5 428.5t380.5 157.5q95 0 181 -27t149 -59v-203h-11q-53 47 -140.5 87.5t-181.5 40.5q-127 0 -215.5 -80.5t-111.5 -236.5h508v-151h-511q13 -192 103 -285t227 -93q100 0 185.5 36t136.5 82h11v-206q-76 -37 -159 -55t-171 -18q-115 0 -211 35.5 t-165 107.5t-107 181.5t-38 257.5z" />
<glyph unicode="&#x455;" horiz-adv-x="914" d="M67 67v211h10q24 -19 56.5 -42t86.5 -48q48 -22 105.5 -39t119.5 -17q45 0 96 10.5t76 26.5q35 23 50.5 49t15.5 78q0 67 -36.5 101t-129.5 57q-36 9 -94 21t-107 26q-128 37 -186 114.5t-58 187.5q0 151 114 246t303 95q93 0 187 -23t158 -58v-201h-10q-72 57 -160.5 90 t-178.5 33q-93 0 -157 -39t-64 -118q0 -70 38 -104.5t122 -56.5q42 -11 93.5 -21.5t108.5 -24.5q124 -31 186.5 -103t62.5 -196q0 -72 -28.5 -136.5t-83.5 -110.5q-60 -50 -135.5 -76t-189.5 -26q-112 0 -209.5 30t-161.5 64z" />
<glyph unicode="&#x456;" horiz-adv-x="468" d="M127 1304v195h214v-195h-214zM140 0v1117h188v-1117h-188z" />
<glyph unicode="&#x457;" horiz-adv-x="468" d="M-38 1304v195h189v-195h-189zM140 0v1117h188v-1117h-188zM317 1304v195h189v-195h-189z" />
<glyph unicode="&#x458;" horiz-adv-x="577" d="M-90 -243h11q22 -5 48.5 -9.5t50.5 -4.5q75 0 123.5 18.5t72.5 58.5q22 36 29.5 91t7.5 134v916h-202v156h390v-1149q0 -191 -102.5 -291t-282.5 -100q-31 0 -69.5 3t-76.5 9v168zM228 1304v195h214v-195h-214z" />
<glyph unicode="&#x459;" horiz-adv-x="1692" d="M15 0v164h10q7 0 14.5 -1t17.5 -1q24 0 47 7t41 26q50 49 73 171.5t33 342.5q4 82 7.5 194t6.5 214h736v-435h198q126 0 195.5 -13t138.5 -64q58 -43 87 -110t29 -149q0 -81 -32.5 -147t-88.5 -107q-66 -50 -141 -71t-193 -21h-381v959h-382q-3 -83 -7 -159.5t-7 -138.5 q-6 -157 -20.5 -263t-36.5 -170q-22 -66 -48.5 -103t-59.5 -67q-34 -30 -73 -45t-88 -15q-16 0 -41 1t-35 1zM1001 150h126q100 0 155 8.5t95 32.5q41 26 59.5 61.5t18.5 90.5q0 51 -17.5 89.5t-57.5 62.5q-42 25 -95.5 30t-153.5 5h-130v-380z" />
<glyph unicode="&#x45a;" horiz-adv-x="1687" d="M136 0v1117h188v-435h474v435h188v-435h198q126 0 195.5 -13t138.5 -64q58 -43 87 -110t29 -149q0 -81 -32.5 -147t-88.5 -107q-66 -50 -141 -71t-193 -21h-381v528h-474v-528h-188zM986 150h126q100 0 155 8.5t95 32.5q41 26 59.5 61.5t18.5 90.5q0 51 -17.5 89.5 t-57.5 62.5q-42 25 -95.5 30t-153.5 5h-130v-380z" />
<glyph unicode="&#x45b;" horiz-adv-x="1184" d="M12 1270v132h166v154h188v-154h371v-132h-371v-277q84 75 166 115t173 40q75 0 138.5 -24t111.5 -76q47 -50 74 -131t27 -192v-725h-188v636q0 77 -7.5 143.5t-28.5 106.5q-23 42 -64 62.5t-112 20.5q-70 0 -144.5 -37.5t-145.5 -97.5v-834h-188v1270h-166z" />
<glyph unicode="&#x45c;" horiz-adv-x="1020" d="M136 0v1117h188v-486q73 1 124.5 30.5t87.5 114.5q11 25 24.5 58t21.5 58q44 123 122 174t203 51h51v-162h-43q-79 0 -118.5 -32.5t-66.5 -118.5q-28 -87 -66 -135.5t-84 -74.5l455 -594h-234l-383 515h-94v-515h-188zM430 1302l179 374h243l-273 -374h-149z" />
<glyph unicode="&#x45d;" horiz-adv-x="1154" d="M136 0v1117h186v-820l520 820h176v-1117h-186v833l-526 -833h-170zM292 1676h243l179 -374h-149z" />
<glyph unicode="&#x45e;" horiz-adv-x="1020" d="M6 1117h203l305 -827l304 827h196l-601 -1529h-201l200 466zM185 1636h162q0 -135 42 -194.5t126 -59.5q79 0 123 58.5t44 195.5h162q0 -86 -21 -156.5t-60 -118.5q-45 -53 -102 -79.5t-146 -26.5q-82 0 -143.5 27.5t-103.5 78.5q-41 50 -62 120t-21 155z" />
<glyph unicode="&#x45f;" horiz-adv-x="1154" d="M136 0v1117h188v-956h506v956h188v-1117h-354v-268h-174v268h-354z" />
<glyph unicode="&#x460;" horiz-adv-x="2342" d="M66 746q0 356 195 566q190 204 515 204q140 0 276 -41v-196h-17q-136 66 -283 66q-235 0 -365 -185q-115 -163 -115 -408q0 -290 136 -452q133 -158 358 -158q193 0 307 48v385h-344v174h884v-174h-344v-385q114 -48 307 -48q225 0 358 158q136 162 136 452 q0 246 -114 408q-130 185 -366 185q-147 0 -283 -66h-17v196q136 41 276 41q325 0 515 -204q195 -210 195 -566q0 -378 -194 -581q-185 -194 -514 -194q-84 0 -143 11q-50 9 -132 33q-66 19 -122 42q-124 -51 -254 -75q-59 -11 -143 -11q-329 0 -514 194q-194 203 -194 581z " />
<glyph unicode="&#x461;" horiz-adv-x="1494" d="M30 1117h203q6 -87 14 -162q21 -180 51 -272q35 -107 195 -448l148 354q-18 47 -26 70q-49 151 -85 458h203q6 -87 14 -162q21 -180 51 -272q35 -107 195 -448l299 882h196l-401 -1117h-169q-46 89 -177 359l-154 -359h-169q-71 140 -128 257q-135 280 -175 402 q-49 151 -85 458z" />
<glyph unicode="&#x462;" horiz-adv-x="1394" d="M5 1170v143h347v176h198v-176h368v-143h-368v-265h229q152 0 225 -13q118 -21 204 -88q148 -115 148 -343q0 -218 -155.5 -339.5t-427.5 -121.5h-421v1170h-347zM550 169h162q239 0 330 63q107 74 107 225q0 156 -102 224q-59 40 -160 49q-37 4 -170 4h-167v-565z" />
<glyph unicode="&#x463;" horiz-adv-x="1168" d="M5 985v132h274v439h188v-439h293v-132h-293v-303h208q121 0 175 -9q88 -16 159 -68q116 -86 116 -259q0 -164 -122 -255t-333 -91h-391v985h-274zM467 150h136q184 0 250 41q78 48 78 152q0 60 -21 99q-41 73 -149 83q-54 5 -154 5h-140v-380z" />
<glyph unicode="&#x464;" horiz-adv-x="1742" d="M151 0v1489h198v-604h239q30 259 179 424q186 207 490 207q241 0 440 -91v-223h-15q-160 146 -419 146q-207 0 -332 -130q-117 -122 -141 -333h715v-173h-725q2 -271 143 -426q132 -145 343 -145q264 0 416 141h15v-217q-212 -92 -439 -92q-309 0 -493 203 q-177 195 -185 536h-231v-712h-198z" />
<glyph unicode="&#x465;" horiz-adv-x="1415" d="M136 0v1117h188v-452h193q23 196 135 321q140 157 380 157q161 0 330 -86v-203h-11q-144 128 -322 128q-139 0 -226 -91q-80 -83 -101 -226h508v-151h-511q11 -166 86 -265q86 -113 244 -113q191 0 322 118h11v-206q-150 -73 -330 -73q-239 0 -376 143q-134 140 -144 396 h-188v-514h-188z" />
<glyph unicode="&#x466;" horiz-adv-x="1228" d="M-10 0l502 1489h244l502 -1489h-209l-234 716l-94 -150v-566h-188v566l-92 150l-231 -716h-200zM476 885l133 -210l131 210l-131 402z" />
<glyph unicode="&#x467;" horiz-adv-x="1020" d="M6 0l418 1117h169l421 -1117h-196l-180 514l-29 -88v-426h-188v426l-29 88l-183 -514h-203zM445 665l70 -140l69 140l-69 197z" />
<glyph unicode="&#x468;" horiz-adv-x="1678" d="M151 0v1489h198v-604h389l204 604h244l502 -1489h-209l-234 712l-94 -146v-566h-188v566l-92 146l-231 -712h-200l240 712h-331v-712h-198zM926 885l133 -210l131 210l-131 402z" />
<glyph unicode="&#x469;" horiz-adv-x="1420" d="M136 0v1117h188v-452h331l169 452h169l421 -1117h-196l-180 514l-29 -88v-426h-188v426l-29 88l-183 -514h-203l192 514h-274v-514h-188zM845 665l70 -140l69 140l-69 197z" />
<glyph unicode="&#x46a;" horiz-adv-x="1610" d="M-13 0q119 404 202 532q121 186 409 303l-396 654h1206l-396 -654q288 -117 409 -303q83 -128 202 -532h-244q-48 295 -145.5 429.5t-328.5 225.5v-655h-198v655q-232 -91 -330 -225.5t-146 -429.5h-244zM517 1313l287 -481l288 481h-575z" />
<glyph unicode="&#x46b;" horiz-adv-x="1258" d="M4 0q74 272 162 397.5t272 214.5l-315 505h1012l-315 -505q184 -89 272 -214.5t162 -397.5h-227q-21 188 -95 288q-64 87 -209 157v-445h-188v445q-145 -70 -209 -157q-74 -100 -95 -288h-227zM415 962l214 -344l214 344h-428z" />
<glyph unicode="&#x46c;" horiz-adv-x="2080" d="M151 0v1489h198v-604h689l-366 604h1206l-396 -654q288 -117 409 -303q83 -128 202 -532h-244q-48 295 -145.5 429.5t-328.5 225.5v-655h-198v655q-232 -91 -330 -225.5t-146 -429.5h-244q95 325 149 438q83 172 227 274h-484v-712h-198zM987 1313l287 -481l288 481h-575 z" />
<glyph unicode="&#x46d;" horiz-adv-x="1708" d="M136 0v1117h188v-452h531l-282 452h1012l-315 -505q184 -89 272 -214.5t162 -397.5h-227q-21 188 -95 288q-64 87 -209 157v-445h-188v445q-145 -70 -209 -157q-74 -100 -95 -288h-227q56 207 114 318q62 120 158 196h-402v-514h-188zM865 962l214 -344l214 344h-428z " />
<glyph unicode="&#x46e;" horiz-adv-x="1091" d="M80 -151q0 156 144 236q108 61 245 61q162 0 257 74q105 82 105 234q0 271 -369 271h-156v166h136q143 0 235 51q115 64 115 196q0 107 -90 159q-80 46 -211 46q-116 0 -243 -50q-49 -19 -91 -44l-64 -38h-13v219q183 86 416 86q221 0 350 -83q150 -97 150 -274 q0 -126 -85 -216q-79 -86 -206 -113v-15q331 -60 331 -371q0 -227 -176 -356q-157 -115 -388 -115q-78 0 -132 -23q-68 -28 -68 -84q0 -127 199 -127q82 0 199 43.5t161 43.5q88 0 146 -64q61 -67 61 -174h-152q0 75 -65 75q-14 0 -127 -43t-223 -43q-159 0 -262 56 q-129 71 -129 216zM164 2046h159l185 -256l184 256h155l-228 -379h-227z" />
<glyph unicode="&#x46f;" horiz-adv-x="937" d="M31 -151q0 155 143 231q105 56 245 56q265 0 265 187q0 114 -89 153q-56 25 -185 25h-132v162h101q140 0 190 18q91 34 91 145q0 157 -228 157q-206 0 -333 -105h-12v203q181 63 335 63q171 0 287 -66q143 -81 143 -237q0 -90 -51 -159t-137 -91v-7q212 -73 212 -275 q0 -170 -143 -260q-119 -75 -298 -75q-79 0 -138 -23q-74 -30 -74 -85q0 -67 52 -101q40 -26 97 -26q82 0 179 43.5t141 43.5q88 0 146 -64q61 -67 61 -174h-152q0 75 -65 75q-14 0 -107 -43t-203 -43q-138 0 -227 56q-114 71 -114 216zM94 1676h159l185 -256l184 256h155 l-228 -379h-227z" />
<glyph unicode="&#x470;" horiz-adv-x="1625" d="M130 1489h198l169 -832q12 -58 56 -102q60 -60 161 -60v994h197v-994q204 18 292 102q94 88 94 281v611h198v-588q0 -299 -153 -435q-136 -122 -431 -143v-323h-197v323q-206 0 -320 145q-69 87 -95 212z" />
<glyph unicode="&#x471;" horiz-adv-x="1463" d="M127 1117h188l165 -831q27 -134 158 -134v965h187v-965q182 13 254 91q69 75 69 252v622h188v-676q0 -421 -511 -443v-410h-187v410q-192 0 -273 74q-52 49 -73 160z" />
<glyph unicode="&#x472;" horiz-adv-x="1449" d="M66 744q0 365 179 574q173 202 479 202q304 0 480 -202q179 -205 179 -574q0 -368 -178.5 -571.5t-480.5 -203.5q-304 0 -481 204.5t-177 570.5zM273 792q188 113 300 113q86 0 180.5 -78.5t140.5 -78.5q72 0 278 104q-20 217 -117 343q-119 154 -330 154t-331 -154 q-111 -142 -121 -403zM276 639q19 -216 119 -343q123 -156 330 -156q226 0 344 175q99 148 107 387q-182 -104 -295 -104q-93 0 -185 81t-136 81q-76 0 -284 -121z" />
<glyph unicode="&#x473;" horiz-adv-x="1112" d="M57 558q0 255 120 414q134 176 380 176q248 0 380 -176q118 -157 118 -414q0 -256 -118 -414q-132 -175 -380 -175q-247 0 -380 176q-120 158 -120 413zM253 617q106 70 193 70q57 0 130.5 -58.5t110.5 -58.5q65 0 170 75q-30 341 -300 341q-283 0 -304 -369zM255 464 q14 -140 76 -224q80 -109 226 -109q275 0 301 354q-99 -65 -184 -65q-55 0 -131.5 61t-109.5 61q-67 0 -178 -78z" />
<glyph unicode="&#x474;" horiz-adv-x="1469" d="M-8 1489h212l412 -1236l358 1074q26 79 104 123q68 39 154 39q160 0 280 -188l-99 -114h-11q-23 53 -64 94q-50 50 -101 50q-62 0 -86 -71l-433 -1260h-214z" />
<glyph unicode="&#x475;" horiz-adv-x="1266" d="M6 1117h203l306 -862l256 731q28 79 105 123q68 39 153 39q160 0 280 -188l-99 -114h-11q-23 53 -64 94q-50 50 -101 50q-65 0 -92 -71l-349 -919h-169z" />
<glyph unicode="&#x476;" horiz-adv-x="1469" d="M-8 1489h212l412 -1236l358 1074q26 79 104 123q68 39 154 39q160 0 280 -188l-99 -114h-11q-23 53 -64 94q-50 50 -101 50q-62 0 -86 -71l-433 -1260h-214zM120 2049h228l169 -374h-139zM524 2049h228l169 -374h-139z" />
<glyph unicode="&#x477;" horiz-adv-x="1266" d="M6 1117h203l306 -862l256 731q28 79 105 123q68 39 153 39q160 0 280 -188l-99 -114h-11q-23 53 -64 94q-50 50 -101 50q-65 0 -92 -71l-349 -919h-169zM6 1676h228l169 -374h-139zM410 1676h228l169 -374h-139z" />
<glyph unicode="&#x478;" horiz-adv-x="2357" d="M66 744q0 180 40.5 323.5t117 244t186 154.5t247.5 54q137 0 245.5 -52.5t185.5 -149.5q78 -100 119.5 -244.5t41.5 -329.5q0 -187 -42.5 -331.5t-120 -243t-186.5 -149.5t-243 -51q-135 0 -244 51.5t-186 150.5t-119 243t-42 330zM272 744q0 -146 27.5 -258.5 t77.5 -189.5t121.5 -116.5t159.5 -39.5t159.5 40t121.5 116.5t77 189t27 258.5q0 144 -27 257t-77 190t-121 117.5t-160 40.5q-90 0 -161.5 -40.5t-121.5 -117.5t-76.5 -189.5t-26.5 -257.5zM1375 1117h202l297 -828l296 828h197l-582 -1529h-200l187 466z" />
<glyph unicode="&#x479;" horiz-adv-x="2011" d="M57 558q0 136 33 245.5t93.5 186t146.5 117.5t193 41q106 0 191.5 -41t146.5 -117.5t94 -186t33 -245.5t-33 -245t-93.5 -185.5t-146.5 -117.5t-192 -41q-107 0 -193 41t-147 117.5t-93.5 185.5t-32.5 245zM251 558q0 -211 71 -319t201 -108q127 0 199 107.5t72 319.5 q0 217 -72 322.5t-199 105.5q-129 0 -200.5 -105.5t-71.5 -322.5zM1029 1117h202l297 -828l296 828h197l-582 -1529h-200l187 466z" />
<glyph unicode="&#x47a;" horiz-adv-x="1751" d="M66 744q0 389 187 574q167 166 504 188q41 66 118 66q58 0 99 -40q10 -9 20 -26q338 -22 504 -187q187 -185 187 -575q0 -388 -186 -575q-166 -167 -505 -190q-42 -66 -119 -66q-76 0 -118 66q-339 23 -505 189q-186 187 -186 576zM272 744q0 -309 126 -459 q117 -140 359 -164q42 66 118 66q77 0 119 -66q242 24 359 164q126 150 126 459q0 308 -125 457q-116 139 -360 163q-42 -66 -119 -66q-76 0 -118 66q-244 -24 -360 -163q-125 -150 -125 -457z" />
<glyph unicode="&#x47b;" horiz-adv-x="1354" d="M57 558q0 535 520 576q38 55 100 55q63 0 101 -55q519 -41 519 -576t-519 -576q-38 -55 -101 -55q-62 0 -100 55q-520 40 -520 576zM251 558q0 -390 326 -432q38 55 100 55q63 0 101 -55q325 42 325 432t-325 432q-38 -55 -101 -55q-62 0 -100 55q-326 -41 -326 -432z " />
<glyph unicode="&#x47c;" horiz-adv-x="1917" d="M66 743q0 182 31.5 325.5t90.5 243t145 152t196 52.5q78 0 140.5 -9t124.5 -29v-223h-8q-30 25 -58.5 42.5t-58 28.5t-61 16t-68.5 5q-58 0 -107 -37.5t-85 -112.5t-56 -188.5t-20 -265.5q0 -159 28.5 -272t76 -186t109.5 -107t130 -34q191 0 338 196h9 q147 -196 338 -196q68 0 130 34t109.5 107t76 186t28.5 272q0 152 -20 265.5t-56 188.5t-85 112.5t-107 37.5q-37 0 -69 -4.5t-61 -15.5t-57.5 -28.5t-58.5 -43.5h-8v223q62 20 124.5 29t140.5 9q114 0 200.5 -52.5t145 -152t88 -243t29.5 -325.5q0 -197 -39 -341.5 t-109 -240t-167.5 -142t-213.5 -46.5q-65 0 -116.5 11.5t-94.5 31.5t-80 46.5t-73 56.5q-34 -30 -70.5 -56.5t-79.5 -46.5t-95.5 -31.5t-117.5 -11.5q-116 0 -213.5 46.5t-167.5 142t-109 240t-39 341.5zM554 1839q6 70 28 122.5t56 87t77 52t92 17.5q50 0 87 -9.5 t67.5 -24.5t56.5 -31.5t54.5 -31.5t61.5 -24.5t77 -9.5h161v-143h-170q-56 0 -99 10t-78 25t-64 32.5t-56 32.5t-54 25t-58 10q-48 0 -73.5 -37.5t-32.5 -102.5h-133zM873 1678v120h191v-110q0 -41 -12.5 -76.5t-36.5 -62.5t-59 -43t-81 -17v86q93 12 93 103h-95z" />
<glyph unicode="&#x47d;" horiz-adv-x="1553" d="M57 556q0 139 27 248t76.5 184.5t119.5 115t157 39.5q61 0 106 -7.5t93 -18.5v-188h-7q-23 12 -43 21.5t-40.5 16t-42.5 10t-49 3.5q-46 0 -84 -27t-65 -80.5t-42 -132.5t-15 -184q0 -80 9.5 -156.5t35 -136t71.5 -96t120 -36.5q52 0 92.5 16.5t73.5 46t61.5 68.5 t56.5 84h17q28 -45 56.5 -84t61.5 -68.5t73 -46t93 -16.5q73 0 119.5 36.5t72 96t35 136t9.5 156.5q0 105 -15 184t-42 132.5t-65 80.5t-84 27q-27 0 -49 -3.5t-42.5 -10t-40.5 -16t-43 -21.5h-7v188q48 11 93 18.5t106 7.5q99 0 170.5 -39.5t118 -115t69 -184.5t22.5 -248 t-25 -248t-76.5 -184t-131.5 -114.5t-191 -39.5q-50 0 -94.5 12t-82 33t-67.5 49.5t-52 61.5h-6q-23 -33 -51.5 -61.5t-64.5 -49.5t-79 -33t-94 -12q-111 0 -191 39.5t-131.5 114.5t-76.5 184t-25 248zM371 1501q6 70 28 122.5t56 87t77 52t92 17.5q50 0 87 -9.5t67.5 -24.5 t56.5 -31.5t54.5 -31.5t61.5 -24.5t77 -9.5h161v-143h-170q-56 0 -99 10t-78 25t-64 32.5t-56 32.5t-54 25t-58 10q-48 0 -73.5 -37.5t-32.5 -102.5h-133zM690 1306v154h191v-144q0 -41 -12.5 -76.5t-36.5 -62.5t-59 -43t-81 -17v86q93 12 93 103h-95z" />
<glyph unicode="&#x47e;" horiz-adv-x="2342" d="M66 746q0 356 195 566q190 204 515 204q140 0 276 -41v-196h-17q-136 66 -283 66q-235 0 -365 -185q-115 -163 -115 -408q0 -290 136 -452q133 -158 358 -158q193 0 307 48v385h-344v174h884v-174h-344v-385q114 -48 307 -48q225 0 358 158q136 162 136 452 q0 246 -114 408q-130 185 -366 185q-147 0 -283 -66h-17v196q136 41 276 41q325 0 515 -204q195 -210 195 -566q0 -378 -194 -581q-185 -194 -514 -194q-84 0 -143 11q-50 9 -132 33q-66 19 -122 42q-124 -51 -254 -75q-59 -11 -143 -11q-329 0 -514 194q-194 203 -194 581z M714 1929h914l-90 -195h-34l-47 101h-222l-47 -101h-34l-47 101h-222l-47 -101h-34z" />
<glyph unicode="&#x47f;" horiz-adv-x="1494" d="M30 1117h203q6 -87 14 -162q21 -180 51 -272q35 -107 195 -448l148 354q-18 47 -26 70q-49 151 -85 458h203q6 -87 14 -162q21 -180 51 -272q35 -107 195 -448l299 882h196l-401 -1117h-169q-46 89 -177 359l-154 -359h-169q-71 140 -128 257q-135 280 -175 402 q-49 151 -85 458zM252 1489h914l-90 -195h-34l-47 101h-222l-47 -101h-34l-47 101h-222l-47 -101h-34z" />
<glyph unicode="&#x480;" horiz-adv-x="1230" d="M66 743q0 358 186 568q182 205 484 205q135 0 262 -39q91 -28 198 -87v-239h-16q-143 132 -291 176q-67 20 -155 20q-200 0 -329 -154q-133 -159 -133 -450q0 -286 138 -450q125 -149 324 -149q53 0 90 3v-559h-198v394q-74 6 -161 40q-252 99 -350 388q-49 145 -49 333z " />
<glyph unicode="&#x481;" horiz-adv-x="945" d="M59 561q0 262 123 414q135 168 398 168q140 0 330 -88v-211h-11q-145 136 -322 136q-169 0 -253 -131q-70 -109 -70 -288q0 -176 72 -289q85 -134 251 -134h88v-550h-188v395q-201 34 -312 194q-106 153 -106 384z" />
<glyph unicode="&#x482;" horiz-adv-x="1016" d="M20 542l50 152l303 -98l111 342l-303 99l49 152l304 -99l129 399h176l-147 -450l304 -99l-50 -152l-303 98l-111 -342l303 -99l-49 -152l-304 99l-127 -392h-177l145 443z" />
<glyph unicode="&#x483;" horiz-adv-x="2048" d="M212 1377q0 46 33 79t79 33h359q-1 7 -1 18q0 46 33 79t79 33t79 -33t33 -79t-33 -79t-79 -33h-359q1 -7 1 -18q0 -46 -33 -79t-79 -33t-79 33t-33 79z" />
<glyph unicode="&#x484;" horiz-adv-x="2048" d="M182 1335v154h124q71 0 190 59t193 59q109 0 179 -77t70 -195h-95q0 55 -36 104.5t-87 49.5q-66 -1 -194.5 -77.5t-219.5 -76.5h-124z" />
<glyph unicode="&#x485;" horiz-adv-x="2048" d="M464 1502v174h191v-184h-95q0 -133 93 -145v-111q-86 21 -139 101q-50 74 -50 165z" />
<glyph unicode="&#x486;" horiz-adv-x="2048" d="M465 1492v184h191v-174q0 -91 -50 -165q-53 -80 -139 -101v111q93 12 93 145h-95z" />
<glyph unicode="&#x487;" horiz-adv-x="1302" d="M222 1309q6 70 28 122.5t56 87t77 52t92 17.5q50 0 87 -9.5t67.5 -24.5t56.5 -31.5t54.5 -31.5t61.5 -24.5t77 -9.5h161v-143h-170q-56 0 -99 10t-78 25t-64 32.5t-56 32.5t-54 25t-58 10q-48 0 -73.5 -37.5t-32.5 -102.5h-133z" />
<glyph unicode="&#x488;" horiz-adv-x="2048" d="M-981 464q0 107 49 171q56 72 162 72q211 0 211 -243h-91q0 149 -120 149t-120 -149h-91zM-861 -92q0 107 49 171q56 72 162 72q211 0 211 -243h-91q0 149 -120 149t-120 -149h-91zM-861 970q0 107 49 171q56 72 162 72q211 0 211 -243h-91q0 149 -120 149t-120 -149h-91 zM-221 -336q0 107 49 171q56 72 162 72q211 0 211 -243h-91q0 149 -120 149t-120 -149h-91zM-221 1214q0 107 49 171q56 72 162 72q211 0 211 -243h-91q0 149 -120 149t-120 -149h-91zM439 -92q0 243 211 243q106 0 162 -72q49 -64 49 -171h-91q0 149 -120 149t-120 -149 h-91zM439 970q0 243 211 243q106 0 162 -72q49 -64 49 -171h-91q0 149 -120 149t-120 -149h-91zM559 464q0 243 211 243q106 0 162 -72q49 -64 49 -171h-91q0 149 -120 149t-120 -149h-91z" />
<glyph unicode="&#x489;" horiz-adv-x="2048" d="M-948 605h89q10 -75 116 -75v76h147v-153h-139q-73 0 -133 40q-63 43 -80 112zM-799 -88l63 63q23 -17 48 -17q41 0 87 46l-54 54l104 104l109 -109l-99 -98q-51 -51 -121 -65q-76 -15 -137 22zM-714 1090q-15 76 22 137l63 -63q-17 -23 -17 -48q0 -41 46 -87l54 54 l104 -104l-109 -109l-98 99q-51 51 -65 121zM-93 -60h153v-139q0 -73 -40 -133q-43 -63 -112 -80v89q75 10 75 116h-76v147zM-93 1188v139q0 73 41.5 134.5t110.5 78.5v-89q-75 -10 -75 -116h76v-147h-153zM442 138l108 108l98 -98q52 -52 66 -122q15 -75 -22 -136l-63 63 q17 23 17 48q0 41 -46 87l-54 -54zM442 1063l98 99q51 51 122 65q75 15 136 -22l-63 -63q-23 17 -48 17q-41 0 -87 -46l54 -54l-104 -104zM596 510v153h139q73 0 133 -40q63 -43 80 -112h-89q-10 75 -116 75v-76h-147z" />
<glyph unicode="&#x48a;" horiz-adv-x="1372" d="M151 0v1489h197v-1163l664 1163h209v-1316h212l-221 -510h-188l161 337h-161v1182l-673 -1182h-200zM335 1935h178q4 -211 192 -211t192 211h178q-4 -165 -106 -252q-96 -82 -264 -82t-264 82q-102 87 -106 252z" />
<glyph unicode="&#x48b;" horiz-adv-x="1154" d="M136 0v1117h186v-820l520 820h176v-955h171l-182 -430h-175l122 268h-122v833l-526 -833h-170zM260 1636h162q0 -254 168 -254q167 0 167 254h162q0 -178 -81 -275q-88 -106 -248 -106t-247 106q-83 101 -83 275z" />
<glyph unicode="&#x48c;" horiz-adv-x="1193" d="M14 1170v143h137v176h198v-176h158v-143h-158v-265h229q152 0 225 -13q118 -21 204 -88q148 -115 148 -343q0 -218 -155.5 -339.5t-427.5 -121.5h-421v1170h-137zM349 169h162q239 0 330 63q107 74 107 225q0 156 -102 224q-59 40 -160 49q-37 4 -170 4h-167v-565z" />
<glyph unicode="&#x48d;" horiz-adv-x="1025" d="M2 1225v132h134v199h188v-199h143v-132h-143v-543h208q121 0 175 -9q88 -16 159 -68q116 -86 116 -259q0 -164 -122 -255t-333 -91h-391v1225h-134zM324 150h136q184 0 250 41q78 48 78 152q0 61 -22 100q-41 72 -148 82q-54 5 -154 5h-140v-380z" />
<glyph unicode="&#x48e;" horiz-adv-x="1129" d="M151 0v1489h374q254 0 389 -93q177 -122 177 -356q0 -200 -128 -329l140 -141l-109 -109l-157 158q-125 -64 -320 -64h-168v-555h-198zM349 724h135q144 0 221 28l-138 138l109 109l153 -154q56 75 56 190q0 156 -107 227q-86 57 -265 57h-164v-595z" />
<glyph unicode="&#x48f;" horiz-adv-x="1132" d="M136 -412v1529h188v-117q164 148 342 148q213 0 320 -182q87 -149 87 -378q0 -274 -129 -439l159 -159l-109 -109l-162 163q-101 -66 -230 -66q-147 0 -278 78v-468h-188zM324 209q127 -62 247 -62q75 0 131 27l-135 136l109 109l139 -140q64 105 64 288q0 402 -259 402 q-144 0 -296 -127v-633z" />
<glyph unicode="&#x490;" horiz-adv-x="1040" d="M151 0v1489h697v410h186v-586h-685v-1313h-198z" />
<glyph unicode="&#x491;" horiz-adv-x="850" d="M136 0v1117h536v369h174v-534h-522v-952h-188z" />
<glyph unicode="&#x492;" horiz-adv-x="1039" d="M35 667v176h116v646h883v-176h-685v-470h519v-176h-519v-667h-198v667h-116z" />
<glyph unicode="&#x493;" horiz-adv-x="850" d="M46 463v165h90v489h710v-165h-522v-324h392v-165h-392v-463h-188v463h-90z" />
<glyph unicode="&#x494;" horiz-adv-x="1167" d="M151 0v1489h883v-176h-685v-615q127 47 240 47q239 0 376 -152q145 -160 145 -434q0 -288 -145 -439q-137 -143 -376 -143q-81 0 -184 29q-34 10 -76 28l-70 31v211h11q145 -136 322 -136q168 0 252 131q71 110 71 288q0 177 -71 289q-85 134 -252 134q-117 0 -243 -77 v-505h-198z" />
<glyph unicode="&#x495;" horiz-adv-x="1044" d="M136 0v1117h710v-165h-522v-223q68 16 142 16q239 0 376 -152q145 -160 145 -434q0 -288 -145 -439q-137 -143 -376 -143q-81 0 -184 29q-34 10 -76 28l-70 31v211h11q145 -136 322 -136q167 0 252 131q71 111 71 288q0 176 -72 289q-85 134 -251 134q-66 0 -145 -29 v-553h-188z" />
<glyph unicode="&#x496;" horiz-adv-x="1898" d="M-14 0l562 768q-137 88 -208 317q-41 132 -81 173q-53 54 -178 54h-40v177h51q172 0 264 -68q89 -67 147 -232l30 -86q13 -38 26 -68q84 -202 253 -218v672h196v-674q181 18 263 220q17 43 56 154q57 164 148.5 232t262.5 68h51v-177h-40q-124 0 -178 -54 q-42 -42 -83 -173q-67 -212 -213 -305l442 -606h141v-511h-188v337h-69l-497 685h-96v-685h-196v685h-98l-496 -685h-232z" />
<glyph unicode="&#x497;" horiz-adv-x="1538" d="M8 0l421 585q-103 54 -155 219q-27 84 -62 115q-40 36 -123 36h-43v162h51q247 0 327 -225q20 -57 46 -116q61 -140 185 -148v489h186v-489q128 10 187 148q29 67 46 116q79 225 325 225h51v-162h-43q-82 0 -123 -36q-36 -32 -62 -115q-50 -156 -150 -213l306 -429h111 v-430h-175v268h-49l-351 514h-73v-514h-186v514h-73l-357 -514h-217z" />
<glyph unicode="&#x498;" horiz-adv-x="1091" d="M31 58v222h14q202 -134 424 -134q175 0 268.5 84t93.5 224q0 144 -105 212q-91 59 -264 59h-156v166h136q143 0 235 51q115 64 115 196q0 107 -90 159q-80 46 -211 46q-116 0 -243 -50q-49 -19 -91 -44l-64 -38h-13v219q183 86 416 86q221 0 350 -83q150 -97 150 -274 q0 -126 -85 -216q-79 -86 -206 -113v-15q216 -39 299 -204q32 -64 32 -167q0 -198 -150 -335q-59 -54 -174 -101q-30 -10 -88 -28q78 -52 78 -167q0 -230 -289 -230q-75 0 -151 21v158h9q52 -30 117 -30q85 0 119.5 25t34.5 86q0 57 -53 94q-46 32 -114 40q-108 12 -158 24 q-120 29 -186 57z" />
<glyph unicode="&#x499;" horiz-adv-x="937" d="M32 64v208h12q147 -136 375 -136q114 0 180 39q85 50 85 148q0 112 -84 151q-58 27 -190 27h-132v162h101q138 0 186 18q95 36 95 145q0 86 -77 126q-59 31 -151 31q-206 0 -333 -105h-12v203q181 63 335 63q165 0 284 -64q146 -79 146 -239q0 -90 -50.5 -159t-137.5 -91 v-7q212 -73 212 -275q0 -94 -41 -159q-52 -83 -143 -125q-54 -25 -142 -45q78 -52 78 -167q0 -230 -289 -230q-75 0 -151 21v158h9q52 -30 117 -30q85 0 119.5 25t34.5 86q0 58 -53 98q-48 35 -114 42q-128 13 -269 81z" />
<glyph unicode="&#x49a;" horiz-adv-x="1298" d="M151 0v1489h198v-671q211 7 297 217q16 40 56 154q57 164 148.5 232t262.5 68h61v-177h-50q-123 0 -178 -55q-43 -42 -83 -172q-63 -203 -215 -302l469 -609h141v-511h-188v337h-70l-526 682h-125v-682h-198z" />
<glyph unicode="&#x49b;" horiz-adv-x="1071" d="M136 0v1117h188v-486q151 2 212 145q8 18 25 58q4 11 21 58q79 225 325 225h51v-162h-43q-82 0 -123 -36q-36 -32 -62 -115q-49 -153 -150 -210l331 -432h111v-430h-175v268h-47l-382 515h-94v-515h-188z" />
<glyph unicode="&#x49c;" horiz-adv-x="1234" d="M151 0v1489h198v-671q70 2 124 24v354h134v-237q32 50 72 162q8 25 23 68q57 164 148.5 232t262.5 68h61v-177h-50q-123 0 -178 -55q-43 -42 -83 -172q-63 -203 -215 -302l604 -783h-252l-393 509v-209h-134v382h-124v-682h-198z" />
<glyph unicode="&#x49d;" horiz-adv-x="1020" d="M136 0v1117h188v-486q53 1 94 16v349h134v-182l9 20q4 10 21 58q79 225 325 225h51v-162h-43q-82 0 -123 -36q-36 -32 -62 -115q-49 -153 -150 -210l455 -594h-234l-249 335v-195h-134v375h-94v-515h-188z" />
<glyph unicode="&#x49e;" horiz-adv-x="1234" d="M24 1100v143h127v246h198v-246h158v-143h-158v-282q211 7 297 217q16 40 56 154q57 164 148.5 232t262.5 68h61v-177h-50q-123 0 -178 -55q-43 -42 -83 -172q-63 -203 -215 -302l604 -783h-252l-526 682h-125v-682h-198v1100h-127z" />
<glyph unicode="&#x49f;" horiz-adv-x="1020" d="M12 1268v134h124v154h188v-154h343v-134h-343v-637q151 2 212 145q8 18 25 58q4 11 21 58q79 225 325 225h51v-162h-43q-82 0 -123 -36q-36 -32 -62 -115q-49 -153 -150 -210l455 -594h-234l-383 515h-94v-515h-188v1268h-124z" />
<glyph unicode="&#x4a0;" horiz-adv-x="1471" d="M0 1313v176h586v-671q211 7 297 217q16 40 56 154q57 164 148.5 232t262.5 68h61v-177h-50q-123 0 -178 -55q-43 -42 -83 -172q-63 -203 -215 -302l604 -783h-252l-526 682h-125v-682h-198v1313h-388z" />
<glyph unicode="&#x4a1;" horiz-adv-x="1168" d="M0 952v165h472v-486q151 2 212 145q8 18 25 58q4 11 21 58q79 225 325 225h51v-162h-43q-82 0 -123 -36q-36 -32 -62 -115q-49 -153 -150 -210l455 -594h-234l-383 515h-94v-515h-188v952h-284z" />
<glyph unicode="&#x4a2;" horiz-adv-x="1413" d="M151 0v1489h198v-584h685v584h198v-1316h141v-510h-188v337h-151v729h-685v-729h-198z" />
<glyph unicode="&#x4a3;" horiz-adv-x="1178" d="M136 0v1117h188v-452h506v452h188v-955h111v-430h-175v268h-124v503h-506v-503h-188z" />
<glyph unicode="&#x4a4;" horiz-adv-x="1620" d="M151 0v1489h198v-584h685v584h586v-176h-388v-1313h-198v729h-685v-729h-198z" />
<glyph unicode="&#x4a5;" horiz-adv-x="1302" d="M136 0v1117h188v-452h506v452h472v-165h-284v-952h-188v503h-506v-503h-188z" />
<glyph unicode="&#x4a6;" horiz-adv-x="2049" d="M151 0v1489h1081v-791q128 47 239 47q239 0 376 -152q145 -160 145 -434q0 -288 -145 -439q-137 -143 -376 -143q-81 0 -184 29q-34 10 -76 28l-70 31v211h11q145 -136 322 -136q168 0 252 131q71 110 71 288q0 177 -71 289q-85 134 -252 134q-117 0 -242 -76v-506h-198 v1313h-685v-1313h-198z" />
<glyph unicode="&#x4a7;" horiz-adv-x="1737" d="M136 0v1117h882v-388q68 16 141 16q239 0 376 -152q145 -160 145 -434q0 -288 -145 -439q-137 -143 -375 -143q-81 0 -184 29q-34 10 -76 28l-70 31v211h11q145 -136 322 -136q150 0 236 111t86 308q0 176 -72 289q-85 134 -251 134q-64 0 -144 -29v-553h-188v955h-506 v-955h-188z" />
<glyph unicode="&#x4a8;" horiz-adv-x="1513" d="M66 744q0 180 47.5 323.5t136.5 244t217 154.5t290 54q59 0 114 -5.5t106 -19.5v-189h-9q-54 22 -102.5 32.5t-107.5 10.5q-113 0 -203 -40.5t-153 -117.5t-96.5 -189.5t-33.5 -257.5q0 -146 34.5 -258.5t97.5 -189.5t153 -116.5t201 -39.5q31 0 61 3q-80 91 -128.5 220 t-48.5 302q0 130 34 220t90.5 146t128.5 81t148 25t149 -21t130 -72.5t92 -139.5t35 -221q0 -97 -19 -183t-54 -159.5t-84.5 -133.5t-111.5 -106q32 -16 77 -26.5t98 -10.5q44 0 78 5.5t70 14.5h10v-172q-40 -5 -85 -8t-93 -3q-83 0 -172.5 24.5t-173.5 77.5 q-54 -17 -112 -25.5t-120 -8.5q-158 0 -285.5 51.5t-217.5 150.5t-139 243t-49 330zM848 665q0 -149 44 -264.5t123 -193.5q109 66 168 188.5t60 287.5q0 136 -47.5 209.5t-149.5 73.5q-51 0 -88 -21t-61.5 -60.5t-36.5 -95t-12 -124.5z" />
<glyph unicode="&#x4a9;" horiz-adv-x="1164" d="M57 558q0 136 37.5 245.5t106.5 186t167 117.5t219 41q55 0 105.5 -6t96.5 -20v-193h-10q-47 30 -91.5 43.5t-101.5 13.5q-159 0 -247 -105.5t-88 -322.5q0 -201 80.5 -308t229.5 -118q-44 66 -68 149.5t-24 186.5q0 97 27 165.5t71 112t101.5 63t118.5 19.5t118.5 -19 t102 -60t71.5 -107t27 -159q0 -131 -49.5 -237t-140.5 -175q33 -11 66.5 -15.5t71.5 -4.5q52 0 100 13h10v-166q-29 -5 -55 -7t-55 -2q-53 0 -98 5t-85.5 16.5t-78.5 29t-78 42.5q-29 -6 -58.5 -9.5t-62.5 -3.5q-123 0 -222 41t-169 117.5t-107.5 185.5t-37.5 245zM663 471 q0 -88 24.5 -165t75.5 -135q72 42 110.5 120.5t38.5 191.5q0 183 -124 183q-63 0 -94 -49t-31 -146z" />
<glyph unicode="&#x4aa;" horiz-adv-x="1230" d="M66 743q0 358 186 568q182 205 484 205q135 0 262 -39q91 -28 198 -87v-239h-16q-143 132 -291 176q-67 20 -155 20q-200 0 -329 -154q-133 -159 -133 -450q0 -286 138 -450q125 -149 324 -149q157 0 289 74q89 50 158 119h15v-236q-29 -14 -92 -44q-81 -37 -179 -57 q27 -18 56 -63q41 -62 41 -124q0 -230 -289 -230q-75 0 -151 21v158h9q52 -30 117 -30q85 0 119.5 25t34.5 86q0 108 -167 134q-81 10 -230 45q-118 44 -212 146q-187 204 -187 575z" />
<glyph unicode="&#x4ab;" horiz-adv-x="945" d="M59 557q0 274 145 434q137 152 376 152q161 0 330 -86v-211h-11q-55 46 -128 84q-98 50 -194 50q-166 0 -251 -134q-72 -113 -72 -289q0 -177 71 -288q85 -131 252 -131q177 0 322 136h11v-211q-7 -3 -70 -31q-25 -11 -100 -32q27 -18 56 -63q41 -62 41 -124 q0 -230 -289 -230q-75 0 -151 21v158h9q52 -30 117 -30q85 0 119.5 25t34.5 86q0 109 -167 134q-82 13 -141 34q-197 72 -272 289q-38 110 -38 257z" />
<glyph unicode="&#x4ac;" horiz-adv-x="1196" d="M-1 1313v176h1198v-176h-500v-1140h136v-510h-188v337h-146v1313h-500z" />
<glyph unicode="&#x4ad;" horiz-adv-x="956" d="M4 952v165h948v-165h-380v-790h107v-430h-175v268h-120v952h-380z" />
<glyph unicode="&#x4ae;" horiz-adv-x="1180" d="M-11 1489h220l384 -657l390 657h210l-503 -830v-659h-198v638z" />
<glyph unicode="&#x4af;" horiz-adv-x="1020" d="M6 1117h203l305 -827l304 827h196l-416 -1063v-466h-186v466z" />
<glyph unicode="&#x4b0;" horiz-adv-x="1180" d="M-11 1489h220l384 -657l390 657h210l-503 -826h390v-138h-390v-525h-198v525h-392v138h392z" />
<glyph unicode="&#x4b1;" horiz-adv-x="1020" d="M6 1117h203l305 -827l304 827h196l-416 -1057h322v-138h-322v-334h-186v334h-312v138h312z" />
<glyph unicode="&#x4b2;" horiz-adv-x="1256" d="M8 0l473 745l-459 744h226l356 -585l361 585h215l-466 -734l361 -582h141v-510h-188v337h-75l-362 596l-369 -596h-214z" />
<glyph unicode="&#x4b3;" horiz-adv-x="1054" d="M10 0l388 554l-384 563h231l269 -418l276 418h214l-386 -550l276 -405h111v-430h-175v268h-56l-272 422l-279 -422h-213z" />
<glyph unicode="&#x4b4;" horiz-adv-x="1662" d="M0 1313v176h1018v-176h-410v-1139h675v1315h198v-1315h141v-511h-188v337h-1024v1313h-410z" />
<glyph unicode="&#x4b5;" horiz-adv-x="1337" d="M0 952v165h788v-165h-298v-790h499v955h188v-955h111v-430h-175v268h-811v952h-302z" />
<glyph unicode="&#x4b6;" horiz-adv-x="1302" d="M93 977v512h198v-413q0 -182 47 -253q60 -91 238 -91q194 0 377 68v689h198v-1315h132v-511h-188v337h-142v630q-244 -80 -416 -80q-202 0 -317 99q-127 109 -127 328z" />
<glyph unicode="&#x4b7;" horiz-adv-x="1112" d="M96 716v401h188v-303q0 -143 39 -202q48 -73 192 -73q136 0 273 44v534h188v-955h108v-430h-175v268h-121v436q-185 -61 -335 -61q-163 0 -255 79q-102 87 -102 262z" />
<glyph unicode="&#x4b8;" horiz-adv-x="1302" d="M93 977v512h198v-413q0 -182 47 -253q55 -83 206 -90v379h134v-374q34 4 90 14q110 20 185 48v689h198v-1489h-198v630q-122 -40 -217 -60q-25 -5 -58 -10v-296h-134v286h-7q-202 0 -317 99q-127 109 -127 328z" />
<glyph unicode="&#x4b9;" horiz-adv-x="1112" d="M96 716v401h188v-303q0 -143 39.5 -203t145.5 -70v294h134v-291q23 3 54 8q74 13 131 31v534h188v-1117h-188v436q-93 -31 -171 -45l-14 -3v-208h-134v195h-16q-161 -2 -255 79q-102 87 -102 262z" />
<glyph unicode="&#x4ba;" horiz-adv-x="1302" d="M151 0v1489h198v-630q244 80 416 80q202 0 317 -99q127 -109 127 -328v-512h-198v413q0 182 -47 253q-60 91 -238 91q-194 0 -377 -68v-689h-198z" />
<glyph unicode="&#x4bb;" horiz-adv-x="1142" d="M136 0v1556h188v-563q84 75 166 115t173 40q165 0 258 -108.5t93 -314.5v-725h-188v636q0 77 -7.5 143.5t-28.5 106.5q-23 42 -64 62.5t-112 20.5q-70 0 -144.5 -37.5t-145.5 -97.5v-834h-188z" />
<glyph unicode="&#x4bc;" horiz-adv-x="1689" d="M0 860q0 80 24 167h170v-9q-34 -65 -34 -140q0 -96 146 -100q8 344 179 539q178 203 480 203q304 0 480 -203q116 -134 154 -341q24 -129 24 -379h-1102q28 -208 137 -327q120 -130 318 -130q300 0 505 145h15v-220q-207 -96 -520 -96q-292 0 -467 181q-159 165 -194 447 q-146 3 -229 66q-86 66 -86 197zM512 776h905q-6 242 -106 393q-119 180 -347 180q-229 0 -347 -180q-99 -150 -105 -393z" />
<glyph unicode="&#x4bd;" horiz-adv-x="1290" d="M0 774q0 80 24 167h150v-9q-34 -65 -34 -150q0 -97 140 -99q27 183 134 304q143 161 374 161q208 0 324 -124q124 -132 124 -383v-102h-774q0 -185 91 -290q96 -111 278 -111q119 0 229 50q91 42 144 85h11v-205l-82 -32q-97 -38 -187 -54q-45 -8 -113 -8 q-266 0 -412.5 149t-149.5 416q-135 3 -196 47q-75 55 -75 188zM462 683h591q-4 164 -79 241q-67 69 -197 69q-137 0 -223 -88q-80 -82 -92 -222z" />
<glyph unicode="&#x4be;" horiz-adv-x="1689" d="M0 860q0 80 24 167h170v-9q-34 -65 -34 -140q0 -96 146 -100q8 344 179 539q178 203 480 203q304 0 480 -203q116 -134 154 -341q24 -129 24 -379h-1102q28 -208 137 -327q120 -130 318 -130q300 0 505 145h15v-220q-207 -96 -520 -96q-292 0 -467 181q-159 165 -194 447 q-146 3 -229 66q-86 66 -86 197zM512 776h905q-6 242 -106 393q-119 180 -347 180q-229 0 -347 -180q-99 -150 -105 -393zM945 0h187v-337h-187v337z" />
<glyph unicode="&#x4bf;" horiz-adv-x="1290" d="M0 774q0 80 24 167h150v-9q-34 -65 -34 -150q0 -97 140 -99q27 183 134 304q143 161 374 161q208 0 324 -124q124 -132 124 -383v-102h-774q0 -185 91 -290q96 -111 278 -111q119 0 229 50q91 42 144 85h11v-205l-82 -32q-97 -38 -187 -54q-45 -8 -113 -8 q-266 0 -412.5 149t-149.5 416q-135 3 -196 47q-75 55 -75 188zM462 683h591q-4 164 -79 241q-67 69 -197 69q-137 0 -223 -88q-80 -82 -92 -222zM728 0h174v-268h-174v268z" />
<glyph unicode="&#x4c0;" horiz-adv-x="764" d="M93 0v152h190v1185h-190v152h578v-152h-190v-1185h190v-152h-578z" />
<glyph unicode="&#x4c1;" horiz-adv-x="1831" d="M-14 0l562 768q-65 42 -113.5 106t-94.5 211q-40 129 -85.5 178t-173.5 49h-40v177h51q167 0 258.5 -64t152.5 -236q15 -44 30 -86t26 -68q44 -107 105.5 -158.5t147.5 -59.5v672h196v-674q92 9 154.5 58.5t108.5 161.5q18 45 32.5 85.5t23.5 68.5q60 171 153 235.5 t258 64.5h51v-177h-40q-128 0 -174.5 -49.5t-86.5 -177.5q-42 -133 -96 -199t-117 -106l569 -780h-244l-496 685h-96v-685h-196v685h-98l-496 -685h-232zM580 2009h162q0 -135 42 -194.5t126 -59.5q79 0 123 58.5t44 195.5h162q0 -86 -21 -156.5t-60 -118.5 q-45 -53 -102 -79.5t-146 -26.5q-82 0 -143.5 27.5t-103.5 78.5q-41 50 -62 120t-21 155z" />
<glyph unicode="&#x4c2;" horiz-adv-x="1496" d="M8 0l421 585q-49 26 -87 75.5t-68 143.5q-27 85 -64 118t-121 33h-43v162h51q123 0 202.5 -50t124.5 -175q9 -26 22.5 -59.5t23.5 -56.5q33 -76 77 -110t108 -38v489h186v-489q64 5 109.5 39t77.5 109q11 25 24.5 58t21.5 58q44 123 122 174t203 51h51v-162h-43 q-79 0 -118.5 -32.5t-66.5 -118.5q-28 -87 -66 -137t-84 -76l420 -591h-227l-351 514h-73v-514h-186v514h-73l-357 -514h-217zM420 1636h162q0 -135 42 -194.5t126 -59.5q79 0 123 58.5t44 195.5h162q0 -86 -21 -156.5t-60 -118.5q-45 -53 -102 -79.5t-146 -26.5 q-82 0 -143.5 27.5t-103.5 78.5q-41 50 -62 120t-21 155z" />
<glyph unicode="&#x4c3;" horiz-adv-x="1234" d="M151 0v1489h198v-671q211 7 297 217q16 40 56 154q57 164 148.5 232t262.5 68h61v-177h-50q-123 0 -178 -55q-43 -42 -83.5 -172.5t-91.5 -192.5q-47 -57 -92 -74q253 0 394 -190q127 -170 127 -429q0 -273 -129 -441q-140 -181 -392 -181q-140 0 -330 88v211h11 q145 -136 322 -136q166 0 252 151q71 124 71 308q0 182 -71 306q-86 150 -252 150h-333v-655h-198z" />
<glyph unicode="&#x4c4;" horiz-adv-x="1020" d="M136 0v1117h188v-486q151 2 212 145q8 18 25 58q4 11 21 58q79 225 325 225h51v-162h-43q-82 0 -123 -36q-36 -32 -62 -115q-47 -147 -117 -187q148 0 257 -134q117 -146 117 -374q0 -532 -521 -532q-140 0 -330 88v211h11q145 -136 322 -136q323 0 323 369 q0 360 -323 360h-145v-469h-188z" />
<glyph unicode="&#x4c5;" horiz-adv-x="1388" d="M15 0v192h14q30 -3 38 -3q75 0 120 45q87 87 121 382q14 132 23 318q6 133 10 259l9 296h887v-1316h212l-221 -510h-188l161 337h-162v1313h-502q-5 -138 -16 -413q-15 -391 -71 -580q-46 -154 -143 -241q-91 -82 -216 -82q-13 0 -38 1.5t-38 1.5z" />
<glyph unicode="&#x4c6;" horiz-adv-x="1137" d="M15 0v164h10q5 0 16 -1t16 -1q55 0 88 33q86 86 106 514q3 60 8 194l6 214h736v-955h171l-182 -430h-175l122 268h-124v959h-384l-6 -159q-2 -49 -6 -139q-12 -301 -57 -433q-36 -105 -108 -170q-67 -60 -161 -60q-13 0 -38 1t-38 1z" />
<glyph unicode="&#x4c7;" horiz-adv-x="1383" d="M151 0v1489h198v-584h685v584h198v-1505q0 -197 -123 -305q-116 -102 -317 -102q-133 0 -263 29v189h11q141 -48 225 -48q173 0 227 81q42 63 42 230v671h-685v-729h-198z" />
<glyph unicode="&#x4c8;" horiz-adv-x="1153" d="M136 0v1117h188v-452h506v452h188v-1134q0 -221 -83 -307q-95 -99 -357 -99q-124 0 -254 29v189h11q141 -48 216 -48q172 0 229 72q50 62 50 239v445h-506v-503h-188z" />
<glyph unicode="&#x4c9;" horiz-adv-x="1383" d="M151 0v1489h198v-584h685v584h198v-1316h212l-221 -510h-188l161 337h-162v729h-685v-729h-198z" />
<glyph unicode="&#x4ca;" horiz-adv-x="1153" d="M136 0v1117h188v-452h506v452h188v-955h171l-182 -430h-175l122 268h-124v503h-506v-503h-188z" />
<glyph unicode="&#x4cb;" horiz-adv-x="1302" d="M93 977v512h198v-413q0 -182 47 -253q60 -91 238 -91q194 0 377 68v689h198v-1489h-142v-337h-188v511h132v456q-244 -80 -416 -80q-202 0 -317 99q-127 109 -127 328z" />
<glyph unicode="&#x4cc;" horiz-adv-x="1112" d="M96 716v401h188v-303q0 -143 39 -202q48 -73 192 -73q136 0 273 44v534h188v-1117h-121v-268h-175v430h108v274q-185 -61 -335 -61q-163 0 -255 79q-102 87 -102 262z" />
<glyph unicode="&#x4cd;" horiz-adv-x="1578" d="M151 0v1489h270l372 -829l359 829h275v-1316h212l-221 -510h-188l161 337h-162v1283l-388 -873h-120l-385 873v-1283h-185z" />
<glyph unicode="&#x4ce;" horiz-adv-x="1308" d="M136 0v1117h227l294 -620l284 620h231v-955h171l-182 -430h-175l122 268h-122v878l-268 -570h-140l-266 570v-878h-176z" />
<glyph unicode="&#x4cf;" horiz-adv-x="468" d="M140 0v1556h188v-1556h-188z" />
<glyph unicode="&#x4d0;" horiz-adv-x="1228" d="M-10 0l502 1489h244l502 -1489h-209l-135 416h-569l-135 -416h-200zM284 2009h162q0 -135 42 -194.5t126 -59.5q79 0 123 58.5t44 195.5h162q0 -86 -21 -156.5t-60 -118.5q-45 -53 -102 -79.5t-146 -26.5q-82 0 -143.5 27.5t-103.5 78.5q-41 50 -62 120t-21 155zM380 585 h459l-230 702z" />
<glyph unicode="&#x4d1;" horiz-adv-x="1075" d="M58 324q0 116 49 197.5t155 129.5q94 43 222 59.5t276 24.5v36q0 66 -20 106.5t-56 62.5q-36 23 -88 30.5t-107 7.5q-65 0 -153 -19.5t-176 -56.5h-11v191q52 15 149 33t192 18q115 0 194 -18t142 -65q61 -46 91 -119t30 -178v-764h-187v119q-23 -17 -61.5 -47.5 t-74.5 -48.5q-50 -26 -96.5 -40t-130.5 -14q-69 0 -131 26t-109 73q-45 46 -72 113.5t-27 142.5zM193 1636h162q0 -135 42 -194.5t126 -59.5q79 0 123 58.5t44 195.5h162q0 -86 -21 -156.5t-60 -118.5q-45 -53 -102 -79.5t-146 -26.5q-82 0 -143.5 27.5t-103.5 78.5 q-41 50 -62 120t-21 155zM252 336q0 -96 54 -145t158 -49q89 0 161 38.5t135 94.5v310q-67 -6 -169.5 -16.5t-165.5 -29.5q-75 -23 -124 -70.5t-49 -132.5z" />
<glyph unicode="&#x4d2;" horiz-adv-x="1228" d="M-10 0l502 1489h244l502 -1489h-209l-135 416h-569l-135 -416h-200zM299 1657v195h201v-195h-201zM380 585h459l-230 702zM712 1657v195h201v-195h-201z" />
<glyph unicode="&#x4d3;" horiz-adv-x="1075" d="M58 324q0 116 49 197.5t155 129.5q94 43 222 59.5t276 24.5v36q0 66 -20 106.5t-56 62.5q-36 23 -88 30.5t-107 7.5q-65 0 -153 -19.5t-176 -56.5h-11v191q52 15 149 33t192 18q115 0 194 -18t142 -65q61 -46 91 -119t30 -178v-764h-187v119q-23 -17 -61.5 -47.5 t-74.5 -48.5q-50 -26 -96.5 -40t-130.5 -14q-69 0 -131 26t-109 73q-45 46 -72 113.5t-27 142.5zM221 1304v195h201v-195h-201zM252 336q0 -96 54 -145t158 -49q89 0 161 38.5t135 94.5v310q-67 -6 -169.5 -16.5t-165.5 -29.5q-75 -23 -124 -70.5t-49 -132.5zM634 1304v195 h201v-195h-201z" />
<glyph unicode="&#x4d4;" horiz-adv-x="1870" d="M-39 0l603 1489h1238v-176h-716v-408h666v-176h-666v-553h716v-176h-912v557h-505l-217 -557h-207zM451 723h439v601h-194z" />
<glyph unicode="&#x4d5;" horiz-adv-x="1802" d="M58 317q0 129 53 204t150 117q92 39 231.5 52t293.5 16v58q0 65 -21.5 108t-60.5 67q-36 22 -87.5 31.5t-116.5 9.5q-81 0 -176.5 -26.5t-152.5 -51.5h-15v191q49 14 151.5 33.5t193.5 19.5q160 0 260 -48t153 -136q66 81 165 133.5t217 52.5q224 0 338.5 -134.5 t114.5 -372.5v-82h-788q0 -114 30 -195.5t83 -132.5q53 -50 120 -71.5t146 -21.5q65 0 125.5 14.5t106.5 35.5q51 23 86 44.5t58 40.5h11v-205l-83 -32l-88 -31q-55 -15 -99.5 -23t-114.5 -8q-161 0 -276 52t-189 155q-21 -19 -64.5 -59.5t-91.5 -68.5q-65 -38 -134.5 -60 t-179.5 -22q-146 0 -247.5 97t-101.5 249zM251 330q0 -95 56 -141.5t167 -46.5q91 0 184 44t159 112q-19 54 -29 119.5t-10 140.5q-95 -3 -189.5 -8.5t-169.5 -26.5q-74 -20 -121 -66t-47 -127zM964 703h603q-5 59 -20.5 112.5t-47.5 92.5q-31 38 -85 61.5t-127 23.5 q-78 0 -129.5 -21.5t-94.5 -62.5q-40 -38 -64.5 -92.5t-34.5 -113.5z" />
<glyph unicode="&#x4d6;" horiz-adv-x="1149" d="M151 0v1489h931v-176h-733v-408h683v-176h-683v-553h733v-176h-931zM286 2009h162q0 -135 42 -194.5t126 -59.5q79 0 123 58.5t44 195.5h162q0 -86 -21 -156.5t-60 -118.5q-45 -53 -102 -79.5t-146 -26.5q-82 0 -143.5 27.5t-103.5 78.5q-41 50 -62 120t-21 155z" />
<glyph unicode="&#x4d7;" horiz-adv-x="1078" d="M59 552q0 273 143 434.5t374 161.5q104 0 184 -30t140 -94t92 -156.5t32 -226.5v-102h-774q0 -195 98 -298t271 -103q62 0 121.5 14t107.5 36q51 23 86 44.5t58 40.5h11v-205q-33 -13 -82 -32.5t-88 -30.5q-55 -15 -99.5 -23t-112.5 -8q-267 0 -414.5 150.5t-147.5 427.5 zM243 1636h162q0 -135 42 -194.5t126 -59.5q79 0 123 58.5t44 195.5h162q0 -86 -21 -156.5t-60 -118.5q-45 -53 -102 -79.5t-146 -26.5q-82 0 -143.5 27.5t-103.5 78.5q-41 50 -62 120t-21 155zM250 683h591q-2 76 -18 131t-46 93q-33 42 -84.5 64t-127.5 22 q-75 0 -127.5 -22.5t-95.5 -65.5q-42 -44 -64 -97.5t-28 -124.5z" />
<glyph unicode="&#x4d8;" horiz-adv-x="1449" d="M66 892h1102q-25 188 -113 303q-60 78 -142 116t-190 38q-247 0 -415 -145h-15v220q82 38 197 65q131 31 233 31q305 0 481 -202q179 -205 179 -574q0 -368 -178.5 -571.5t-480.5 -203.5q-304 0 -480 203q-86 100 -132 244.5t-46 475.5zM272 713q6 -242 106 -393 q119 -180 347 -180t347 180q99 150 105 393h-905z" />
<glyph unicode="&#x4d9;" horiz-adv-x="1078" d="M54 481v102h774q0 185 -91 290q-96 111 -278 111q-119 0 -229 -50q-91 -42 -144 -85h-11v205q56 23 170 63q112 31 212 31q273 0 419 -153q143 -151 143 -425q0 -254 -129 -418q-140 -178 -388 -178q-208 0 -324 124q-124 132 -124 383zM237 439q4 -148 64 -224 q68 -86 212 -86q137 0 223 88q80 82 92 222h-591z" />
<glyph unicode="&#x4da;" horiz-adv-x="1449" d="M66 892h1102q-25 188 -113 303q-60 78 -142 116t-190 38q-247 0 -415 -145h-15v220q82 38 197 65q131 31 233 31q305 0 481 -202q179 -205 179 -574q0 -368 -178.5 -571.5t-480.5 -203.5q-304 0 -480 203q-86 100 -132 244.5t-46 475.5zM272 713q6 -242 106 -393 q119 -180 347 -180t347 180q99 150 105 393h-905zM419 1657v195h201v-195h-201zM832 1657v195h201v-195h-201z" />
<glyph unicode="&#x4db;" horiz-adv-x="1078" d="M54 481v102h774q0 185 -91 290q-96 111 -278 111q-119 0 -229 -50q-91 -42 -144 -85h-11v205q56 23 170 63q112 31 212 31q273 0 419 -153q143 -151 143 -425q0 -254 -129 -418q-140 -178 -388 -178q-208 0 -324 124q-124 132 -124 383zM191 1304v195h201v-195h-201z M237 439q4 -148 64 -224q68 -86 212 -86q137 0 223 88q80 82 92 222h-591zM604 1304v195h201v-195h-201z" />
<glyph unicode="&#x4dc;" horiz-adv-x="1831" d="M-14 0l562 768q-65 42 -113.5 106t-94.5 211q-40 129 -85.5 178t-173.5 49h-40v177h51q167 0 258.5 -64t152.5 -236q15 -44 30 -86t26 -68q44 -107 105.5 -158.5t147.5 -59.5v672h196v-674q92 9 154.5 58.5t108.5 161.5q18 45 32.5 85.5t23.5 68.5q60 171 153 235.5 t258 64.5h51v-177h-40q-128 0 -174.5 -49.5t-86.5 -177.5q-42 -133 -96 -199t-117 -106l569 -780h-244l-496 685h-96v-685h-196v685h-98l-496 -685h-232zM599 1657v195h201v-195h-201zM1012 1657v195h201v-195h-201z" />
<glyph unicode="&#x4dd;" horiz-adv-x="1496" d="M8 0l421 585q-49 26 -87 75.5t-68 143.5q-27 85 -64 118t-121 33h-43v162h51q123 0 202.5 -50t124.5 -175q9 -26 22.5 -59.5t23.5 -56.5q33 -76 77 -110t108 -38v489h186v-489q64 5 109.5 39t77.5 109q11 25 24.5 58t21.5 58q44 123 122 174t203 51h51v-162h-43 q-79 0 -118.5 -32.5t-66.5 -118.5q-28 -87 -66 -137t-84 -76l420 -591h-227l-351 514h-73v-514h-186v514h-73l-357 -514h-217zM443 1304v195h201v-195h-201zM856 1304v195h201v-195h-201z" />
<glyph unicode="&#x4de;" horiz-adv-x="1091" d="M31 58v222h14q80 -53 194.5 -93.5t229.5 -40.5q73 0 145.5 19.5t121.5 63.5t72 95.5t23 129.5q0 76 -27.5 128t-77.5 84q-49 32 -117.5 45.5t-146.5 13.5h-156v166h136q158 0 254 63t96 184q0 55 -23.5 94.5t-66.5 64.5q-47 27 -98.5 36.5t-112.5 9.5q-64 0 -126 -14.5 t-117 -35.5q-52 -21 -91 -44t-64 -38h-13v219q68 32 185 59t231 27q115 0 198 -19.5t152 -63.5q75 -49 112.5 -115.5t37.5 -158.5q0 -121 -80.5 -211t-210.5 -118v-15q50 -9 108.5 -32t107.5 -65q50 -43 82.5 -107.5t32.5 -166.5q0 -100 -40 -185.5t-110 -149.5 q-72 -66 -178 -101t-236 -35q-139 0 -255 27.5t-186 57.5zM233 1657v195h201v-195h-201zM646 1657v195h201v-195h-201z" />
<glyph unicode="&#x4df;" horiz-adv-x="937" d="M32 64v208h12q68 -63 170.5 -99.5t204.5 -36.5q44 0 94.5 9.5t85.5 29.5q46 28 65.5 60t19.5 88q0 60 -22.5 96.5t-61.5 54.5t-87.5 22.5t-102.5 4.5h-132v162h101q38 0 95 2.5t91 15.5q43 16 69 45.5t26 99.5q0 49 -22 79t-55 47q-34 18 -74 24.5t-77 6.5 q-95 0 -182.5 -26.5t-150.5 -78.5h-12v203q72 25 159.5 44t175.5 19q71 0 144.5 -14.5t139.5 -49.5q62 -34 104 -93.5t42 -145.5q0 -91 -51.5 -159.5t-136.5 -90.5v-7q93 -32 152.5 -98t59.5 -177q0 -94 -41 -159t-105 -103q-61 -37 -139 -55t-156 -18q-110 0 -208 21.5 t-195 68.5zM173 1304v195h201v-195h-201zM586 1304v195h201v-195h-201z" />
<glyph unicode="&#x4e0;" horiz-adv-x="1091" d="M31 58v222h14q202 -134 424 -134q162 0 257 74q105 82 105 234q0 271 -369 271h-103v166l431 422h-710v176h956v-179l-405 -404v-15q171 -21 280 -128q125 -122 125 -319q0 -227 -176 -356q-157 -115 -388 -115q-243 0 -441 85z" />
<glyph unicode="&#x4e1;" horiz-adv-x="910" d="M10 -124h11q145 -136 322 -136q323 0 323 379q0 165 -87 269q-95 115 -266 115v42l311 417h-560v155h786v-134l-282 -377q96 -42 170 -128q123 -144 123 -359q0 -542 -521 -542q-140 0 -330 88v211z" />
<glyph unicode="&#x4e2;" horiz-adv-x="1372" d="M151 0v1489h197v-1163l664 1163h209v-1489h-197v1182l-673 -1182h-200zM322 1698v154h754v-154h-754z" />
<glyph unicode="&#x4e3;" horiz-adv-x="1154" d="M136 0v1117h186v-820l520 820h176v-1117h-186v833l-526 -833h-170zM202 1335v154h754v-154h-754z" />
<glyph unicode="&#x4e4;" horiz-adv-x="1372" d="M151 0v1489h197v-1163l664 1163h209v-1489h-197v1182l-673 -1182h-200zM399 1657v195h201v-195h-201zM812 1657v195h201v-195h-201z" />
<glyph unicode="&#x4e5;" horiz-adv-x="1154" d="M136 0v1117h186v-820l520 820h176v-1117h-186v833l-526 -833h-170zM273 1304v195h201v-195h-201zM686 1304v195h201v-195h-201z" />
<glyph unicode="&#x4e6;" horiz-adv-x="1449" d="M66 744q0 188 46.5 330t132.5 244q86 99 207.5 150.5t271.5 51.5q152 0 274 -53t206 -149q85 -98 132 -243t47 -331q0 -181 -46 -327t-133 -245q-91 -104 -212.5 -153.5t-267.5 -49.5q-151 0 -272 51t-208 152q-86 99 -132 244t-46 328zM272 744q0 -293 123 -448.5 t330 -155.5t329.5 155.5t122.5 448.5q0 148 -32 262t-90 189q-59 77 -142.5 115.5t-187.5 38.5q-108 0 -188.5 -37.5t-142.5 -116.5q-59 -76 -90.5 -191t-31.5 -260zM413 1677v195h201v-195h-201zM826 1677v195h201v-195h-201z" />
<glyph unicode="&#x4e7;" horiz-adv-x="1112" d="M57 558q0 280 137.5 435t362.5 155q226 0 362 -154.5t136 -435.5q0 -282 -136 -435.5t-362 -153.5q-233 0 -366.5 158.5t-133.5 430.5zM250 1304v195h201v-195h-201zM251 558q0 -210 79.5 -318.5t226.5 -108.5q145 0 224.5 106.5t79.5 320.5q0 217 -79 322.5t-225 105.5 q-147 0 -226.5 -105.5t-79.5 -322.5zM663 1304v195h201v-195h-201z" />
<glyph unicode="&#x4e8;" horiz-adv-x="1449" d="M66 744q0 365 179 574q173 202 479 202q304 0 480 -202q179 -205 179 -574q0 -368 -178.5 -571.5t-480.5 -203.5q-304 0 -481 204.5t-177 570.5zM272 713q6 -242 106 -393q119 -180 347 -180t347 180q99 150 105 393h-905zM281 892h887q-25 188 -113 303 q-119 154 -330 154t-331 -154q-88 -112 -113 -303z" />
<glyph unicode="&#x4e9;" horiz-adv-x="1112" d="M57 558q0 255 120 414q134 176 380 176q248 0 380 -176q118 -157 118 -414q0 -256 -118 -414q-132 -175 -380 -175q-247 0 -380 176q-120 158 -120 413zM251 539q7 -408 306 -408q297 0 304 408h-610zM259 683h594q-41 303 -296 303q-257 0 -298 -303z" />
<glyph unicode="&#x4ea;" horiz-adv-x="1449" d="M66 744q0 365 179 574q173 202 479 202q304 0 480 -202q179 -205 179 -574q0 -368 -178.5 -571.5t-480.5 -203.5q-304 0 -481 204.5t-177 570.5zM272 713q6 -242 106 -393q119 -180 347 -180t347 180q99 150 105 393h-905zM281 892h887q-25 188 -113 303 q-119 154 -330 154t-331 -154q-88 -112 -113 -303zM413 1677v195h201v-195h-201zM826 1677v195h201v-195h-201z" />
<glyph unicode="&#x4eb;" horiz-adv-x="1112" d="M57 558q0 255 120 414q134 176 380 176q248 0 380 -176q118 -157 118 -414q0 -256 -118 -414q-132 -175 -380 -175q-247 0 -380 176q-120 158 -120 413zM250 1304v195h201v-195h-201zM251 539q7 -408 306 -408q297 0 304 408h-610zM259 683h594q-41 303 -296 303 q-257 0 -298 -303zM663 1304v195h201v-195h-201z" />
<glyph unicode="&#x4ec;" horiz-adv-x="1228" d="M43 64v219h15q72 -65 183 -103.5t237 -38.5q215 0 350 157t135 414h-726v173h716q-23 216 -149.5 339.5t-325.5 123.5q-123 0 -230 -38t-186 -106h-15v220q80 37 196.5 64.5t242.5 27.5q322 0 499 -199.5t177 -566.5q0 -355 -187.5 -566t-490.5 -211q-128 0 -241.5 25.5 t-199.5 65.5zM233 1657v195h201v-195h-201zM646 1657v195h201v-195h-201z" />
<glyph unicode="&#x4ed;" horiz-adv-x="965" d="M42 50v206h12q22 -19 54.5 -39.5t76.5 -38.5q48 -20 92 -31t108 -11q144 0 231 97t100 281h-508v151h507q-18 159 -104.5 238t-214.5 79q-57 0 -106 -12.5t-95 -33.5q-38 -18 -67.5 -39t-56.5 -43h-12v206q53 23 149.5 53t183.5 30q113 0 207 -34t162 -104 q69 -72 105.5 -174.5t36.5 -249.5q0 -280 -143.5 -443t-387.5 -163q-91 0 -177.5 23.5t-152.5 51.5zM153 1304v195h201v-195h-201zM566 1304v195h201v-195h-201z" />
<glyph unicode="&#x4ee;" horiz-adv-x="1178" d="M-1 1489h219l404 -876l365 876h204l-540 -1254q-34 -79 -76.5 -127t-88.5 -72q-46 -25 -90.5 -33t-89.5 -8q-40 0 -94 2t-69 3v185h14q15 -2 45.5 -4.5t77.5 -2.5q22 0 52 2.5t55 14.5q29 14 54.5 37.5t46.5 74.5l34 79zM222 1698v154h754v-154h-754z" />
<glyph unicode="&#x4ef;" horiz-adv-x="1020" d="M6 1117h203l305 -827l304 827h196l-601 -1529h-201l200 466zM152 1335v154h754v-154h-754z" />
<glyph unicode="&#x4f0;" horiz-adv-x="1178" d="M-1 1489h219l404 -876l365 876h204l-540 -1254q-34 -79 -76.5 -127t-88.5 -72q-46 -25 -90.5 -33t-89.5 -8q-40 0 -94 2t-69 3v185h14q15 -2 45.5 -4.5t77.5 -2.5q22 0 52 2.5t55 14.5q29 14 54.5 37.5t46.5 74.5l34 79zM299 1657v195h201v-195h-201zM712 1657v195h201 v-195h-201z" />
<glyph unicode="&#x4f1;" horiz-adv-x="1020" d="M6 1117h203l305 -827l304 827h196l-601 -1529h-201l200 466zM215 1304v195h201v-195h-201zM628 1304v195h201v-195h-201z" />
<glyph unicode="&#x4f2;" horiz-adv-x="1178" d="M-1 1489h219l404 -876l365 876h204l-540 -1254q-34 -79 -76.5 -127t-88.5 -72q-46 -25 -90.5 -33t-89.5 -8q-40 0 -94 2t-69 3v185h14q15 -2 45.5 -4.5t77.5 -2.5q22 0 52 2.5t55 14.5q29 14 54.5 37.5t46.5 74.5l34 79zM300 1675l169 374h228l-258 -374h-139zM704 1675 l169 374h228l-258 -374h-139z" />
<glyph unicode="&#x4f3;" horiz-adv-x="1020" d="M6 1117h203l305 -827l304 827h196l-601 -1529h-201l200 466zM212 1302l169 374h228l-258 -374h-139zM616 1302l169 374h228l-258 -374h-139z" />
<glyph unicode="&#x4f4;" horiz-adv-x="1302" d="M93 977v512h198v-413q0 -94 7 -148.5t40 -104.5q29 -44 86 -67.5t152 -23.5q85 0 192 19.5t185 48.5v689h198v-1489h-198v630q-122 -40 -217 -60t-199 -20q-96 0 -176 23.5t-141 75.5q-60 52 -93.5 134t-33.5 194zM313 1657v195h201v-195h-201zM726 1657v195h201v-195 h-201z" />
<glyph unicode="&#x4f5;" horiz-adv-x="1112" d="M96 716v401h188v-303q0 -74 6 -117.5t33 -84.5q23 -35 69.5 -54t122.5 -19q66 0 141.5 13t131.5 31v534h188v-1117h-188v436q-88 -29 -171 -45t-164 -16q-71 0 -138.5 18.5t-116.5 60.5t-75.5 107.5t-26.5 154.5zM223 1304v195h201v-195h-201zM636 1304v195h201v-195 h-201z" />
<glyph unicode="&#x4f6;" horiz-adv-x="1039" d="M151 0v1489h883v-176h-685v-1139h188v-511h-188v337h-198z" />
<glyph unicode="&#x4f7;" horiz-adv-x="850" d="M136 0v1117h710v-165h-522v-778h188v-511h-188v337h-188z" />
<glyph unicode="&#x4f8;" horiz-adv-x="1615" d="M151 0v1489h198v-584h207q152 0 248 -17.5t181 -83.5q76 -59 112 -146t36 -197q0 -108 -42 -196t-113 -143q-84 -66 -180 -94t-248 -28h-399zM349 169h140q133 0 204.5 13t125.5 50q56 39 81.5 91.5t25.5 133.5q0 75 -24.5 132t-77.5 92q-55 37 -127 45t-203 8h-145v-565 zM513 1657v195h201v-195h-201zM926 1657v195h201v-195h-201zM1266 0v1489h198v-1489h-198z" />
<glyph unicode="&#x4f9;" horiz-adv-x="1419" d="M136 0v1117h188v-435h191q126 0 195.5 -13t138.5 -64q58 -43 87 -110t29 -149q0 -81 -32.5 -147t-88.5 -107q-66 -50 -141 -71t-193 -21h-374zM324 150h119q100 0 155 8.5t95 32.5q41 26 59.5 61.5t18.5 90.5q0 51 -17.5 89.5t-57.5 62.5q-42 25 -95.5 30t-153.5 5h-123 v-380zM393 1304v195h201v-195h-201zM806 1304v195h201v-195h-201zM1095 0v1117h188v-1117h-188z" />
<glyph unicode="&#x4fa;" horiz-adv-x="1039" d="M6 -243h11q22 -5 48.5 -9.5t50.5 -4.5q75 0 123.5 18.5t72.5 58.5q22 36 30 85t7 80v273h188v-290q0 -191 -102.5 -291t-282.5 -100q-31 0 -69.5 3t-76.5 9v168zM35 667v176h116v646h883v-176h-685v-470h519v-176h-519v-667h-198v667h-116z" />
<glyph unicode="&#x4fb;" horiz-adv-x="850" d="M-19 -243h11q22 -5 48.5 -9.5t50.5 -4.5q75 0 123.5 18.5t72.5 58.5q22 36 30 85t7 80v273h188v-290q0 -191 -102.5 -291t-282.5 -100q-31 0 -69.5 3t-76.5 9v168zM46 463v165h90v489h710v-165h-522v-324h392v-165h-392v-463h-188v463h-90z" />
<glyph unicode="&#x4fc;" horiz-adv-x="1268" d="M8 0l473 745l-459 744h226l356 -585l361 585h215l-466 -734l467 -755h-227l-363 596l-369 -596h-214zM681 -243h11q22 -5 48.5 -9.5t50.5 -4.5q75 0 123.5 18.5t72.5 58.5q22 36 30 85t7 80v273h188v-290q0 -191 -102.5 -291t-282.5 -100q-31 0 -69.5 3t-76.5 9v168z" />
<glyph unicode="&#x4fd;" horiz-adv-x="992" d="M10 0l388 554l-384 563h231l269 -418l276 418h214l-386 -550l386 -567h-231l-271 422l-279 -422h-213zM488 -243h11q22 -5 48.5 -9.5t50.5 -4.5q75 0 123.5 18.5t72.5 58.5q22 36 30 85t7 80v273h188v-290q0 -191 -102.5 -291t-282.5 -100q-31 0 -69.5 3t-76.5 9v168z " />
<glyph unicode="&#x4fe;" horiz-adv-x="1189" d="M8 0l414 653h-372v152h394l-422 684h226l356 -585l361 585h215l-435 -684h423v-152h-391l404 -653h-227l-363 596l-369 -596h-214z" />
<glyph unicode="&#x4ff;" horiz-adv-x="1014" d="M10 0l345 493h-315v134h308l-334 490h231l269 -418l276 418h214l-344 -490h314v-134h-306l336 -493h-231l-271 422l-279 -422h-213z" />
<glyph unicode="&#x2000;" horiz-adv-x="1059" />
<glyph unicode="&#x2001;" horiz-adv-x="2118" />
<glyph unicode="&#x2002;" horiz-adv-x="1059" />
<glyph unicode="&#x2003;" horiz-adv-x="2118" />
<glyph unicode="&#x2004;" horiz-adv-x="706" />
<glyph unicode="&#x2005;" horiz-adv-x="529" />
<glyph unicode="&#x2006;" horiz-adv-x="353" />
<glyph unicode="&#x2007;" horiz-adv-x="353" />
<glyph unicode="&#x2008;" horiz-adv-x="264" />
<glyph unicode="&#x2009;" horiz-adv-x="423" />
<glyph unicode="&#x200a;" horiz-adv-x="117" />
<glyph unicode="&#x2010;" horiz-adv-x="744" d="M90 561v181h564v-181h-564z" />
<glyph unicode="&#x2011;" horiz-adv-x="744" d="M90 561v181h564v-181h-564z" />
<glyph unicode="&#x2012;" horiz-adv-x="744" d="M90 561v181h564v-181h-564z" />
<glyph unicode="&#x2013;" d="M-4 572v160h1126v-160h-1126z" />
<glyph unicode="&#x2014;" horiz-adv-x="1862" d="M-4 572v160h1870v-160h-1870z" />
<glyph unicode="&#x2018;" horiz-adv-x="432" d="M-64 1556h242l157 -559h-138z" />
<glyph unicode="&#x2019;" horiz-adv-x="432" d="M97 997l157 559h242l-261 -559h-138z" />
<glyph unicode="&#x201a;" horiz-adv-x="432" d="M-13 -276l157 559h242l-261 -559h-138z" />
<glyph unicode="&#x201c;" horiz-adv-x="822" d="M-64 1556h238l157 -559h-134zM330 1556h238l157 -559h-134z" />
<glyph unicode="&#x201d;" horiz-adv-x="822" d="M107 997l157 559h238l-261 -559h-134zM501 997l157 559h238l-261 -559h-134z" />
<glyph unicode="&#x201e;" horiz-adv-x="814" d="M-8 -276l157 559h238l-261 -559h-134zM386 -276l157 559h238l-261 -559h-134z" />
<glyph unicode="&#x2020;" d="M135 1034v129l363 -5l-5 398h132l-5 -398l363 5v-129l-363 5l5 -904h-132l5 904z" />
<glyph unicode="&#x2021;" d="M135 507v129l363 -5v418l-363 -5v129l363 -5l-5 388h132l-5 -388l363 5v-129l-363 5v-418l363 5v-129l-363 5l5 -388h-132l5 388z" />
<glyph unicode="&#x2022;" horiz-adv-x="931" d="M114 662q0 145 103 248t248 103t248.5 -103t103.5 -248t-103.5 -248t-248.5 -103t-248 103t-103 248z" />
<glyph unicode="&#x2026;" horiz-adv-x="1674" d="M177 0v223h204v-223h-204zM735 0v223h204v-223h-204zM1293 0v223h204v-223h-204z" />
<glyph unicode="&#x202f;" horiz-adv-x="423" />
<glyph unicode="&#x2030;" horiz-adv-x="2848" d="M102 1075q0 224 91 333t262 109q174 0 263 -110t89 -331q0 -225 -90.5 -333.5t-261.5 -108.5q-174 0 -263.5 110t-89.5 331zM280 1075q0 -150 34 -229t141 -79q103 0 138.5 79t35.5 230q0 152 -35.5 230t-138.5 78t-139 -79t-36 -230zM528 0l780 1489h165l-780 -1489 h-165zM1192 412q0 224 91 333t262 109q174 0 263 -110t89 -331q0 -225 -90.5 -333.5t-261.5 -108.5q-174 0 -263.5 110t-89.5 331zM1370 412q0 -150 34 -229t141 -79q103 0 138.5 79t35.5 230q0 152 -35.5 230t-138.5 78t-139 -79t-36 -230zM2036 412q0 224 91 333t262 109 q174 0 263 -110t89 -331q0 -225 -90.5 -333.5t-261.5 -108.5q-174 0 -263.5 110t-89.5 331zM2214 412q0 -150 34 -229t141 -79q103 0 138.5 79t35.5 230q0 152 -35.5 230t-138.5 78t-139 -79t-36 -230z" />
<glyph unicode="&#x2039;" horiz-adv-x="784" d="M123 608v89l510 435v-199l-331 -281l331 -281v-199z" />
<glyph unicode="&#x203a;" horiz-adv-x="784" d="M151 172v199l331 281l-331 281v199l510 -435v-89z" />
<glyph unicode="&#x2044;" horiz-adv-x="886" d="M-29 0l780 1489h165l-780 -1489h-165z" />
<glyph unicode="&#x205f;" horiz-adv-x="529" />
<glyph unicode="&#x20ac;" d="M-28 524l28 138h69q-3 40 -3 81q0 29 1 57h-95l28 138h83q46 262 207 414q174 164 446 164q178 0 336 -71v-195h-16q-141 97 -322 97q-184 0 -302 -123q-101 -106 -140 -286h709l-27 -138h-700q-2 -28 -2 -57q0 -41 3 -81h670l-27 -138h-620q44 -170 146 -268 q116 -112 290 -112q187 0 324 92h14v-193q-170 -70 -339 -70q-274 0 -444 158q-154 143 -203 393h-114z" />
<glyph unicode="&#x2122;" horiz-adv-x="1794" d="M107 1372v117h585v-117h-229v-587h-127v587h-229zM847 785v704h238l161 -382l161 382h227v-704h-124v616h-20l-204 -453h-85l-206 460h-25v-623h-123z" />
<glyph unicode="&#x2202;" d="M67 424q0 228 130.5 372.5t326.5 144.5q87 0 163 -26t151 -91q2 26 2.5 53t0.5 58q0 216 -75 317.5t-221 101.5q-79 0 -165 -31t-162 -87h-13v194q79 44 179.5 66.5t187.5 22.5q140 0 236.5 -56t155.5 -177q41 -86 55 -191t14 -258q0 -68 -7.5 -153.5t-25.5 -170.5 t-48 -170t-74 -153q-82 -123 -178.5 -172t-205.5 -49q-190 0 -308.5 123.5t-118.5 331.5zM267 427q0 -146 63.5 -222t169.5 -76q143 0 230 143t102 406q-56 46 -129 73.5t-143 27.5q-134 0 -213.5 -89t-79.5 -263z" />
<glyph unicode="&#x2206;" horiz-adv-x="1268" d="M-10 0l522 1489h244l522 -1489h-1288zM249 172h761l-381 1120z" />
<glyph unicode="&#x220f;" horiz-adv-x="1393" d="M156 -189v1678h1081v-1678h-198v1502h-685v-1502h-198z" />
<glyph unicode="&#x2211;" horiz-adv-x="1303" d="M126 2l626 668l-616 631v188h1053v-176h-807l601 -598v-72l-628 -656h873v-176h-1102v191z" />
<glyph unicode="&#x221a;" horiz-adv-x="1490" d="M81 842v139h393l265 -797l653 1605h162l-790 -1940h-104l-342 993h-237z" />
<glyph unicode="&#x221e;" horiz-adv-x="1862" d="M110 642q0 236 117.5 371t312.5 135q127 0 234 -80.5t168 -218.5q75 150 177 224.5t236 74.5q182 0 289.5 -137t107.5 -348q0 -229 -113.5 -367.5t-316.5 -138.5q-127 0 -234 80.5t-168 218.5q-77 -153 -176.5 -226t-236.5 -73q-182 0 -289.5 137t-107.5 348zM280 642 q0 -142 62.5 -220.5t167.5 -78.5q85 0 143 37.5t124 153.5q25 44 49.5 92t46.5 103q-60 117 -144.5 175.5t-174.5 58.5q-131 0 -202.5 -82t-71.5 -239zM989 576q58 -116 143.5 -175t175.5 -59q131 0 202.5 81.5t71.5 239.5q0 144 -63 221.5t-167 77.5q-88 0 -145 -39 t-123 -152q-33 -55 -52.5 -97.5t-42.5 -97.5z" />
<glyph unicode="&#x222b;" d="M74 -226h10q38 -11 82 -19t75 -8q127 0 175.5 59.5t48.5 211.5v1123q0 210 105 317.5t284 107.5q58 0 105 -5.5t89 -13.5v-178h-10q-29 10 -80.5 18.5t-80.5 8.5q-127 0 -175.5 -59.5t-48.5 -211.5v-1123q0 -210 -105.5 -317.5t-283.5 -107.5q-48 0 -94 4.5t-96 14.5v178 z" />
<glyph unicode="&#x2248;" horiz-adv-x="1490" d="M190 202q17 192 102 291.5t234 99.5q71 0 138.5 -37.5t118.5 -81.5q31 -26 90 -66.5t106 -40.5q70 0 104 50t59 171h157q-23 -185 -102.5 -282t-235.5 -97q-66 0 -134.5 37t-122.5 83q-37 31 -95 68.5t-101 37.5q-72 0 -107.5 -55.5t-53.5 -177.5h-157zM190 719 q21 181 104 279t233 98q66 0 134.5 -36.5t122.5 -82.5q36 -30 94.5 -68.5t101.5 -38.5q69 0 106 53.5t55 180.5h157q-19 -195 -100.5 -293.5t-235.5 -98.5q-69 0 -136.5 37t-120.5 83q-28 24 -90.5 65t-105.5 41q-72 0 -105 -47t-59 -172h-155z" />
<glyph unicode="&#x2260;" horiz-adv-x="1490" d="M192 362v156h434l84 268h-518v156h566l105 335h153l-105 -335h387v-156h-436l-83 -268h519v-156h-568l-105 -335h-153l105 335h-385z" />
<glyph unicode="&#x2264;" horiz-adv-x="1490" d="M201 0v160h1074v-160h-1074zM201 788v120l1074 483v-181l-812 -362l812 -362v-181z" />
<glyph unicode="&#x2265;" horiz-adv-x="1490" d="M215 0v160h1074v-160h-1074zM215 305v181l812 362l-812 362v181l1074 -483v-120z" />
<glyph unicode="&#x25ca;" horiz-adv-x="1490" d="M119 654l626 710l626 -710l-626 -710zM337 654l408 -474l408 474l-408 476z" />
<glyph unicode="&#x25fc;" horiz-adv-x="1115" d="M0 0v1115h1115v-1115h-1115z" />
<glyph unicode="&#xfb01;" horiz-adv-x="1092" d="M29 961v156h127v57q0 182 97 287t250 105q52 0 94.5 -5.5t70.5 -9.5v-172h-10q-16 6 -53 14.5t-79 8.5q-105 0 -146.5 -54.5t-41.5 -172.5v-58h616v-1117h-188v964h-422v-964h-188v961h-127zM752 1304v195h202v-195h-202z" />
<glyph unicode="&#xfb02;" horiz-adv-x="1086" d="M29 961v156h127v49q0 103 32 177t90 125q55 48 142.5 73t187.5 25q60 0 131 -7t111 -11l98 8v-1556h-188v1404q-27 3 -66.5 5t-63.5 2q-162 0 -227 -53.5t-65 -193.5v-47h243v-156h-237v-961h-188v961h-127z" />
</font>
</defs>
</svg>
